<ttFont>
    <TTGlyph name="A" xMin="-28" yMin="-202" xMax="966" yMax="760">
      <contour>
        <pt x="965" y="-183" on="1"/>
        <pt x="856" y="-238" on="0"/>
        <pt x="744" y="-201" on="1"/>
        <pt x="625" y="-163" on="0"/>
        <pt x="539" y="-39" on="1"/>
        <pt x="493" y="27" on="0"/>
        <pt x="460" y="114" on="1"/>
        <pt x="428" y="199" on="1"/>
        <pt x="192" y="199" on="1"/>
        <pt x="139" y="73" on="1"/>
        <pt x="134" y="60" on="0"/>
        <pt x="134" y="44" on="0"/>
        <pt x="141" y="25" on="0"/>
        <pt x="164" y="10" on="0"/>
        <pt x="178" y="10" on="1"/>
        <pt x="186" y="10" on="1"/>
        <pt x="186" y="0" on="1"/>
        <pt x="-28" y="0" on="1"/>
        <pt x="-28" y="10" on="1"/>
        <pt x="-19" y="10" on="1"/>
        <pt x="4" y="10" on="0"/>
        <pt x="49" y="37" on="0"/>
        <pt x="64" y="64" on="1"/>
        <pt x="287" y="573" on="1"/>
        <pt x="248" y="661" on="0"/>
        <pt x="204" y="694" on="1"/>
        <pt x="167" y="722" on="0"/>
        <pt x="100" y="722" on="0"/>
        <pt x="71" y="712" on="1"/>
        <pt x="69" y="722" on="1"/>
        <pt x="141" y="759" on="0"/>
        <pt x="207" y="759" on="1"/>
        <pt x="289" y="759" on="0"/>
        <pt x="354" y="695" on="1"/>
        <pt x="418" y="632" on="0"/>
        <pt x="467" y="513" on="1"/>
        <pt x="612" y="155" on="1"/>
        <pt x="694" y="-48" on="0"/>
        <pt x="780" y="-124" on="1"/>
        <pt x="815" y="-155" on="0"/>
        <pt x="889" y="-179" on="0"/>
        <pt x="940" y="-179" on="0"/>
        <pt x="964" y="-173" on="1"/>
      </contour>
      <contour>
        <pt x="209" y="242" on="1"/>
        <pt x="413" y="242" on="1"/>
        <pt x="343" y="427" on="1"/>
        <pt x="338" y="441" on="0"/>
        <pt x="320" y="490" on="0"/>
        <pt x="317" y="500" on="1"/>
      </contour>
    </TTGlyph>
    <TTGlyph name="AE" xMin="-285" yMin="-108" xMax="913" yMax="719">
      <contour>
        <pt x="24" y="-5" on="0"/>
        <pt x="-64" y="-81" on="0"/>
        <pt x="-152" y="-107" on="0"/>
        <pt x="-239" y="-107" on="0"/>
        <pt x="-285" y="-91" on="1"/>
        <pt x="-284" y="-81" on="1"/>
        <pt x="-280" y="-81" on="0"/>
        <pt x="-276" y="-81" on="1"/>
        <pt x="-202" y="-81" on="0"/>
        <pt x="-82" y="-18" on="0"/>
        <pt x="-18" y="79" on="1"/>
        <pt x="362" y="651" on="1"/>
        <pt x="368" y="665" on="0"/>
        <pt x="353" y="689" on="0"/>
        <pt x="338" y="689" on="1"/>
        <pt x="334" y="689" on="1"/>
        <pt x="334" y="700" on="1"/>
        <pt x="567" y="700" on="1"/>
        <pt x="598" y="700" on="0"/>
        <pt x="674" y="712" on="0"/>
        <pt x="689" y="718" on="1"/>
        <pt x="689" y="549" on="1"/>
        <pt x="679" y="549" on="1"/>
        <pt x="679" y="559" on="1"/>
        <pt x="679" y="619" on="0"/>
        <pt x="633" y="645" on="1"/>
        <pt x="612" y="657" on="0"/>
        <pt x="582" y="657" on="1"/>
        <pt x="513" y="657" on="1"/>
        <pt x="513" y="361" on="1"/>
        <pt x="676" y="361" on="1"/>
        <pt x="725" y="362" on="0"/>
        <pt x="748" y="403" on="1"/>
        <pt x="758" y="422" on="0"/>
        <pt x="758" y="446" on="1"/>
        <pt x="758" y="455" on="1"/>
        <pt x="768" y="455" on="1"/>
        <pt x="768" y="224" on="1"/>
        <pt x="758" y="224" on="1"/>
        <pt x="758" y="233" on="1"/>
        <pt x="759" y="268" on="0"/>
        <pt x="713" y="316" on="0"/>
        <pt x="677" y="318" on="1"/>
        <pt x="513" y="318" on="1"/>
        <pt x="513" y="43" on="1"/>
        <pt x="717" y="43" on="1"/>
        <pt x="783" y="43" on="0"/>
        <pt x="880" y="124" on="0"/>
        <pt x="902" y="195" on="1"/>
        <pt x="912" y="195" on="1"/>
        <pt x="867" y="0" on="1"/>
        <pt x="304" y="0" on="1"/>
        <pt x="304" y="10" on="1"/>
        <pt x="314" y="10" on="1"/>
        <pt x="334" y="10" on="0"/>
        <pt x="363" y="38" on="0"/>
        <pt x="364" y="58" on="1"/>
        <pt x="364" y="318" on="1"/>
        <pt x="218" y="318" on="1"/>
        <pt x="60" y="55" on="1"/>
      </contour>
      <contour>
        <pt x="364" y="361" on="1"/>
        <pt x="364" y="564" on="1"/>
        <pt x="243" y="361" on="1"/>
      </contour>
    </TTGlyph>
    <TTGlyph name="Aacute" xMin="-28" yMin="-202" xMax="966" yMax="950">
      <contour>
        <pt x="333" y="778" on="1"/>
        <pt x="326" y="785" on="1"/>
        <pt x="369" y="859" on="0"/>
        <pt x="470" y="949" on="1"/>
        <pt x="519" y="924" on="0"/>
        <pt x="538" y="868" on="1"/>
        <pt x="435" y="803" on="0"/>
      </contour>
      <contour>
        <pt x="965" y="-183" on="1"/>
        <pt x="856" y="-238" on="0"/>
        <pt x="744" y="-201" on="1"/>
        <pt x="625" y="-163" on="0"/>
        <pt x="539" y="-39" on="1"/>
        <pt x="493" y="27" on="0"/>
        <pt x="460" y="114" on="1"/>
        <pt x="428" y="199" on="1"/>
        <pt x="192" y="199" on="1"/>
        <pt x="139" y="73" on="1"/>
        <pt x="134" y="60" on="0"/>
        <pt x="134" y="37" on="0"/>
        <pt x="156" y="10" on="0"/>
        <pt x="178" y="10" on="1"/>
        <pt x="186" y="10" on="1"/>
        <pt x="186" y="0" on="1"/>
        <pt x="-28" y="0" on="1"/>
        <pt x="-28" y="10" on="1"/>
        <pt x="-19" y="10" on="1"/>
        <pt x="4" y="10" on="0"/>
        <pt x="49" y="37" on="0"/>
        <pt x="64" y="64" on="1"/>
        <pt x="287" y="573" on="1"/>
        <pt x="248" y="661" on="0"/>
        <pt x="204" y="694" on="1"/>
        <pt x="167" y="722" on="0"/>
        <pt x="100" y="722" on="0"/>
        <pt x="71" y="712" on="1"/>
        <pt x="69" y="722" on="1"/>
        <pt x="141" y="759" on="0"/>
        <pt x="207" y="759" on="1"/>
        <pt x="289" y="759" on="0"/>
        <pt x="354" y="695" on="1"/>
        <pt x="418" y="632" on="0"/>
        <pt x="467" y="513" on="1"/>
        <pt x="612" y="155" on="1"/>
        <pt x="694" y="-48" on="0"/>
        <pt x="780" y="-124" on="1"/>
        <pt x="815" y="-155" on="0"/>
        <pt x="889" y="-179" on="0"/>
        <pt x="940" y="-179" on="0"/>
        <pt x="964" y="-173" on="1"/>
      </contour>
      <contour>
        <pt x="209" y="242" on="1"/>
        <pt x="413" y="242" on="1"/>
        <pt x="343" y="427" on="1"/>
        <pt x="338" y="440" on="0"/>
        <pt x="319" y="492" on="0"/>
        <pt x="317" y="500" on="1"/>
      </contour>
    </TTGlyph>
    <TTGlyph name="Abreve" xMin="-28" yMin="-216" xMax="966" yMax="921">
      <contour>
        <pt x="471" y="900" on="1"/>
        <pt x="471" y="857" on="0"/>
        <pt x="401" y="780" on="0"/>
        <pt x="286" y="780" on="0"/>
        <pt x="217" y="857" on="0"/>
        <pt x="217" y="900" on="1"/>
        <pt x="217" y="910" on="0"/>
        <pt x="219" y="920" on="1"/>
        <pt x="230" y="920" on="1"/>
        <pt x="241" y="895" on="0"/>
        <pt x="304" y="860" on="0"/>
        <pt x="383" y="860" on="0"/>
        <pt x="447" y="895" on="0"/>
        <pt x="457" y="920" on="1"/>
        <pt x="469" y="920" on="1"/>
        <pt x="471" y="910" on="0"/>
      </contour>
      <contour>
        <pt x="965" y="-183" on="1"/>
        <pt x="900" y="-216" on="0"/>
        <pt x="788" y="-216" on="0"/>
        <pt x="688" y="-183" on="0"/>
        <pt x="637" y="-144" on="1"/>
        <pt x="527" y="-60" on="0"/>
        <pt x="460" y="114" on="1"/>
        <pt x="428" y="199" on="1"/>
        <pt x="192" y="199" on="1"/>
        <pt x="139" y="73" on="1"/>
        <pt x="134" y="60" on="0"/>
        <pt x="134" y="37" on="0"/>
        <pt x="156" y="10" on="0"/>
        <pt x="178" y="10" on="1"/>
        <pt x="186" y="10" on="1"/>
        <pt x="186" y="0" on="1"/>
        <pt x="-28" y="0" on="1"/>
        <pt x="-28" y="10" on="1"/>
        <pt x="-19" y="10" on="1"/>
        <pt x="4" y="10" on="0"/>
        <pt x="49" y="37" on="0"/>
        <pt x="64" y="64" on="1"/>
        <pt x="287" y="573" on="1"/>
        <pt x="248" y="661" on="0"/>
        <pt x="204" y="694" on="1"/>
        <pt x="167" y="722" on="0"/>
        <pt x="100" y="722" on="0"/>
        <pt x="71" y="712" on="1"/>
        <pt x="69" y="722" on="1"/>
        <pt x="141" y="759" on="0"/>
        <pt x="207" y="759" on="1"/>
        <pt x="289" y="759" on="0"/>
        <pt x="354" y="695" on="1"/>
        <pt x="418" y="632" on="0"/>
        <pt x="467" y="513" on="1"/>
        <pt x="612" y="155" on="1"/>
        <pt x="662" y="31" on="0"/>
        <pt x="704" y="-31" on="1"/>
        <pt x="754" y="-106" on="0"/>
        <pt x="790" y="-131" on="1"/>
        <pt x="856" y="-178" on="0"/>
        <pt x="896" y="-178" on="1"/>
        <pt x="921" y="-178" on="0"/>
        <pt x="964" y="-173" on="1"/>
      </contour>
      <contour>
        <pt x="209" y="242" on="1"/>
        <pt x="413" y="242" on="1"/>
        <pt x="343" y="427" on="1"/>
        <pt x="338" y="440" on="0"/>
        <pt x="319" y="492" on="0"/>
        <pt x="317" y="500" on="1"/>
      </contour>
    </TTGlyph>
    <TTGlyph name="Acircumflex" xMin="-28" yMin="-216" xMax="966" yMax="932">
      <contour>
        <pt x="337" y="931" on="1"/>
        <pt x="348" y="931" on="1"/>
        <pt x="502" y="778" on="1"/>
        <pt x="495" y="770" on="1"/>
        <pt x="342" y="835" on="1"/>
        <pt x="200" y="770" on="1"/>
        <pt x="193" y="778" on="1"/>
      </contour>
      <contour>
        <pt x="965" y="-183" on="1"/>
        <pt x="900" y="-216" on="0"/>
        <pt x="788" y="-216" on="0"/>
        <pt x="688" y="-183" on="0"/>
        <pt x="637" y="-144" on="1"/>
        <pt x="527" y="-60" on="0"/>
        <pt x="460" y="114" on="1"/>
        <pt x="428" y="199" on="1"/>
        <pt x="192" y="199" on="1"/>
        <pt x="139" y="73" on="1"/>
        <pt x="134" y="60" on="0"/>
        <pt x="134" y="44" on="0"/>
        <pt x="141" y="25" on="0"/>
        <pt x="164" y="10" on="0"/>
        <pt x="178" y="10" on="1"/>
        <pt x="186" y="10" on="1"/>
        <pt x="186" y="0" on="1"/>
        <pt x="-28" y="0" on="1"/>
        <pt x="-28" y="10" on="1"/>
        <pt x="-19" y="10" on="1"/>
        <pt x="4" y="10" on="0"/>
        <pt x="49" y="37" on="0"/>
        <pt x="64" y="64" on="1"/>
        <pt x="287" y="573" on="1"/>
        <pt x="248" y="661" on="0"/>
        <pt x="204" y="694" on="1"/>
        <pt x="167" y="722" on="0"/>
        <pt x="100" y="722" on="0"/>
        <pt x="71" y="712" on="1"/>
        <pt x="69" y="722" on="1"/>
        <pt x="141" y="759" on="0"/>
        <pt x="207" y="759" on="1"/>
        <pt x="289" y="759" on="0"/>
        <pt x="354" y="695" on="1"/>
        <pt x="418" y="632" on="0"/>
        <pt x="467" y="513" on="1"/>
        <pt x="612" y="155" on="1"/>
        <pt x="694" y="-48" on="0"/>
        <pt x="780" y="-124" on="1"/>
        <pt x="815" y="-155" on="0"/>
        <pt x="889" y="-179" on="0"/>
        <pt x="940" y="-179" on="0"/>
        <pt x="964" y="-173" on="1"/>
      </contour>
      <contour>
        <pt x="209" y="242" on="1"/>
        <pt x="413" y="242" on="1"/>
        <pt x="343" y="427" on="1"/>
        <pt x="338" y="440" on="0"/>
        <pt x="319" y="492" on="0"/>
        <pt x="317" y="500" on="1"/>
      </contour>
    </TTGlyph>
    <TTGlyph name="Adieresis" xMin="-28" yMin="-216" xMax="966" yMax="896">
      <contour>
        <pt x="250" y="775" on="0"/>
        <pt x="200" y="775" on="0"/>
        <pt x="165" y="810" on="0"/>
        <pt x="165" y="860" on="0"/>
        <pt x="200" y="895" on="0"/>
        <pt x="250" y="895" on="0"/>
        <pt x="285" y="860" on="0"/>
        <pt x="285" y="810" on="0"/>
      </contour>
      <contour>
        <pt x="483" y="775" on="0"/>
        <pt x="433" y="775" on="0"/>
        <pt x="398" y="810" on="0"/>
        <pt x="398" y="860" on="0"/>
        <pt x="433" y="895" on="0"/>
        <pt x="483" y="895" on="0"/>
        <pt x="518" y="860" on="0"/>
        <pt x="518" y="810" on="0"/>
      </contour>
      <contour>
        <pt x="965" y="-183" on="1"/>
        <pt x="900" y="-216" on="0"/>
        <pt x="788" y="-216" on="0"/>
        <pt x="688" y="-183" on="0"/>
        <pt x="637" y="-144" on="1"/>
        <pt x="527" y="-60" on="0"/>
        <pt x="460" y="114" on="1"/>
        <pt x="428" y="199" on="1"/>
        <pt x="192" y="199" on="1"/>
        <pt x="139" y="73" on="1"/>
        <pt x="134" y="60" on="0"/>
        <pt x="134" y="44" on="0"/>
        <pt x="141" y="25" on="0"/>
        <pt x="164" y="10" on="0"/>
        <pt x="178" y="10" on="1"/>
        <pt x="186" y="10" on="1"/>
        <pt x="186" y="0" on="1"/>
        <pt x="-28" y="0" on="1"/>
        <pt x="-28" y="10" on="1"/>
        <pt x="-19" y="10" on="1"/>
        <pt x="4" y="10" on="0"/>
        <pt x="49" y="37" on="0"/>
        <pt x="64" y="64" on="1"/>
        <pt x="287" y="573" on="1"/>
        <pt x="248" y="661" on="0"/>
        <pt x="204" y="694" on="1"/>
        <pt x="167" y="722" on="0"/>
        <pt x="100" y="722" on="0"/>
        <pt x="71" y="712" on="1"/>
        <pt x="69" y="722" on="1"/>
        <pt x="141" y="759" on="0"/>
        <pt x="207" y="759" on="1"/>
        <pt x="289" y="759" on="0"/>
        <pt x="354" y="695" on="1"/>
        <pt x="418" y="632" on="0"/>
        <pt x="467" y="513" on="1"/>
        <pt x="612" y="155" on="1"/>
        <pt x="694" y="-48" on="0"/>
        <pt x="780" y="-124" on="1"/>
        <pt x="815" y="-155" on="0"/>
        <pt x="889" y="-179" on="0"/>
        <pt x="940" y="-179" on="0"/>
        <pt x="964" y="-173" on="1"/>
      </contour>
      <contour>
        <pt x="209" y="242" on="1"/>
        <pt x="413" y="242" on="1"/>
        <pt x="343" y="427" on="1"/>
        <pt x="338" y="440" on="0"/>
        <pt x="319" y="492" on="0"/>
        <pt x="317" y="500" on="1"/>
      </contour>
    </TTGlyph>
    <TTGlyph name="Agrave" xMin="-28" yMin="-216" xMax="966" yMax="952">
      <contour>
        <pt x="363" y="787" on="1"/>
        <pt x="356" y="780" on="1"/>
        <pt x="255" y="804" on="0"/>
        <pt x="151" y="870" on="1"/>
        <pt x="170" y="927" on="0"/>
        <pt x="219" y="951" on="1"/>
        <pt x="320" y="860" on="0"/>
      </contour>
      <contour>
        <pt x="965" y="-183" on="1"/>
        <pt x="900" y="-216" on="0"/>
        <pt x="788" y="-216" on="0"/>
        <pt x="688" y="-183" on="0"/>
        <pt x="637" y="-144" on="1"/>
        <pt x="527" y="-60" on="0"/>
        <pt x="460" y="114" on="1"/>
        <pt x="428" y="199" on="1"/>
        <pt x="192" y="199" on="1"/>
        <pt x="139" y="73" on="1"/>
        <pt x="134" y="60" on="0"/>
        <pt x="134" y="44" on="0"/>
        <pt x="141" y="25" on="0"/>
        <pt x="164" y="10" on="0"/>
        <pt x="178" y="10" on="1"/>
        <pt x="186" y="10" on="1"/>
        <pt x="186" y="0" on="1"/>
        <pt x="-28" y="0" on="1"/>
        <pt x="-28" y="10" on="1"/>
        <pt x="-19" y="10" on="1"/>
        <pt x="4" y="10" on="0"/>
        <pt x="49" y="37" on="0"/>
        <pt x="64" y="64" on="1"/>
        <pt x="287" y="573" on="1"/>
        <pt x="248" y="661" on="0"/>
        <pt x="204" y="694" on="1"/>
        <pt x="167" y="722" on="0"/>
        <pt x="100" y="722" on="0"/>
        <pt x="71" y="712" on="1"/>
        <pt x="69" y="722" on="1"/>
        <pt x="141" y="759" on="0"/>
        <pt x="207" y="759" on="1"/>
        <pt x="289" y="759" on="0"/>
        <pt x="354" y="695" on="1"/>
        <pt x="418" y="632" on="0"/>
        <pt x="467" y="513" on="1"/>
        <pt x="612" y="155" on="1"/>
        <pt x="694" y="-48" on="0"/>
        <pt x="780" y="-124" on="1"/>
        <pt x="815" y="-155" on="0"/>
        <pt x="889" y="-179" on="0"/>
        <pt x="940" y="-179" on="0"/>
        <pt x="964" y="-173" on="1"/>
      </contour>
      <contour>
        <pt x="209" y="242" on="1"/>
        <pt x="413" y="242" on="1"/>
        <pt x="343" y="427" on="1"/>
        <pt x="338" y="441" on="0"/>
        <pt x="320" y="490" on="0"/>
        <pt x="317" y="500" on="1"/>
      </contour>
    </TTGlyph>
    <TTGlyph name="Amacron" xMin="-28" yMin="-216" xMax="966" yMax="877">
      <contour>
        <pt x="209" y="811" on="1"/>
        <pt x="209" y="877" on="1"/>
        <pt x="484" y="877" on="1"/>
        <pt x="484" y="811" on="1"/>
      </contour>
      <contour>
        <pt x="965" y="-183" on="1"/>
        <pt x="900" y="-216" on="0"/>
        <pt x="788" y="-216" on="0"/>
        <pt x="688" y="-183" on="0"/>
        <pt x="637" y="-144" on="1"/>
        <pt x="527" y="-60" on="0"/>
        <pt x="460" y="114" on="1"/>
        <pt x="428" y="199" on="1"/>
        <pt x="192" y="199" on="1"/>
        <pt x="139" y="73" on="1"/>
        <pt x="134" y="60" on="0"/>
        <pt x="134" y="44" on="0"/>
        <pt x="141" y="25" on="0"/>
        <pt x="164" y="10" on="0"/>
        <pt x="178" y="10" on="1"/>
        <pt x="186" y="10" on="1"/>
        <pt x="186" y="0" on="1"/>
        <pt x="-28" y="0" on="1"/>
        <pt x="-28" y="10" on="1"/>
        <pt x="-19" y="10" on="1"/>
        <pt x="4" y="10" on="0"/>
        <pt x="49" y="37" on="0"/>
        <pt x="64" y="64" on="1"/>
        <pt x="287" y="573" on="1"/>
        <pt x="248" y="661" on="0"/>
        <pt x="204" y="694" on="1"/>
        <pt x="167" y="722" on="0"/>
        <pt x="100" y="722" on="0"/>
        <pt x="71" y="712" on="1"/>
        <pt x="69" y="722" on="1"/>
        <pt x="141" y="759" on="0"/>
        <pt x="207" y="759" on="1"/>
        <pt x="289" y="759" on="0"/>
        <pt x="354" y="695" on="1"/>
        <pt x="418" y="632" on="0"/>
        <pt x="467" y="513" on="1"/>
        <pt x="612" y="155" on="1"/>
        <pt x="694" y="-48" on="0"/>
        <pt x="780" y="-124" on="1"/>
        <pt x="815" y="-155" on="0"/>
        <pt x="889" y="-179" on="0"/>
        <pt x="940" y="-179" on="0"/>
        <pt x="964" y="-173" on="1"/>
      </contour>
      <contour>
        <pt x="209" y="242" on="1"/>
        <pt x="413" y="242" on="1"/>
        <pt x="343" y="427" on="1"/>
        <pt x="338" y="440" on="0"/>
        <pt x="319" y="492" on="0"/>
        <pt x="317" y="500" on="1"/>
      </contour>
    </TTGlyph>
    <TTGlyph name="Aogonek" xMin="-29" yMin="-196" xMax="960" yMax="742">
      <contour>
        <pt x="959" y="-166" on="1"/>
        <pt x="892" y="-195" on="0"/>
        <pt x="824" y="-195" on="1"/>
        <pt x="641" y="-195" on="0"/>
        <pt x="522" y="-5" on="1"/>
        <pt x="466" y="-18" on="0"/>
        <pt x="466" y="-74" on="1"/>
        <pt x="466" y="-114" on="0"/>
        <pt x="498" y="-132" on="1"/>
        <pt x="513" y="-140" on="0"/>
        <pt x="550" y="-140" on="0"/>
        <pt x="574" y="-125" on="1"/>
        <pt x="579" y="-132" on="1"/>
        <pt x="563" y="-196" on="0"/>
        <pt x="494" y="-196" on="1"/>
        <pt x="455" y="-196" on="0"/>
        <pt x="393" y="-140" on="0"/>
        <pt x="393" y="-99" on="1"/>
        <pt x="393" y="-37" on="0"/>
        <pt x="439" y="-11" on="1"/>
        <pt x="468" y="6" on="0"/>
        <pt x="504" y="6" on="1"/>
        <pt x="510" y="6" on="0"/>
        <pt x="515" y="6" on="1"/>
        <pt x="486" y="55" on="0"/>
        <pt x="462" y="114" on="1"/>
        <pt x="429" y="199" on="1"/>
        <pt x="192" y="199" on="1"/>
        <pt x="139" y="73" on="1"/>
        <pt x="134" y="60" on="0"/>
        <pt x="134" y="37" on="0"/>
        <pt x="156" y="10" on="0"/>
        <pt x="178" y="10" on="1"/>
        <pt x="186" y="10" on="1"/>
        <pt x="186" y="0" on="1"/>
        <pt x="-28" y="0" on="1"/>
        <pt x="-28" y="10" on="1"/>
        <pt x="-19" y="10" on="1"/>
        <pt x="4" y="10" on="0"/>
        <pt x="49" y="37" on="0"/>
        <pt x="64" y="64" on="1"/>
        <pt x="281" y="559" on="1"/>
        <pt x="205" y="701" on="0"/>
        <pt x="101" y="701" on="1"/>
        <pt x="77" y="701" on="0"/>
        <pt x="53" y="694" on="1"/>
        <pt x="50" y="704" on="1"/>
        <pt x="131" y="741" on="0"/>
        <pt x="256" y="741" on="0"/>
        <pt x="305" y="712" on="1"/>
        <pt x="399" y="656" on="0"/>
        <pt x="466" y="501" on="1"/>
        <pt x="614" y="156" on="1"/>
        <pt x="685" y="-10" on="0"/>
        <pt x="744" y="-72" on="1"/>
        <pt x="810" y="-142" on="0"/>
        <pt x="874" y="-155" on="1"/>
        <pt x="895" y="-160" on="0"/>
        <pt x="937" y="-160" on="0"/>
        <pt x="958" y="-156" on="1"/>
      </contour>
      <contour>
        <pt x="209" y="242" on="1"/>
        <pt x="412" y="242" on="1"/>
        <pt x="340" y="425" on="1"/>
        <pt x="320" y="475" on="0"/>
        <pt x="313" y="492" on="1"/>
      </contour>
    </TTGlyph>
    <TTGlyph name="Aring" xMin="-28" yMin="-216" xMax="966" yMax="947">
      <contour>
        <pt x="235" y="899" on="0"/>
        <pt x="297" y="947" on="0"/>
        <pt x="374" y="947" on="0"/>
        <pt x="423" y="926" on="0"/>
        <pt x="451" y="889" on="0"/>
        <pt x="451" y="841" on="0"/>
        <pt x="437" y="821" on="1"/>
        <pt x="407" y="780" on="0"/>
        <pt x="343" y="780" on="1"/>
        <pt x="296" y="780" on="0"/>
        <pt x="235" y="827" on="0"/>
      </contour>
      <contour>
        <pt x="394" y="889" on="0"/>
        <pt x="365" y="922" on="0"/>
        <pt x="321" y="922" on="0"/>
        <pt x="293" y="889" on="0"/>
        <pt x="293" y="837" on="0"/>
        <pt x="321" y="805" on="0"/>
        <pt x="365" y="805" on="0"/>
        <pt x="394" y="837" on="0"/>
      </contour>
      <contour>
        <pt x="965" y="-183" on="1"/>
        <pt x="900" y="-216" on="0"/>
        <pt x="788" y="-216" on="0"/>
        <pt x="688" y="-183" on="0"/>
        <pt x="637" y="-144" on="1"/>
        <pt x="527" y="-60" on="0"/>
        <pt x="460" y="114" on="1"/>
        <pt x="428" y="199" on="1"/>
        <pt x="192" y="199" on="1"/>
        <pt x="139" y="73" on="1"/>
        <pt x="134" y="60" on="0"/>
        <pt x="134" y="44" on="0"/>
        <pt x="141" y="25" on="0"/>
        <pt x="164" y="10" on="0"/>
        <pt x="178" y="10" on="1"/>
        <pt x="186" y="10" on="1"/>
        <pt x="186" y="0" on="1"/>
        <pt x="-28" y="0" on="1"/>
        <pt x="-28" y="10" on="1"/>
        <pt x="-19" y="10" on="1"/>
        <pt x="4" y="10" on="0"/>
        <pt x="49" y="37" on="0"/>
        <pt x="64" y="64" on="1"/>
        <pt x="287" y="573" on="1"/>
        <pt x="248" y="661" on="0"/>
        <pt x="204" y="694" on="1"/>
        <pt x="167" y="722" on="0"/>
        <pt x="100" y="722" on="0"/>
        <pt x="71" y="712" on="1"/>
        <pt x="69" y="722" on="1"/>
        <pt x="141" y="759" on="0"/>
        <pt x="207" y="759" on="1"/>
        <pt x="289" y="759" on="0"/>
        <pt x="354" y="695" on="1"/>
        <pt x="418" y="632" on="0"/>
        <pt x="467" y="513" on="1"/>
        <pt x="612" y="155" on="1"/>
        <pt x="694" y="-48" on="0"/>
        <pt x="780" y="-124" on="1"/>
        <pt x="815" y="-155" on="0"/>
        <pt x="889" y="-179" on="0"/>
        <pt x="940" y="-179" on="0"/>
        <pt x="964" y="-173" on="1"/>
      </contour>
      <contour>
        <pt x="209" y="242" on="1"/>
        <pt x="413" y="242" on="1"/>
        <pt x="343" y="427" on="1"/>
        <pt x="338" y="441" on="0"/>
        <pt x="320" y="490" on="0"/>
        <pt x="317" y="500" on="1"/>
      </contour>
    </TTGlyph>
    <TTGlyph name="Atilde" xMin="-28" yMin="-216" xMax="966" yMax="915">
      <contour>
        <pt x="511" y="905" on="1"/>
        <pt x="523" y="905" on="1"/>
        <pt x="525" y="895" on="0"/>
        <pt x="525" y="884" on="1"/>
        <pt x="525" y="853" on="0"/>
        <pt x="505" y="822" on="1"/>
        <pt x="478" y="780" on="0"/>
        <pt x="427" y="780" on="1"/>
        <pt x="397" y="780" on="0"/>
        <pt x="305" y="827" on="0"/>
        <pt x="277" y="831" on="0"/>
        <pt x="252" y="831" on="0"/>
        <pt x="212" y="803" on="0"/>
        <pt x="204" y="783" on="1"/>
        <pt x="193" y="783" on="1"/>
        <pt x="192" y="791" on="0"/>
        <pt x="192" y="798" on="1"/>
        <pt x="192" y="836" on="0"/>
        <pt x="239" y="915" on="0"/>
        <pt x="289" y="915" on="1"/>
        <pt x="316" y="915" on="0"/>
        <pt x="413" y="865" on="0"/>
        <pt x="452" y="865" on="1"/>
        <pt x="465" y="865" on="0"/>
        <pt x="505" y="889" on="0"/>
      </contour>
      <contour>
        <pt x="965" y="-183" on="1"/>
        <pt x="900" y="-216" on="0"/>
        <pt x="788" y="-216" on="0"/>
        <pt x="688" y="-183" on="0"/>
        <pt x="637" y="-144" on="1"/>
        <pt x="527" y="-60" on="0"/>
        <pt x="460" y="114" on="1"/>
        <pt x="428" y="199" on="1"/>
        <pt x="192" y="199" on="1"/>
        <pt x="139" y="73" on="1"/>
        <pt x="134" y="60" on="0"/>
        <pt x="134" y="44" on="0"/>
        <pt x="141" y="25" on="0"/>
        <pt x="164" y="10" on="0"/>
        <pt x="178" y="10" on="1"/>
        <pt x="186" y="10" on="1"/>
        <pt x="186" y="0" on="1"/>
        <pt x="-28" y="0" on="1"/>
        <pt x="-28" y="10" on="1"/>
        <pt x="-19" y="10" on="1"/>
        <pt x="4" y="10" on="0"/>
        <pt x="49" y="37" on="0"/>
        <pt x="64" y="64" on="1"/>
        <pt x="287" y="573" on="1"/>
        <pt x="248" y="661" on="0"/>
        <pt x="204" y="694" on="1"/>
        <pt x="167" y="722" on="0"/>
        <pt x="100" y="722" on="0"/>
        <pt x="71" y="712" on="1"/>
        <pt x="69" y="722" on="1"/>
        <pt x="141" y="759" on="0"/>
        <pt x="207" y="759" on="1"/>
        <pt x="289" y="759" on="0"/>
        <pt x="354" y="695" on="1"/>
        <pt x="418" y="632" on="0"/>
        <pt x="467" y="513" on="1"/>
        <pt x="612" y="155" on="1"/>
        <pt x="662" y="31" on="0"/>
        <pt x="704" y="-31" on="1"/>
        <pt x="754" y="-106" on="0"/>
        <pt x="790" y="-131" on="1"/>
        <pt x="856" y="-178" on="0"/>
        <pt x="896" y="-178" on="1"/>
        <pt x="921" y="-178" on="0"/>
        <pt x="964" y="-173" on="1"/>
      </contour>
      <contour>
        <pt x="209" y="242" on="1"/>
        <pt x="413" y="242" on="1"/>
        <pt x="343" y="427" on="1"/>
        <pt x="338" y="441" on="0"/>
        <pt x="320" y="490" on="0"/>
        <pt x="317" y="500" on="1"/>
      </contour>
    </TTGlyph>
    <TTGlyph name="B" xMin="-6" yMin="-15" xMax="677" yMax="701">
      <contour>
        <pt x="565" y="528" on="1"/>
        <pt x="565" y="481" on="0"/>
        <pt x="518" y="407" on="0"/>
        <pt x="481" y="393" on="1"/>
        <pt x="597" y="387" on="0"/>
        <pt x="650" y="302" on="1"/>
        <pt x="677" y="259" on="0"/>
        <pt x="677" y="133" on="0"/>
        <pt x="580" y="29" on="0"/>
        <pt x="430" y="-15" on="0"/>
        <pt x="347" y="-15" on="1"/>
        <pt x="140" y="-15" on="0"/>
        <pt x="51" y="95" on="1"/>
        <pt x="-6" y="165" on="0"/>
        <pt x="-6" y="284" on="1"/>
        <pt x="-6" y="304" on="0"/>
        <pt x="-4" y="324" on="1"/>
        <pt x="6" y="325" on="1"/>
        <pt x="13" y="153" on="0"/>
        <pt x="129" y="79" on="1"/>
        <pt x="129" y="628" on="1"/>
        <pt x="128" y="665" on="0"/>
        <pt x="96" y="682" on="1"/>
        <pt x="82" y="690" on="0"/>
        <pt x="65" y="690" on="1"/>
        <pt x="52" y="690" on="1"/>
        <pt x="52" y="700" on="1"/>
        <pt x="306" y="700" on="1"/>
        <pt x="417" y="700" on="0"/>
        <pt x="565" y="611" on="0"/>
      </contour>
      <contour>
        <pt x="307" y="32" on="1"/>
        <pt x="400" y="32" on="0"/>
        <pt x="505" y="130" on="0"/>
        <pt x="505" y="210" on="1"/>
        <pt x="505" y="260" on="0"/>
        <pt x="468" y="329" on="0"/>
        <pt x="438" y="346" on="1"/>
        <pt x="383" y="379" on="0"/>
        <pt x="313" y="379" on="1"/>
        <pt x="313" y="388" on="1"/>
        <pt x="345" y="388" on="0"/>
        <pt x="367" y="411" on="1"/>
        <pt x="405" y="451" on="0"/>
        <pt x="405" y="589" on="0"/>
        <pt x="344" y="655" on="0"/>
        <pt x="279" y="657" on="1"/>
        <pt x="279" y="33" on="1"/>
        <pt x="293" y="32" on="0"/>
      </contour>
    </TTGlyph>
    <TTGlyph name="C" xMin="23" yMin="-14" xMax="811" yMax="715">
      <contour>
        <pt x="808" y="391" on="1"/>
        <pt x="811" y="361" on="0"/>
        <pt x="811" y="270" on="0"/>
        <pt x="775" y="139" on="0"/>
        <pt x="728" y="89" on="1"/>
        <pt x="632" y="-14" on="0"/>
        <pt x="464" y="-14" on="1"/>
        <pt x="260" y="-14" on="0"/>
        <pt x="24" y="187" on="0"/>
        <pt x="24" y="512" on="0"/>
        <pt x="263" y="714" on="0"/>
        <pt x="459" y="714" on="1"/>
        <pt x="534" y="714" on="0"/>
        <pt x="670" y="684" on="0"/>
        <pt x="715" y="660" on="1"/>
        <pt x="717" y="488" on="1"/>
        <pt x="709" y="488" on="1"/>
        <pt x="692" y="552" on="0"/>
        <pt x="652" y="595" on="1"/>
        <pt x="580" y="672" on="0"/>
        <pt x="336" y="672" on="0"/>
        <pt x="187" y="498" on="0"/>
        <pt x="187" y="211" on="0"/>
        <pt x="342" y="31" on="0"/>
        <pt x="478" y="28" on="1"/>
        <pt x="625" y="28" on="0"/>
        <pt x="799" y="216" on="0"/>
        <pt x="799" y="377" on="1"/>
        <pt x="799" y="384" on="0"/>
        <pt x="799" y="391" on="1"/>
      </contour>
    </TTGlyph>
    <TTGlyph name="Cacute" xMin="23" yMin="-14" xMax="811" yMax="934">
      <contour>
        <pt x="438" y="762" on="1"/>
        <pt x="431" y="769" on="1"/>
        <pt x="474" y="843" on="0"/>
        <pt x="575" y="933" on="1"/>
        <pt x="623" y="908" on="0"/>
        <pt x="642" y="852" on="1"/>
        <pt x="540" y="787" on="0"/>
      </contour>
      <contour>
        <pt x="808" y="391" on="1"/>
        <pt x="811" y="361" on="0"/>
        <pt x="811" y="270" on="0"/>
        <pt x="775" y="139" on="0"/>
        <pt x="728" y="89" on="1"/>
        <pt x="632" y="-14" on="0"/>
        <pt x="464" y="-14" on="1"/>
        <pt x="260" y="-14" on="0"/>
        <pt x="24" y="187" on="0"/>
        <pt x="24" y="512" on="0"/>
        <pt x="263" y="714" on="0"/>
        <pt x="459" y="714" on="1"/>
        <pt x="612" y="714" on="0"/>
        <pt x="715" y="660" on="1"/>
        <pt x="717" y="488" on="1"/>
        <pt x="709" y="488" on="1"/>
        <pt x="672" y="626" on="0"/>
        <pt x="540" y="662" on="1"/>
        <pt x="503" y="672" on="0"/>
        <pt x="462" y="672" on="1"/>
        <pt x="336" y="672" on="0"/>
        <pt x="187" y="498" on="0"/>
        <pt x="187" y="356" on="1"/>
        <pt x="187" y="261" on="0"/>
        <pt x="255" y="115" on="0"/>
        <pt x="388" y="30" on="0"/>
        <pt x="478" y="28" on="1"/>
        <pt x="625" y="28" on="0"/>
        <pt x="799" y="216" on="0"/>
        <pt x="799" y="377" on="1"/>
        <pt x="799" y="384" on="0"/>
        <pt x="799" y="391" on="1"/>
      </contour>
    </TTGlyph>
    <TTGlyph name="Ccaron" xMin="23" yMin="-14" xMax="811" yMax="926">
      <contour>
        <pt x="454" y="764" on="1"/>
        <pt x="443" y="764" on="1"/>
        <pt x="296" y="917" on="1"/>
        <pt x="302" y="925" on="1"/>
        <pt x="449" y="860" on="1"/>
        <pt x="586" y="925" on="1"/>
        <pt x="593" y="917" on="1"/>
      </contour>
      <contour>
        <pt x="808" y="391" on="1"/>
        <pt x="811" y="361" on="0"/>
        <pt x="811" y="270" on="0"/>
        <pt x="775" y="139" on="0"/>
        <pt x="728" y="89" on="1"/>
        <pt x="632" y="-14" on="0"/>
        <pt x="464" y="-14" on="1"/>
        <pt x="260" y="-14" on="0"/>
        <pt x="24" y="187" on="0"/>
        <pt x="24" y="512" on="0"/>
        <pt x="263" y="714" on="0"/>
        <pt x="459" y="714" on="1"/>
        <pt x="534" y="714" on="0"/>
        <pt x="670" y="684" on="0"/>
        <pt x="715" y="660" on="1"/>
        <pt x="717" y="488" on="1"/>
        <pt x="709" y="488" on="1"/>
        <pt x="672" y="626" on="0"/>
        <pt x="540" y="662" on="1"/>
        <pt x="503" y="672" on="0"/>
        <pt x="462" y="672" on="1"/>
        <pt x="336" y="672" on="0"/>
        <pt x="187" y="498" on="0"/>
        <pt x="187" y="212" on="0"/>
        <pt x="342" y="31" on="0"/>
        <pt x="478" y="28" on="1"/>
        <pt x="625" y="28" on="0"/>
        <pt x="799" y="216" on="0"/>
        <pt x="799" y="377" on="1"/>
        <pt x="799" y="384" on="0"/>
        <pt x="799" y="391" on="1"/>
      </contour>
    </TTGlyph>
    <TTGlyph name="Ccedilla" xMin="23" yMin="-207" xMax="811" yMax="715">
      <contour>
        <pt x="379" y="-188" on="1"/>
        <pt x="430" y="-188" on="0"/>
        <pt x="460" y="-157" on="1"/>
        <pt x="477" y="-140" on="0"/>
        <pt x="477" y="-96" on="0"/>
        <pt x="447" y="-74" on="0"/>
        <pt x="405" y="-74" on="0"/>
        <pt x="385" y="-81" on="1"/>
        <pt x="380" y="-71" on="1"/>
        <pt x="425" y="-13" on="1"/>
        <pt x="238" y="-3" on="0"/>
        <pt x="24" y="195" on="0"/>
        <pt x="24" y="512" on="0"/>
        <pt x="263" y="714" on="0"/>
        <pt x="459" y="714" on="1"/>
        <pt x="534" y="714" on="0"/>
        <pt x="670" y="684" on="0"/>
        <pt x="715" y="660" on="1"/>
        <pt x="717" y="488" on="1"/>
        <pt x="709" y="488" on="1"/>
        <pt x="692" y="552" on="0"/>
        <pt x="652" y="595" on="1"/>
        <pt x="580" y="672" on="0"/>
        <pt x="336" y="672" on="0"/>
        <pt x="187" y="498" on="0"/>
        <pt x="187" y="211" on="0"/>
        <pt x="342" y="31" on="0"/>
        <pt x="478" y="28" on="1"/>
        <pt x="625" y="28" on="0"/>
        <pt x="799" y="216" on="0"/>
        <pt x="799" y="377" on="1"/>
        <pt x="799" y="384" on="0"/>
        <pt x="799" y="391" on="1"/>
        <pt x="808" y="391" on="1"/>
        <pt x="811" y="361" on="0"/>
        <pt x="811" y="289" on="0"/>
        <pt x="792" y="184" on="0"/>
        <pt x="734" y="89" on="0"/>
        <pt x="690" y="55" on="1"/>
        <pt x="604" y="-12" on="0"/>
        <pt x="472" y="-14" on="1"/>
        <pt x="435" y="-57" on="1"/>
        <pt x="466" y="-46" on="0"/>
        <pt x="495" y="-54" on="1"/>
        <pt x="548" y="-68" on="0"/>
        <pt x="548" y="-167" on="0"/>
        <pt x="491" y="-193" on="1"/>
        <pt x="461" y="-207" on="0"/>
        <pt x="404" y="-207" on="0"/>
        <pt x="378" y="-198" on="1"/>
      </contour>
    </TTGlyph>
    <TTGlyph name="Cdotaccent" xMin="23" yMin="-14" xMax="811" yMax="888">
      <contour>
        <pt x="473" y="764" on="0"/>
        <pt x="422" y="764" on="0"/>
        <pt x="386" y="800" on="0"/>
        <pt x="386" y="851" on="0"/>
        <pt x="422" y="888" on="0"/>
        <pt x="473" y="888" on="0"/>
        <pt x="509" y="851" on="0"/>
        <pt x="509" y="800" on="0"/>
      </contour>
      <contour>
        <pt x="808" y="391" on="1"/>
        <pt x="811" y="361" on="0"/>
        <pt x="811" y="270" on="0"/>
        <pt x="775" y="139" on="0"/>
        <pt x="728" y="89" on="1"/>
        <pt x="632" y="-14" on="0"/>
        <pt x="464" y="-14" on="1"/>
        <pt x="260" y="-14" on="0"/>
        <pt x="24" y="187" on="0"/>
        <pt x="24" y="512" on="0"/>
        <pt x="263" y="714" on="0"/>
        <pt x="459" y="714" on="1"/>
        <pt x="534" y="714" on="0"/>
        <pt x="670" y="684" on="0"/>
        <pt x="715" y="660" on="1"/>
        <pt x="717" y="488" on="1"/>
        <pt x="709" y="488" on="1"/>
        <pt x="672" y="626" on="0"/>
        <pt x="540" y="662" on="1"/>
        <pt x="503" y="672" on="0"/>
        <pt x="462" y="672" on="1"/>
        <pt x="336" y="672" on="0"/>
        <pt x="187" y="498" on="0"/>
        <pt x="187" y="211" on="0"/>
        <pt x="342" y="31" on="0"/>
        <pt x="478" y="28" on="1"/>
        <pt x="625" y="28" on="0"/>
        <pt x="799" y="216" on="0"/>
        <pt x="799" y="377" on="1"/>
        <pt x="799" y="384" on="0"/>
        <pt x="799" y="391" on="1"/>
      </contour>
    </TTGlyph>
    <TTGlyph name="D" xMin="-101" yMin="0" xMax="819" yMax="701">
      <contour>
        <pt x="206" y="701" on="1"/>
        <pt x="223" y="701" on="0"/>
        <pt x="313" y="701" on="0"/>
        <pt x="435" y="700" on="1"/>
        <pt x="612" y="698" on="0"/>
        <pt x="818" y="511" on="0"/>
        <pt x="818" y="188" on="0"/>
        <pt x="612" y="0" on="0"/>
        <pt x="435" y="0" on="1"/>
        <pt x="72" y="0" on="1"/>
        <pt x="72" y="10" on="1"/>
        <pt x="85" y="10" on="1"/>
        <pt x="110" y="10" on="0"/>
        <pt x="147" y="45" on="0"/>
        <pt x="149" y="70" on="1"/>
        <pt x="149" y="655" on="1"/>
        <pt x="37" y="647" on="0"/>
        <pt x="-17" y="603" on="1"/>
        <pt x="-44" y="582" on="0"/>
        <pt x="-75" y="538" on="0"/>
        <pt x="-90" y="507" on="1"/>
        <pt x="-100" y="511" on="1"/>
        <pt x="-76" y="611" on="0"/>
        <pt x="77" y="700" on="0"/>
      </contour>
      <contour>
        <pt x="423" y="42" on="1"/>
        <pt x="530" y="42" on="0"/>
        <pt x="655" y="208" on="0"/>
        <pt x="655" y="492" on="0"/>
        <pt x="530" y="656" on="0"/>
        <pt x="425" y="656" on="1"/>
        <pt x="424" y="656" on="0"/>
        <pt x="423" y="656" on="1"/>
        <pt x="299" y="656" on="1"/>
        <pt x="299" y="42" on="1"/>
        <pt x="423" y="42" on="1"/>
        <pt x="423" y="42" on="0"/>
      </contour>
    </TTGlyph>
    <TTGlyph name="Dcaron" xMin="-101" yMin="0" xMax="819" yMax="926">
      <contour>
        <pt x="449" y="764" on="1"/>
        <pt x="438" y="764" on="1"/>
        <pt x="290" y="917" on="1"/>
        <pt x="297" y="925" on="1"/>
        <pt x="444" y="860" on="1"/>
        <pt x="580" y="925" on="1"/>
        <pt x="587" y="917" on="1"/>
      </contour>
      <contour>
        <pt x="206" y="701" on="1"/>
        <pt x="223" y="701" on="0"/>
        <pt x="313" y="701" on="0"/>
        <pt x="435" y="700" on="1"/>
        <pt x="612" y="699" on="0"/>
        <pt x="818" y="511" on="0"/>
        <pt x="818" y="188" on="0"/>
        <pt x="612" y="0" on="0"/>
        <pt x="435" y="0" on="1"/>
        <pt x="72" y="0" on="1"/>
        <pt x="72" y="10" on="1"/>
        <pt x="85" y="10" on="1"/>
        <pt x="120" y="10" on="0"/>
        <pt x="139" y="40" on="1"/>
        <pt x="148" y="53" on="0"/>
        <pt x="149" y="70" on="1"/>
        <pt x="149" y="655" on="1"/>
        <pt x="37" y="647" on="0"/>
        <pt x="-17" y="603" on="1"/>
        <pt x="-44" y="582" on="0"/>
        <pt x="-75" y="538" on="0"/>
        <pt x="-90" y="507" on="1"/>
        <pt x="-100" y="511" on="1"/>
        <pt x="-76" y="611" on="0"/>
        <pt x="77" y="700" on="0"/>
      </contour>
      <contour>
        <pt x="423" y="42" on="1"/>
        <pt x="530" y="42" on="0"/>
        <pt x="655" y="208" on="0"/>
        <pt x="655" y="492" on="0"/>
        <pt x="530" y="656" on="0"/>
        <pt x="425" y="656" on="1"/>
        <pt x="424" y="656" on="0"/>
        <pt x="423" y="656" on="1"/>
        <pt x="299" y="656" on="1"/>
        <pt x="299" y="42" on="1"/>
        <pt x="423" y="42" on="1"/>
        <pt x="423" y="42" on="0"/>
      </contour>
    </TTGlyph>
    <TTGlyph name="Dcroat" xMin="-101" yMin="0" xMax="819" yMax="861">
      <contour>
        <pt x="308" y="795" on="1"/>
        <pt x="308" y="861" on="1"/>
        <pt x="583" y="861" on="1"/>
        <pt x="583" y="795" on="1"/>
      </contour>
      <contour>
        <pt x="206" y="701" on="1"/>
        <pt x="223" y="701" on="0"/>
        <pt x="313" y="701" on="0"/>
        <pt x="435" y="700" on="1"/>
        <pt x="612" y="699" on="0"/>
        <pt x="818" y="511" on="0"/>
        <pt x="818" y="188" on="0"/>
        <pt x="612" y="0" on="0"/>
        <pt x="435" y="0" on="1"/>
        <pt x="72" y="0" on="1"/>
        <pt x="72" y="10" on="1"/>
        <pt x="85" y="10" on="1"/>
        <pt x="110" y="10" on="0"/>
        <pt x="147" y="45" on="0"/>
        <pt x="149" y="70" on="1"/>
        <pt x="149" y="655" on="1"/>
        <pt x="37" y="647" on="0"/>
        <pt x="-17" y="603" on="1"/>
        <pt x="-44" y="582" on="0"/>
        <pt x="-75" y="538" on="0"/>
        <pt x="-90" y="507" on="1"/>
        <pt x="-100" y="511" on="1"/>
        <pt x="-76" y="611" on="0"/>
        <pt x="77" y="700" on="0"/>
      </contour>
      <contour>
        <pt x="423" y="42" on="1"/>
        <pt x="530" y="42" on="0"/>
        <pt x="655" y="208" on="0"/>
        <pt x="655" y="492" on="0"/>
        <pt x="530" y="656" on="0"/>
        <pt x="425" y="656" on="1"/>
        <pt x="424" y="656" on="0"/>
        <pt x="423" y="656" on="1"/>
        <pt x="299" y="656" on="1"/>
        <pt x="299" y="42" on="1"/>
        <pt x="423" y="42" on="1"/>
        <pt x="423" y="42" on="0"/>
      </contour>
    </TTGlyph>
    <TTGlyph name="Delta" xMin="5" yMin="0" xMax="647" yMax="714">
      <contour>
        <pt x="647" y="0" on="1"/>
        <pt x="5" y="0" on="1"/>
        <pt x="5" y="10" on="1"/>
        <pt x="321" y="714" on="1"/>
        <pt x="331" y="714" on="1"/>
        <pt x="647" y="10" on="1"/>
      </contour>
      <contour>
        <pt x="522" y="42" on="1"/>
        <pt x="297" y="563" on="1"/>
        <pt x="67" y="42" on="1"/>
      </contour>
    </TTGlyph>
    <TTGlyph name="E" xMin="41" yMin="-1" xMax="670" yMax="719">
      <contour>
        <pt x="55" y="10" on="1"/>
        <pt x="81" y="10" on="0"/>
        <pt x="118" y="47" on="0"/>
        <pt x="119" y="73" on="1"/>
        <pt x="119" y="630" on="1"/>
        <pt x="116" y="665" on="0"/>
        <pt x="86" y="682" on="1"/>
        <pt x="71" y="690" on="0"/>
        <pt x="55" y="690" on="1"/>
        <pt x="42" y="690" on="1"/>
        <pt x="42" y="700" on="1"/>
        <pt x="323" y="700" on="1"/>
        <pt x="367" y="700" on="0"/>
        <pt x="433" y="714" on="0"/>
        <pt x="443" y="718" on="1"/>
        <pt x="443" y="543" on="1"/>
        <pt x="432" y="543" on="1"/>
        <pt x="432" y="555" on="1"/>
        <pt x="433" y="600" on="0"/>
        <pt x="380" y="655" on="0"/>
        <pt x="335" y="657" on="1"/>
        <pt x="269" y="657" on="1"/>
        <pt x="269" y="366" on="1"/>
        <pt x="428" y="366" on="1"/>
        <pt x="465" y="367" on="0"/>
        <pt x="513" y="416" on="0"/>
        <pt x="513" y="452" on="1"/>
        <pt x="513" y="461" on="1"/>
        <pt x="522" y="461" on="1"/>
        <pt x="522" y="230" on="1"/>
        <pt x="513" y="230" on="1"/>
        <pt x="513" y="238" on="1"/>
        <pt x="513" y="275" on="0"/>
        <pt x="465" y="323" on="0"/>
        <pt x="429" y="324" on="1"/>
        <pt x="269" y="324" on="1"/>
        <pt x="269" y="43" on="1"/>
        <pt x="464" y="43" on="1"/>
        <pt x="537" y="43" on="0"/>
        <pt x="636" y="127" on="0"/>
        <pt x="660" y="204" on="1"/>
        <pt x="670" y="204" on="1"/>
        <pt x="623" y="0" on="1"/>
        <pt x="42" y="0" on="1"/>
        <pt x="42" y="10" on="1"/>
      </contour>
    </TTGlyph>
    <TTGlyph name="Eacute" xMin="41" yMin="-1" xMax="670" yMax="934">
      <contour>
        <pt x="257" y="762" on="1"/>
        <pt x="250" y="769" on="1"/>
        <pt x="293" y="843" on="0"/>
        <pt x="393" y="933" on="1"/>
        <pt x="442" y="908" on="0"/>
        <pt x="461" y="852" on="1"/>
        <pt x="358" y="787" on="0"/>
      </contour>
      <contour>
        <pt x="55" y="10" on="1"/>
        <pt x="81" y="10" on="0"/>
        <pt x="118" y="47" on="0"/>
        <pt x="119" y="73" on="1"/>
        <pt x="119" y="630" on="1"/>
        <pt x="117" y="655" on="0"/>
        <pt x="80" y="690" on="0"/>
        <pt x="55" y="690" on="1"/>
        <pt x="42" y="690" on="1"/>
        <pt x="42" y="700" on="1"/>
        <pt x="323" y="700" on="1"/>
        <pt x="367" y="700" on="0"/>
        <pt x="433" y="714" on="0"/>
        <pt x="443" y="718" on="1"/>
        <pt x="443" y="543" on="1"/>
        <pt x="432" y="544" on="1"/>
        <pt x="432" y="555" on="1"/>
        <pt x="433" y="600" on="0"/>
        <pt x="380" y="655" on="0"/>
        <pt x="335" y="657" on="1"/>
        <pt x="269" y="657" on="1"/>
        <pt x="269" y="366" on="1"/>
        <pt x="428" y="366" on="1"/>
        <pt x="465" y="367" on="0"/>
        <pt x="513" y="416" on="0"/>
        <pt x="513" y="452" on="1"/>
        <pt x="513" y="461" on="1"/>
        <pt x="522" y="461" on="1"/>
        <pt x="522" y="230" on="1"/>
        <pt x="513" y="230" on="1"/>
        <pt x="513" y="238" on="1"/>
        <pt x="513" y="275" on="0"/>
        <pt x="465" y="323" on="0"/>
        <pt x="429" y="324" on="1"/>
        <pt x="269" y="324" on="1"/>
        <pt x="269" y="43" on="1"/>
        <pt x="464" y="43" on="1"/>
        <pt x="537" y="43" on="0"/>
        <pt x="636" y="127" on="0"/>
        <pt x="660" y="204" on="1"/>
        <pt x="670" y="204" on="1"/>
        <pt x="623" y="0" on="1"/>
        <pt x="42" y="0" on="1"/>
        <pt x="42" y="10" on="1"/>
      </contour>
    </TTGlyph>
    <TTGlyph name="Ecaron" xMin="41" yMin="-1" xMax="670" yMax="926">
      <contour>
        <pt x="273" y="764" on="1"/>
        <pt x="262" y="764" on="1"/>
        <pt x="114" y="917" on="1"/>
        <pt x="121" y="925" on="1"/>
        <pt x="268" y="860" on="1"/>
        <pt x="405" y="925" on="1"/>
        <pt x="411" y="917" on="1"/>
      </contour>
      <contour>
        <pt x="55" y="10" on="1"/>
        <pt x="81" y="10" on="0"/>
        <pt x="118" y="47" on="0"/>
        <pt x="119" y="73" on="1"/>
        <pt x="119" y="630" on="1"/>
        <pt x="116" y="665" on="0"/>
        <pt x="86" y="682" on="1"/>
        <pt x="71" y="690" on="0"/>
        <pt x="55" y="690" on="1"/>
        <pt x="42" y="690" on="1"/>
        <pt x="42" y="700" on="1"/>
        <pt x="323" y="700" on="1"/>
        <pt x="367" y="700" on="0"/>
        <pt x="433" y="714" on="0"/>
        <pt x="443" y="718" on="1"/>
        <pt x="443" y="543" on="1"/>
        <pt x="432" y="544" on="1"/>
        <pt x="432" y="555" on="1"/>
        <pt x="433" y="600" on="0"/>
        <pt x="380" y="655" on="0"/>
        <pt x="335" y="657" on="1"/>
        <pt x="269" y="657" on="1"/>
        <pt x="269" y="366" on="1"/>
        <pt x="428" y="366" on="1"/>
        <pt x="465" y="367" on="0"/>
        <pt x="513" y="416" on="0"/>
        <pt x="513" y="452" on="1"/>
        <pt x="513" y="461" on="1"/>
        <pt x="522" y="461" on="1"/>
        <pt x="522" y="230" on="1"/>
        <pt x="513" y="230" on="1"/>
        <pt x="513" y="238" on="1"/>
        <pt x="513" y="275" on="0"/>
        <pt x="465" y="323" on="0"/>
        <pt x="429" y="324" on="1"/>
        <pt x="269" y="324" on="1"/>
        <pt x="269" y="43" on="1"/>
        <pt x="464" y="43" on="1"/>
        <pt x="537" y="43" on="0"/>
        <pt x="636" y="127" on="0"/>
        <pt x="660" y="204" on="1"/>
        <pt x="670" y="204" on="1"/>
        <pt x="623" y="0" on="1"/>
        <pt x="42" y="0" on="1"/>
        <pt x="42" y="10" on="1"/>
      </contour>
    </TTGlyph>
    <TTGlyph name="Ecircumflex" xMin="41" yMin="-1" xMax="670" yMax="916">
      <contour>
        <pt x="261" y="915" on="1"/>
        <pt x="272" y="915" on="1"/>
        <pt x="425" y="762" on="1"/>
        <pt x="418" y="754" on="1"/>
        <pt x="266" y="819" on="1"/>
        <pt x="123" y="754" on="1"/>
        <pt x="116" y="762" on="1"/>
      </contour>
      <contour>
        <pt x="55" y="10" on="1"/>
        <pt x="81" y="10" on="0"/>
        <pt x="118" y="47" on="0"/>
        <pt x="119" y="73" on="1"/>
        <pt x="119" y="630" on="1"/>
        <pt x="116" y="665" on="0"/>
        <pt x="86" y="682" on="1"/>
        <pt x="71" y="690" on="0"/>
        <pt x="55" y="690" on="1"/>
        <pt x="42" y="690" on="1"/>
        <pt x="42" y="700" on="1"/>
        <pt x="323" y="700" on="1"/>
        <pt x="354" y="700" on="0"/>
        <pt x="428" y="712" on="0"/>
        <pt x="443" y="718" on="1"/>
        <pt x="443" y="543" on="1"/>
        <pt x="432" y="543" on="1"/>
        <pt x="432" y="555" on="1"/>
        <pt x="433" y="600" on="0"/>
        <pt x="380" y="655" on="0"/>
        <pt x="335" y="657" on="1"/>
        <pt x="269" y="657" on="1"/>
        <pt x="269" y="366" on="1"/>
        <pt x="428" y="366" on="1"/>
        <pt x="465" y="367" on="0"/>
        <pt x="513" y="415" on="0"/>
        <pt x="513" y="452" on="1"/>
        <pt x="513" y="461" on="1"/>
        <pt x="522" y="461" on="1"/>
        <pt x="522" y="230" on="1"/>
        <pt x="513" y="230" on="1"/>
        <pt x="513" y="238" on="1"/>
        <pt x="513" y="275" on="0"/>
        <pt x="465" y="323" on="0"/>
        <pt x="429" y="324" on="1"/>
        <pt x="269" y="324" on="1"/>
        <pt x="269" y="43" on="1"/>
        <pt x="464" y="43" on="1"/>
        <pt x="537" y="43" on="0"/>
        <pt x="636" y="127" on="0"/>
        <pt x="660" y="204" on="1"/>
        <pt x="670" y="204" on="1"/>
        <pt x="623" y="0" on="1"/>
        <pt x="42" y="0" on="1"/>
        <pt x="42" y="10" on="1"/>
      </contour>
    </TTGlyph>
    <TTGlyph name="Edieresis" xMin="41" yMin="-1" xMax="670" yMax="880">
      <contour>
        <pt x="173" y="759" on="0"/>
        <pt x="123" y="759" on="0"/>
        <pt x="88" y="794" on="0"/>
        <pt x="88" y="844" on="0"/>
        <pt x="123" y="879" on="0"/>
        <pt x="173" y="879" on="0"/>
        <pt x="208" y="844" on="0"/>
        <pt x="208" y="794" on="0"/>
      </contour>
      <contour>
        <pt x="406" y="759" on="0"/>
        <pt x="357" y="759" on="0"/>
        <pt x="321" y="794" on="0"/>
        <pt x="321" y="844" on="0"/>
        <pt x="357" y="879" on="0"/>
        <pt x="406" y="879" on="0"/>
        <pt x="442" y="844" on="0"/>
        <pt x="442" y="794" on="0"/>
      </contour>
      <contour>
        <pt x="55" y="10" on="1"/>
        <pt x="81" y="10" on="0"/>
        <pt x="118" y="47" on="0"/>
        <pt x="119" y="73" on="1"/>
        <pt x="119" y="630" on="1"/>
        <pt x="116" y="665" on="0"/>
        <pt x="86" y="682" on="1"/>
        <pt x="71" y="690" on="0"/>
        <pt x="55" y="690" on="1"/>
        <pt x="42" y="690" on="1"/>
        <pt x="42" y="700" on="1"/>
        <pt x="323" y="700" on="1"/>
        <pt x="367" y="700" on="0"/>
        <pt x="433" y="714" on="0"/>
        <pt x="443" y="718" on="1"/>
        <pt x="443" y="543" on="1"/>
        <pt x="432" y="543" on="1"/>
        <pt x="432" y="555" on="1"/>
        <pt x="433" y="600" on="0"/>
        <pt x="380" y="655" on="0"/>
        <pt x="335" y="657" on="1"/>
        <pt x="269" y="657" on="1"/>
        <pt x="269" y="366" on="1"/>
        <pt x="428" y="366" on="1"/>
        <pt x="465" y="367" on="0"/>
        <pt x="513" y="416" on="0"/>
        <pt x="513" y="452" on="1"/>
        <pt x="513" y="461" on="1"/>
        <pt x="522" y="461" on="1"/>
        <pt x="522" y="230" on="1"/>
        <pt x="513" y="230" on="1"/>
        <pt x="513" y="238" on="1"/>
        <pt x="513" y="275" on="0"/>
        <pt x="465" y="323" on="0"/>
        <pt x="429" y="324" on="1"/>
        <pt x="269" y="324" on="1"/>
        <pt x="269" y="43" on="1"/>
        <pt x="464" y="43" on="1"/>
        <pt x="537" y="43" on="0"/>
        <pt x="636" y="127" on="0"/>
        <pt x="660" y="204" on="1"/>
        <pt x="670" y="204" on="1"/>
        <pt x="623" y="0" on="1"/>
        <pt x="42" y="0" on="1"/>
        <pt x="42" y="10" on="1"/>
      </contour>
    </TTGlyph>
    <TTGlyph name="Edotaccent" xMin="41" yMin="-1" xMax="670" yMax="888">
      <contour>
        <pt x="292" y="764" on="0"/>
        <pt x="241" y="764" on="0"/>
        <pt x="205" y="800" on="0"/>
        <pt x="205" y="851" on="0"/>
        <pt x="241" y="888" on="0"/>
        <pt x="292" y="888" on="0"/>
        <pt x="328" y="851" on="0"/>
        <pt x="328" y="800" on="0"/>
      </contour>
      <contour>
        <pt x="55" y="10" on="1"/>
        <pt x="81" y="10" on="0"/>
        <pt x="118" y="47" on="0"/>
        <pt x="119" y="73" on="1"/>
        <pt x="119" y="630" on="1"/>
        <pt x="116" y="665" on="0"/>
        <pt x="86" y="682" on="1"/>
        <pt x="71" y="690" on="0"/>
        <pt x="55" y="690" on="1"/>
        <pt x="42" y="690" on="1"/>
        <pt x="42" y="700" on="1"/>
        <pt x="323" y="700" on="1"/>
        <pt x="367" y="700" on="0"/>
        <pt x="433" y="714" on="0"/>
        <pt x="443" y="718" on="1"/>
        <pt x="443" y="543" on="1"/>
        <pt x="432" y="543" on="1"/>
        <pt x="432" y="555" on="1"/>
        <pt x="433" y="600" on="0"/>
        <pt x="380" y="655" on="0"/>
        <pt x="335" y="657" on="1"/>
        <pt x="269" y="657" on="1"/>
        <pt x="269" y="366" on="1"/>
        <pt x="428" y="366" on="1"/>
        <pt x="465" y="367" on="0"/>
        <pt x="513" y="416" on="0"/>
        <pt x="513" y="452" on="1"/>
        <pt x="513" y="461" on="1"/>
        <pt x="522" y="461" on="1"/>
        <pt x="522" y="230" on="1"/>
        <pt x="513" y="230" on="1"/>
        <pt x="513" y="238" on="1"/>
        <pt x="513" y="275" on="0"/>
        <pt x="465" y="323" on="0"/>
        <pt x="429" y="324" on="1"/>
        <pt x="269" y="324" on="1"/>
        <pt x="269" y="43" on="1"/>
        <pt x="464" y="43" on="1"/>
        <pt x="537" y="43" on="0"/>
        <pt x="636" y="127" on="0"/>
        <pt x="660" y="204" on="1"/>
        <pt x="670" y="204" on="1"/>
        <pt x="623" y="0" on="1"/>
        <pt x="42" y="0" on="1"/>
        <pt x="42" y="10" on="1"/>
      </contour>
    </TTGlyph>
    <TTGlyph name="Egrave" xMin="41" yMin="-1" xMax="670" yMax="936">
      <contour>
        <pt x="286" y="771" on="1"/>
        <pt x="279" y="764" on="1"/>
        <pt x="179" y="788" on="0"/>
        <pt x="74" y="854" on="1"/>
        <pt x="94" y="911" on="0"/>
        <pt x="142" y="935" on="1"/>
        <pt x="244" y="844" on="0"/>
      </contour>
      <contour>
        <pt x="55" y="10" on="1"/>
        <pt x="81" y="10" on="0"/>
        <pt x="118" y="47" on="0"/>
        <pt x="119" y="73" on="1"/>
        <pt x="119" y="630" on="1"/>
        <pt x="116" y="665" on="0"/>
        <pt x="86" y="682" on="1"/>
        <pt x="71" y="690" on="0"/>
        <pt x="55" y="690" on="1"/>
        <pt x="42" y="690" on="1"/>
        <pt x="42" y="700" on="1"/>
        <pt x="323" y="700" on="1"/>
        <pt x="354" y="700" on="0"/>
        <pt x="428" y="712" on="0"/>
        <pt x="443" y="718" on="1"/>
        <pt x="443" y="543" on="1"/>
        <pt x="432" y="543" on="1"/>
        <pt x="432" y="555" on="1"/>
        <pt x="433" y="600" on="0"/>
        <pt x="380" y="655" on="0"/>
        <pt x="335" y="657" on="1"/>
        <pt x="269" y="657" on="1"/>
        <pt x="269" y="366" on="1"/>
        <pt x="428" y="366" on="1"/>
        <pt x="465" y="367" on="0"/>
        <pt x="513" y="415" on="0"/>
        <pt x="513" y="452" on="1"/>
        <pt x="513" y="461" on="1"/>
        <pt x="522" y="461" on="1"/>
        <pt x="522" y="230" on="1"/>
        <pt x="513" y="230" on="1"/>
        <pt x="513" y="238" on="1"/>
        <pt x="513" y="275" on="0"/>
        <pt x="465" y="323" on="0"/>
        <pt x="429" y="324" on="1"/>
        <pt x="269" y="324" on="1"/>
        <pt x="269" y="43" on="1"/>
        <pt x="464" y="43" on="1"/>
        <pt x="537" y="43" on="0"/>
        <pt x="636" y="127" on="0"/>
        <pt x="660" y="204" on="1"/>
        <pt x="670" y="204" on="1"/>
        <pt x="623" y="0" on="1"/>
        <pt x="42" y="0" on="1"/>
        <pt x="42" y="10" on="1"/>
      </contour>
    </TTGlyph>
    <TTGlyph name="Emacron" xMin="41" yMin="-1" xMax="670" yMax="861">
      <contour>
        <pt x="133" y="795" on="1"/>
        <pt x="133" y="861" on="1"/>
        <pt x="407" y="861" on="1"/>
        <pt x="407" y="795" on="1"/>
      </contour>
      <contour>
        <pt x="55" y="10" on="1"/>
        <pt x="81" y="10" on="0"/>
        <pt x="118" y="47" on="0"/>
        <pt x="119" y="73" on="1"/>
        <pt x="119" y="630" on="1"/>
        <pt x="116" y="665" on="0"/>
        <pt x="86" y="682" on="1"/>
        <pt x="71" y="690" on="0"/>
        <pt x="55" y="690" on="1"/>
        <pt x="42" y="690" on="1"/>
        <pt x="42" y="700" on="1"/>
        <pt x="323" y="700" on="1"/>
        <pt x="367" y="700" on="0"/>
        <pt x="433" y="714" on="0"/>
        <pt x="443" y="718" on="1"/>
        <pt x="443" y="543" on="1"/>
        <pt x="432" y="543" on="1"/>
        <pt x="432" y="555" on="1"/>
        <pt x="433" y="617" on="0"/>
        <pt x="387" y="643" on="1"/>
        <pt x="365" y="656" on="0"/>
        <pt x="335" y="657" on="1"/>
        <pt x="269" y="657" on="1"/>
        <pt x="269" y="366" on="1"/>
        <pt x="428" y="366" on="1"/>
        <pt x="465" y="367" on="0"/>
        <pt x="513" y="416" on="0"/>
        <pt x="513" y="452" on="1"/>
        <pt x="513" y="461" on="1"/>
        <pt x="522" y="461" on="1"/>
        <pt x="522" y="230" on="1"/>
        <pt x="513" y="230" on="1"/>
        <pt x="513" y="238" on="1"/>
        <pt x="513" y="275" on="0"/>
        <pt x="465" y="323" on="0"/>
        <pt x="429" y="324" on="1"/>
        <pt x="269" y="324" on="1"/>
        <pt x="269" y="43" on="1"/>
        <pt x="464" y="43" on="1"/>
        <pt x="537" y="43" on="0"/>
        <pt x="636" y="127" on="0"/>
        <pt x="660" y="204" on="1"/>
        <pt x="670" y="204" on="1"/>
        <pt x="623" y="0" on="1"/>
        <pt x="42" y="0" on="1"/>
        <pt x="42" y="10" on="1"/>
      </contour>
    </TTGlyph>
    <TTGlyph name="Eng" xMin="-244" yMin="-203" xMax="828" yMax="837">
      <contour>
        <pt x="-67" y="769" on="0"/>
        <pt x="-113" y="790" on="0"/>
        <pt x="-161" y="804" on="0"/>
        <pt x="-212" y="804" on="0"/>
        <pt x="-239" y="795" on="1"/>
        <pt x="-244" y="804" on="1"/>
        <pt x="-189" y="836" on="0"/>
        <pt x="-131" y="836" on="1"/>
        <pt x="-5" y="836" on="0"/>
        <pt x="136" y="687" on="1"/>
        <pt x="615" y="229" on="1"/>
        <pt x="615" y="632" on="1"/>
        <pt x="614" y="655" on="0"/>
        <pt x="580" y="689" on="0"/>
        <pt x="556" y="689" on="1"/>
        <pt x="539" y="689" on="1"/>
        <pt x="539" y="700" on="1"/>
        <pt x="827" y="700" on="1"/>
        <pt x="827" y="689" on="1"/>
        <pt x="809" y="689" on="1"/>
        <pt x="787" y="689" on="0"/>
        <pt x="754" y="658" on="0"/>
        <pt x="754" y="636" on="1"/>
        <pt x="754" y="-15" on="1"/>
        <pt x="754" y="-79" on="0"/>
        <pt x="691" y="-170" on="0"/>
        <pt x="606" y="-202" on="0"/>
        <pt x="550" y="-202" on="0"/>
        <pt x="532" y="-200" on="1"/>
        <pt x="527" y="-192" on="1"/>
        <pt x="559" y="-169" on="0"/>
        <pt x="576" y="-150" on="1"/>
        <pt x="615" y="-104" on="0"/>
        <pt x="615" y="14" on="1"/>
        <pt x="615" y="118" on="1"/>
        <pt x="242" y="476" on="1"/>
        <pt x="242" y="68" on="1"/>
        <pt x="243" y="35" on="0"/>
        <pt x="272" y="19" on="1"/>
        <pt x="285" y="11" on="0"/>
        <pt x="301" y="11" on="1"/>
        <pt x="318" y="11" on="1"/>
        <pt x="318" y="0" on="1"/>
        <pt x="30" y="0" on="1"/>
        <pt x="30" y="11" on="1"/>
        <pt x="47" y="11" on="1"/>
        <pt x="70" y="11" on="0"/>
        <pt x="103" y="42" on="0"/>
        <pt x="104" y="64" on="1"/>
        <pt x="104" y="613" on="1"/>
        <pt x="39" y="687" on="0"/>
        <pt x="-19" y="734" on="0"/>
      </contour>
    </TTGlyph>
    <TTGlyph name="Eogonek" xMin="41" yMin="-201" xMax="675" yMax="719">
      <contour>
        <pt x="596" y="-200" on="1"/>
        <pt x="593" y="-200" on="0"/>
        <pt x="565" y="-200" on="0"/>
        <pt x="513" y="-182" on="0"/>
        <pt x="482" y="-131" on="0"/>
        <pt x="482" y="-101" on="1"/>
        <pt x="482" y="-69" on="0"/>
        <pt x="497" y="-48" on="1"/>
        <pt x="522" y="-10" on="0"/>
        <pt x="571" y="0" on="1"/>
        <pt x="42" y="0" on="1"/>
        <pt x="42" y="10" on="1"/>
        <pt x="55" y="10" on="1"/>
        <pt x="81" y="10" on="0"/>
        <pt x="118" y="47" on="0"/>
        <pt x="119" y="73" on="1"/>
        <pt x="119" y="630" on="1"/>
        <pt x="116" y="665" on="0"/>
        <pt x="86" y="682" on="1"/>
        <pt x="71" y="690" on="0"/>
        <pt x="55" y="690" on="1"/>
        <pt x="42" y="690" on="1"/>
        <pt x="42" y="700" on="1"/>
        <pt x="323" y="700" on="1"/>
        <pt x="354" y="700" on="0"/>
        <pt x="428" y="712" on="0"/>
        <pt x="443" y="718" on="1"/>
        <pt x="443" y="543" on="1"/>
        <pt x="432" y="543" on="1"/>
        <pt x="432" y="555" on="1"/>
        <pt x="433" y="600" on="0"/>
        <pt x="380" y="655" on="0"/>
        <pt x="335" y="657" on="1"/>
        <pt x="269" y="657" on="1"/>
        <pt x="269" y="366" on="1"/>
        <pt x="428" y="366" on="1"/>
        <pt x="465" y="367" on="0"/>
        <pt x="513" y="416" on="0"/>
        <pt x="513" y="452" on="1"/>
        <pt x="513" y="461" on="1"/>
        <pt x="522" y="461" on="1"/>
        <pt x="522" y="230" on="1"/>
        <pt x="513" y="230" on="1"/>
        <pt x="513" y="238" on="1"/>
        <pt x="513" y="275" on="0"/>
        <pt x="465" y="323" on="0"/>
        <pt x="429" y="324" on="1"/>
        <pt x="269" y="324" on="1"/>
        <pt x="269" y="43" on="1"/>
        <pt x="464" y="43" on="1"/>
        <pt x="537" y="43" on="0"/>
        <pt x="636" y="127" on="0"/>
        <pt x="660" y="204" on="1"/>
        <pt x="670" y="204" on="1"/>
        <pt x="623" y="0" on="1"/>
        <pt x="621" y="0" on="1"/>
        <pt x="553" y="-16" on="0"/>
        <pt x="553" y="-72" on="1"/>
        <pt x="553" y="-122" on="0"/>
        <pt x="594" y="-138" on="1"/>
        <pt x="606" y="-142" on="0"/>
        <pt x="643" y="-142" on="0"/>
        <pt x="669" y="-120" on="1"/>
        <pt x="675" y="-126" on="1"/>
        <pt x="670" y="-159" on="0"/>
        <pt x="625" y="-199" on="0"/>
      </contour>
    </TTGlyph>
    <TTGlyph name="Eth" xMin="-108" yMin="0" xMax="811" yMax="701">
      <contour>
        <pt x="194" y="701" on="1"/>
        <pt x="214" y="701" on="0"/>
        <pt x="309" y="701" on="0"/>
        <pt x="426" y="700" on="1"/>
        <pt x="604" y="698" on="0"/>
        <pt x="810" y="511" on="0"/>
        <pt x="810" y="188" on="0"/>
        <pt x="604" y="0" on="0"/>
        <pt x="426" y="0" on="1"/>
        <pt x="64" y="0" on="1"/>
        <pt x="64" y="10" on="1"/>
        <pt x="77" y="10" on="1"/>
        <pt x="102" y="10" on="0"/>
        <pt x="139" y="45" on="0"/>
        <pt x="141" y="70" on="1"/>
        <pt x="141" y="329" on="1"/>
        <pt x="64" y="329" on="1"/>
        <pt x="64" y="371" on="1"/>
        <pt x="141" y="371" on="1"/>
        <pt x="141" y="654" on="1"/>
        <pt x="-16" y="642" on="0"/>
        <pt x="-75" y="550" on="1"/>
        <pt x="-87" y="531" on="0"/>
        <pt x="-98" y="507" on="1"/>
        <pt x="-108" y="511" on="1"/>
        <pt x="-85" y="610" on="0"/>
        <pt x="67" y="700" on="0"/>
      </contour>
      <contour>
        <pt x="415" y="42" on="1"/>
        <pt x="522" y="42" on="0"/>
        <pt x="647" y="208" on="0"/>
        <pt x="647" y="492" on="0"/>
        <pt x="522" y="656" on="0"/>
        <pt x="416" y="656" on="1"/>
        <pt x="415" y="656" on="0"/>
        <pt x="414" y="656" on="1"/>
        <pt x="291" y="656" on="1"/>
        <pt x="291" y="371" on="1"/>
        <pt x="422" y="371" on="1"/>
        <pt x="422" y="329" on="1"/>
        <pt x="291" y="329" on="1"/>
        <pt x="291" y="42" on="1"/>
        <pt x="414" y="42" on="1"/>
        <pt x="415" y="42" on="0"/>
      </contour>
    </TTGlyph>
    <TTGlyph name="Euro" xMin="-28" yMin="-14" xMax="679" yMax="714">
      <contour>
        <pt x="649" y="18" on="0"/>
        <pt x="520" y="-13" on="0"/>
        <pt x="361" y="-13" on="0"/>
        <pt x="206" y="60" on="0"/>
        <pt x="105" y="188" on="0"/>
        <pt x="88" y="271" on="1"/>
        <pt x="-28" y="271" on="1"/>
        <pt x="-13" y="314" on="1"/>
        <pt x="82" y="314" on="1"/>
        <pt x="78" y="349" on="0"/>
        <pt x="81" y="384" on="1"/>
        <pt x="-28" y="384" on="1"/>
        <pt x="-13" y="426" on="1"/>
        <pt x="87" y="426" on="1"/>
        <pt x="112" y="554" on="0"/>
        <pt x="313" y="714" on="0"/>
        <pt x="455" y="714" on="1"/>
        <pt x="574" y="714" on="0"/>
        <pt x="642" y="682" on="1"/>
        <pt x="666" y="670" on="0"/>
        <pt x="678" y="655" on="1"/>
        <pt x="634" y="523" on="1"/>
        <pt x="624" y="523" on="1"/>
        <pt x="625" y="533" on="0"/>
        <pt x="625" y="565" on="0"/>
        <pt x="610" y="611" on="0"/>
        <pt x="578" y="643" on="0"/>
        <pt x="555" y="654" on="1"/>
        <pt x="516" y="672" on="0"/>
        <pt x="465" y="672" on="1"/>
        <pt x="376" y="672" on="0"/>
        <pt x="260" y="540" on="0"/>
        <pt x="245" y="426" on="1"/>
        <pt x="601" y="426" on="1"/>
        <pt x="586" y="384" on="1"/>
        <pt x="240" y="384" on="1"/>
        <pt x="240" y="351" on="1"/>
        <pt x="240" y="332" on="0"/>
        <pt x="241" y="314" on="1"/>
        <pt x="562" y="314" on="1"/>
        <pt x="548" y="271" on="1"/>
        <pt x="245" y="271" on="1"/>
        <pt x="261" y="158" on="0"/>
        <pt x="380" y="29" on="0"/>
        <pt x="555" y="29" on="0"/>
        <pt x="649" y="108" on="0"/>
        <pt x="670" y="190" on="1"/>
        <pt x="679" y="190" on="1"/>
        <pt x="679" y="49" on="1"/>
      </contour>
    </TTGlyph>
    <TTGlyph name="F" xMin="41" yMin="-1" xMax="652" yMax="719">
      <contour>
        <pt x="269" y="324" on="1"/>
        <pt x="269" y="73" on="1"/>
        <pt x="269" y="47" on="0"/>
        <pt x="307" y="10" on="0"/>
        <pt x="333" y="10" on="1"/>
        <pt x="345" y="10" on="1"/>
        <pt x="346" y="0" on="1"/>
        <pt x="42" y="0" on="1"/>
        <pt x="42" y="10" on="1"/>
        <pt x="55" y="10" on="1"/>
        <pt x="81" y="10" on="0"/>
        <pt x="118" y="47" on="0"/>
        <pt x="119" y="73" on="1"/>
        <pt x="119" y="630" on="1"/>
        <pt x="117" y="655" on="0"/>
        <pt x="80" y="690" on="0"/>
        <pt x="55" y="690" on="1"/>
        <pt x="42" y="690" on="1"/>
        <pt x="42" y="700" on="1"/>
        <pt x="425" y="700" on="1"/>
        <pt x="469" y="700" on="0"/>
        <pt x="535" y="714" on="0"/>
        <pt x="545" y="718" on="1"/>
        <pt x="545" y="549" on="1"/>
        <pt x="535" y="549" on="1"/>
        <pt x="535" y="559" on="1"/>
        <pt x="535" y="619" on="0"/>
        <pt x="490" y="644" on="1"/>
        <pt x="469" y="656" on="0"/>
        <pt x="440" y="657" on="1"/>
        <pt x="269" y="657" on="1"/>
        <pt x="269" y="366" on="1"/>
        <pt x="557" y="366" on="1"/>
        <pt x="594" y="367" on="0"/>
        <pt x="642" y="416" on="0"/>
        <pt x="642" y="452" on="1"/>
        <pt x="642" y="461" on="1"/>
        <pt x="652" y="461" on="1"/>
        <pt x="652" y="230" on="1"/>
        <pt x="642" y="230" on="1"/>
        <pt x="642" y="238" on="1"/>
        <pt x="642" y="275" on="0"/>
        <pt x="595" y="323" on="0"/>
        <pt x="559" y="324" on="1"/>
      </contour>
    </TTGlyph>
    <TTGlyph name="G" xMin="29" yMin="-198" xMax="1117" yMax="715">
      <contour>
        <pt x="955" y="-198" on="1"/>
        <pt x="930" y="-198" on="0"/>
        <pt x="906" y="-194" on="1"/>
        <pt x="809" y="-179" on="0"/>
        <pt x="673" y="-62" on="0"/>
        <pt x="643" y="25" on="1"/>
        <pt x="549" y="-14" on="0"/>
        <pt x="440" y="-14" on="1"/>
        <pt x="260" y="-14" on="0"/>
        <pt x="30" y="190" on="0"/>
        <pt x="30" y="350" on="1"/>
        <pt x="30" y="457" on="0"/>
        <pt x="135" y="623" on="0"/>
        <pt x="325" y="714" on="0"/>
        <pt x="447" y="714" on="1"/>
        <pt x="527" y="714" on="0"/>
        <pt x="677" y="683" on="0"/>
        <pt x="723" y="660" on="1"/>
        <pt x="725" y="488" on="1"/>
        <pt x="717" y="488" on="1"/>
        <pt x="693" y="579" on="0"/>
        <pt x="556" y="672" on="0"/>
        <pt x="460" y="672" on="1"/>
        <pt x="342" y="672" on="0"/>
        <pt x="193" y="491" on="0"/>
        <pt x="193" y="206" on="0"/>
        <pt x="339" y="28" on="0"/>
        <pt x="454" y="28" on="1"/>
        <pt x="516" y="28" on="0"/>
        <pt x="607" y="82" on="0"/>
        <pt x="623" y="127" on="1"/>
        <pt x="623" y="279" on="1"/>
        <pt x="623" y="301" on="0"/>
        <pt x="597" y="325" on="0"/>
        <pt x="573" y="325" on="1"/>
        <pt x="557" y="325" on="1"/>
        <pt x="557" y="335" on="1"/>
        <pt x="838" y="335" on="1"/>
        <pt x="838" y="325" on="1"/>
        <pt x="823" y="325" on="1"/>
        <pt x="798" y="325" on="0"/>
        <pt x="772" y="301" on="0"/>
        <pt x="773" y="280" on="1"/>
        <pt x="773" y="121" on="1"/>
        <pt x="774" y="55" on="0"/>
        <pt x="798" y="-2" on="1"/>
        <pt x="851" y="-124" on="0"/>
        <pt x="974" y="-154" on="1"/>
        <pt x="1007" y="-162" on="0"/>
        <pt x="1078" y="-162" on="0"/>
        <pt x="1115" y="-154" on="1"/>
        <pt x="1117" y="-164" on="1"/>
        <pt x="1031" y="-198" on="0"/>
      </contour>
    </TTGlyph>
    <TTGlyph name="Gbreve" xMin="29" yMin="-198" xMax="1117" yMax="905">
      <contour>
        <pt x="563" y="884" on="1"/>
        <pt x="563" y="841" on="0"/>
        <pt x="493" y="764" on="0"/>
        <pt x="378" y="764" on="0"/>
        <pt x="309" y="841" on="0"/>
        <pt x="309" y="884" on="1"/>
        <pt x="309" y="894" on="0"/>
        <pt x="311" y="904" on="1"/>
        <pt x="322" y="904" on="1"/>
        <pt x="333" y="879" on="0"/>
        <pt x="396" y="844" on="0"/>
        <pt x="462" y="844" on="0"/>
        <pt x="486" y="852" on="1"/>
        <pt x="535" y="869" on="0"/>
        <pt x="549" y="904" on="1"/>
        <pt x="561" y="904" on="1"/>
        <pt x="563" y="894" on="0"/>
      </contour>
      <contour>
        <pt x="955" y="-198" on="1"/>
        <pt x="930" y="-198" on="0"/>
        <pt x="906" y="-194" on="1"/>
        <pt x="809" y="-179" on="0"/>
        <pt x="673" y="-62" on="0"/>
        <pt x="643" y="25" on="1"/>
        <pt x="549" y="-14" on="0"/>
        <pt x="440" y="-14" on="1"/>
        <pt x="260" y="-14" on="0"/>
        <pt x="30" y="190" on="0"/>
        <pt x="30" y="512" on="0"/>
        <pt x="262" y="714" on="0"/>
        <pt x="447" y="714" on="1"/>
        <pt x="527" y="714" on="0"/>
        <pt x="677" y="683" on="0"/>
        <pt x="723" y="660" on="1"/>
        <pt x="725" y="488" on="1"/>
        <pt x="717" y="488" on="1"/>
        <pt x="693" y="579" on="0"/>
        <pt x="556" y="672" on="0"/>
        <pt x="460" y="672" on="1"/>
        <pt x="342" y="672" on="0"/>
        <pt x="193" y="491" on="0"/>
        <pt x="193" y="346" on="1"/>
        <pt x="193" y="254" on="0"/>
        <pt x="259" y="109" on="0"/>
        <pt x="378" y="28" on="0"/>
        <pt x="516" y="28" on="0"/>
        <pt x="607" y="82" on="0"/>
        <pt x="623" y="127" on="1"/>
        <pt x="623" y="279" on="1"/>
        <pt x="624" y="325" on="0"/>
        <pt x="573" y="325" on="1"/>
        <pt x="557" y="325" on="1"/>
        <pt x="557" y="335" on="1"/>
        <pt x="838" y="335" on="1"/>
        <pt x="838" y="325" on="1"/>
        <pt x="823" y="325" on="1"/>
        <pt x="798" y="325" on="0"/>
        <pt x="772" y="301" on="0"/>
        <pt x="773" y="280" on="1"/>
        <pt x="773" y="121" on="1"/>
        <pt x="774" y="55" on="0"/>
        <pt x="798" y="-2" on="1"/>
        <pt x="851" y="-124" on="0"/>
        <pt x="974" y="-154" on="1"/>
        <pt x="1007" y="-162" on="0"/>
        <pt x="1078" y="-162" on="0"/>
        <pt x="1115" y="-154" on="1"/>
        <pt x="1117" y="-164" on="1"/>
        <pt x="1031" y="-198" on="0"/>
      </contour>
    </TTGlyph>
    <TTGlyph name="Gcommaaccent" xMin="29" yMin="-248" xMax="1117" yMax="715">
      <contour>
        <pt x="955" y="-198" on="1"/>
        <pt x="930" y="-198" on="0"/>
        <pt x="906" y="-194" on="1"/>
        <pt x="809" y="-179" on="0"/>
        <pt x="673" y="-62" on="0"/>
        <pt x="643" y="25" on="1"/>
        <pt x="549" y="-14" on="0"/>
        <pt x="440" y="-14" on="1"/>
        <pt x="260" y="-14" on="0"/>
        <pt x="30" y="190" on="0"/>
        <pt x="30" y="350" on="1"/>
        <pt x="30" y="457" on="0"/>
        <pt x="135" y="623" on="0"/>
        <pt x="325" y="714" on="0"/>
        <pt x="447" y="714" on="1"/>
        <pt x="527" y="714" on="0"/>
        <pt x="677" y="683" on="0"/>
        <pt x="723" y="660" on="1"/>
        <pt x="725" y="488" on="1"/>
        <pt x="717" y="488" on="1"/>
        <pt x="693" y="579" on="0"/>
        <pt x="556" y="672" on="0"/>
        <pt x="460" y="672" on="1"/>
        <pt x="342" y="672" on="0"/>
        <pt x="193" y="491" on="0"/>
        <pt x="193" y="206" on="0"/>
        <pt x="339" y="28" on="0"/>
        <pt x="454" y="28" on="1"/>
        <pt x="516" y="28" on="0"/>
        <pt x="607" y="82" on="0"/>
        <pt x="623" y="127" on="1"/>
        <pt x="623" y="279" on="1"/>
        <pt x="623" y="301" on="0"/>
        <pt x="597" y="325" on="0"/>
        <pt x="573" y="325" on="1"/>
        <pt x="557" y="325" on="1"/>
        <pt x="557" y="335" on="1"/>
        <pt x="838" y="335" on="1"/>
        <pt x="838" y="325" on="1"/>
        <pt x="823" y="325" on="1"/>
        <pt x="798" y="325" on="0"/>
        <pt x="772" y="301" on="0"/>
        <pt x="773" y="280" on="1"/>
        <pt x="773" y="121" on="1"/>
        <pt x="774" y="55" on="0"/>
        <pt x="798" y="-2" on="1"/>
        <pt x="851" y="-124" on="0"/>
        <pt x="974" y="-154" on="1"/>
        <pt x="1007" y="-162" on="0"/>
        <pt x="1078" y="-162" on="0"/>
        <pt x="1115" y="-154" on="1"/>
        <pt x="1117" y="-164" on="1"/>
        <pt x="1031" y="-198" on="0"/>
      </contour>
      <contour>
        <pt x="402" y="-239" on="1"/>
        <pt x="436" y="-227" on="0"/>
        <pt x="436" y="-194" on="1"/>
        <pt x="436" y="-175" on="0"/>
        <pt x="403" y="-136" on="0"/>
        <pt x="403" y="-92" on="0"/>
        <pt x="430" y="-64" on="0"/>
        <pt x="443" y="-64" on="1"/>
        <pt x="487" y="-64" on="0"/>
        <pt x="503" y="-99" on="1"/>
        <pt x="512" y="-123" on="0"/>
        <pt x="512" y="-141" on="1"/>
        <pt x="512" y="-198" on="0"/>
        <pt x="469" y="-230" on="1"/>
        <pt x="445" y="-248" on="0"/>
        <pt x="417" y="-248" on="1"/>
        <pt x="410" y="-248" on="0"/>
        <pt x="404" y="-247" on="1"/>
      </contour>
    </TTGlyph>
    <TTGlyph name="Gdotaccent" xMin="29" yMin="-198" xMax="1117" yMax="888">
      <contour>
        <pt x="461" y="764" on="0"/>
        <pt x="410" y="764" on="0"/>
        <pt x="374" y="800" on="0"/>
        <pt x="374" y="851" on="0"/>
        <pt x="410" y="888" on="0"/>
        <pt x="461" y="888" on="0"/>
        <pt x="497" y="851" on="0"/>
        <pt x="497" y="800" on="0"/>
      </contour>
      <contour>
        <pt x="955" y="-198" on="1"/>
        <pt x="930" y="-198" on="0"/>
        <pt x="906" y="-194" on="1"/>
        <pt x="809" y="-179" on="0"/>
        <pt x="673" y="-62" on="0"/>
        <pt x="643" y="25" on="1"/>
        <pt x="549" y="-14" on="0"/>
        <pt x="440" y="-14" on="1"/>
        <pt x="260" y="-14" on="0"/>
        <pt x="30" y="190" on="0"/>
        <pt x="30" y="350" on="1"/>
        <pt x="30" y="457" on="0"/>
        <pt x="135" y="623" on="0"/>
        <pt x="325" y="714" on="0"/>
        <pt x="447" y="714" on="1"/>
        <pt x="527" y="714" on="0"/>
        <pt x="677" y="683" on="0"/>
        <pt x="723" y="660" on="1"/>
        <pt x="725" y="488" on="1"/>
        <pt x="717" y="488" on="1"/>
        <pt x="693" y="579" on="0"/>
        <pt x="556" y="672" on="0"/>
        <pt x="460" y="672" on="1"/>
        <pt x="342" y="672" on="0"/>
        <pt x="193" y="491" on="0"/>
        <pt x="193" y="206" on="0"/>
        <pt x="339" y="28" on="0"/>
        <pt x="454" y="28" on="1"/>
        <pt x="516" y="28" on="0"/>
        <pt x="607" y="82" on="0"/>
        <pt x="623" y="127" on="1"/>
        <pt x="623" y="279" on="1"/>
        <pt x="623" y="301" on="0"/>
        <pt x="597" y="325" on="0"/>
        <pt x="573" y="325" on="1"/>
        <pt x="557" y="325" on="1"/>
        <pt x="557" y="335" on="1"/>
        <pt x="838" y="335" on="1"/>
        <pt x="838" y="325" on="1"/>
        <pt x="823" y="325" on="1"/>
        <pt x="798" y="325" on="0"/>
        <pt x="772" y="301" on="0"/>
        <pt x="773" y="280" on="1"/>
        <pt x="773" y="121" on="1"/>
        <pt x="774" y="55" on="0"/>
        <pt x="798" y="-2" on="1"/>
        <pt x="851" y="-124" on="0"/>
        <pt x="974" y="-154" on="1"/>
        <pt x="1007" y="-162" on="0"/>
        <pt x="1078" y="-162" on="0"/>
        <pt x="1115" y="-154" on="1"/>
        <pt x="1117" y="-164" on="1"/>
        <pt x="1031" y="-198" on="0"/>
      </contour>
    </TTGlyph>
    <TTGlyph name="H" xMin="8" yMin="-177" xMax="851" yMax="853">
      <contour>
        <pt x="523" y="10" on="1"/>
        <pt x="549" y="10" on="0"/>
        <pt x="587" y="46" on="0"/>
        <pt x="588" y="72" on="1"/>
        <pt x="588" y="327" on="1"/>
        <pt x="273" y="327" on="1"/>
        <pt x="273" y="70" on="1"/>
        <pt x="273" y="-50" on="0"/>
        <pt x="212" y="-121" on="1"/>
        <pt x="164" y="-177" on="0"/>
        <pt x="74" y="-177" on="1"/>
        <pt x="45" y="-177" on="0"/>
        <pt x="11" y="-170" on="1"/>
        <pt x="9" y="-160" on="1"/>
        <pt x="83" y="-129" on="0"/>
        <pt x="104" y="-68" on="1"/>
        <pt x="123" y="-16" on="0"/>
        <pt x="123" y="70" on="1"/>
        <pt x="123" y="628" on="1"/>
        <pt x="122" y="654" on="0"/>
        <pt x="85" y="690" on="0"/>
        <pt x="59" y="690" on="1"/>
        <pt x="46" y="690" on="1"/>
        <pt x="46" y="700" on="1"/>
        <pt x="350" y="700" on="1"/>
        <pt x="350" y="690" on="1"/>
        <pt x="337" y="690" on="1"/>
        <pt x="301" y="690" on="0"/>
        <pt x="283" y="660" on="1"/>
        <pt x="274" y="646" on="0"/>
        <pt x="273" y="628" on="1"/>
        <pt x="273" y="370" on="1"/>
        <pt x="588" y="370" on="1"/>
        <pt x="588" y="610" on="1"/>
        <pt x="588" y="727" on="0"/>
        <pt x="661" y="796" on="1"/>
        <pt x="719" y="853" on="0"/>
        <pt x="807" y="853" on="1"/>
        <pt x="827" y="853" on="0"/>
        <pt x="849" y="850" on="1"/>
        <pt x="851" y="840" on="1"/>
        <pt x="778" y="814" on="0"/>
        <pt x="756" y="748" on="1"/>
        <pt x="738" y="694" on="0"/>
        <pt x="737" y="610" on="1"/>
        <pt x="737" y="73" on="1"/>
        <pt x="738" y="37" on="0"/>
        <pt x="769" y="19" on="1"/>
        <pt x="784" y="10" on="0"/>
        <pt x="802" y="10" on="1"/>
        <pt x="814" y="10" on="1"/>
        <pt x="814" y="0" on="1"/>
        <pt x="511" y="0" on="1"/>
        <pt x="511" y="10" on="1"/>
      </contour>
    </TTGlyph>
    <TTGlyph name="Hbar" xMin="8" yMin="-177" xMax="851" yMax="853">
      <contour>
        <pt x="523" y="10" on="1"/>
        <pt x="549" y="10" on="0"/>
        <pt x="587" y="46" on="0"/>
        <pt x="588" y="72" on="1"/>
        <pt x="588" y="327" on="1"/>
        <pt x="273" y="327" on="1"/>
        <pt x="273" y="70" on="1"/>
        <pt x="273" y="-50" on="0"/>
        <pt x="212" y="-121" on="1"/>
        <pt x="164" y="-177" on="0"/>
        <pt x="74" y="-177" on="1"/>
        <pt x="45" y="-177" on="0"/>
        <pt x="11" y="-170" on="1"/>
        <pt x="9" y="-160" on="1"/>
        <pt x="83" y="-129" on="0"/>
        <pt x="104" y="-68" on="1"/>
        <pt x="123" y="-16" on="0"/>
        <pt x="123" y="70" on="1"/>
        <pt x="123" y="492" on="1"/>
        <pt x="49" y="492" on="1"/>
        <pt x="49" y="534" on="1"/>
        <pt x="123" y="534" on="1"/>
        <pt x="123" y="628" on="1"/>
        <pt x="122" y="654" on="0"/>
        <pt x="85" y="690" on="0"/>
        <pt x="59" y="690" on="1"/>
        <pt x="46" y="690" on="1"/>
        <pt x="46" y="700" on="1"/>
        <pt x="350" y="700" on="1"/>
        <pt x="350" y="690" on="1"/>
        <pt x="337" y="690" on="1"/>
        <pt x="312" y="690" on="0"/>
        <pt x="274" y="655" on="0"/>
        <pt x="273" y="628" on="1"/>
        <pt x="273" y="534" on="1"/>
        <pt x="588" y="534" on="1"/>
        <pt x="588" y="610" on="1"/>
        <pt x="588" y="727" on="0"/>
        <pt x="661" y="796" on="1"/>
        <pt x="719" y="853" on="0"/>
        <pt x="807" y="853" on="1"/>
        <pt x="827" y="853" on="0"/>
        <pt x="849" y="850" on="1"/>
        <pt x="851" y="840" on="1"/>
        <pt x="769" y="811" on="0"/>
        <pt x="749" y="724" on="1"/>
        <pt x="738" y="679" on="0"/>
        <pt x="738" y="610" on="1"/>
        <pt x="738" y="534" on="1"/>
        <pt x="804" y="534" on="1"/>
        <pt x="804" y="492" on="1"/>
        <pt x="737" y="492" on="1"/>
        <pt x="737" y="73" on="1"/>
        <pt x="738" y="47" on="0"/>
        <pt x="775" y="10" on="0"/>
        <pt x="802" y="10" on="1"/>
        <pt x="814" y="10" on="1"/>
        <pt x="814" y="0" on="1"/>
        <pt x="511" y="0" on="1"/>
        <pt x="511" y="10" on="1"/>
      </contour>
      <contour>
        <pt x="273" y="370" on="1"/>
        <pt x="588" y="370" on="1"/>
        <pt x="588" y="492" on="1"/>
        <pt x="273" y="492" on="1"/>
      </contour>
    </TTGlyph>
    <TTGlyph name="I" xMin="-45" yMin="-1" xMax="418" yMax="721">
      <contour>
        <pt x="403" y="10" on="1"/>
        <pt x="416" y="10" on="1"/>
        <pt x="416" y="0" on="1"/>
        <pt x="112" y="0" on="1"/>
        <pt x="112" y="10" on="1"/>
        <pt x="125" y="10" on="1"/>
        <pt x="151" y="10" on="0"/>
        <pt x="188" y="47" on="0"/>
        <pt x="189" y="73" on="1"/>
        <pt x="189" y="659" on="1"/>
        <pt x="94" y="655" on="1"/>
        <pt x="0" y="651" on="0"/>
        <pt x="0" y="585" on="1"/>
        <pt x="0" y="558" on="0"/>
        <pt x="37" y="521" on="0"/>
        <pt x="70" y="521" on="1"/>
        <pt x="73" y="521" on="0"/>
        <pt x="76" y="521" on="1"/>
        <pt x="76" y="515" on="1"/>
        <pt x="56" y="508" on="0"/>
        <pt x="42" y="508" on="1"/>
        <pt x="-3" y="508" on="0"/>
        <pt x="-27" y="540" on="1"/>
        <pt x="-44" y="562" on="0"/>
        <pt x="-44" y="590" on="1"/>
        <pt x="-44" y="634" on="0"/>
        <pt x="25" y="691" on="0"/>
        <pt x="97" y="696" on="1"/>
        <pt x="110" y="697" on="0"/>
        <pt x="181" y="700" on="1"/>
        <pt x="343" y="706" on="0"/>
        <pt x="416" y="720" on="1"/>
        <pt x="418" y="710" on="1"/>
        <pt x="375" y="703" on="0"/>
        <pt x="340" y="659" on="0"/>
        <pt x="339" y="616" on="1"/>
        <pt x="339" y="73" on="1"/>
        <pt x="340" y="47" on="0"/>
        <pt x="377" y="10" on="0"/>
      </contour>
    </TTGlyph>
    <TTGlyph name="IJ" xMin="-45" yMin="-198" xMax="805" yMax="721">
      <contour>
        <pt x="403" y="10" on="1"/>
        <pt x="416" y="10" on="1"/>
        <pt x="416" y="0" on="1"/>
        <pt x="112" y="0" on="1"/>
        <pt x="112" y="10" on="1"/>
        <pt x="125" y="10" on="1"/>
        <pt x="151" y="10" on="0"/>
        <pt x="188" y="47" on="0"/>
        <pt x="189" y="73" on="1"/>
        <pt x="189" y="659" on="1"/>
        <pt x="94" y="655" on="1"/>
        <pt x="0" y="651" on="0"/>
        <pt x="0" y="585" on="1"/>
        <pt x="0" y="558" on="0"/>
        <pt x="37" y="521" on="0"/>
        <pt x="70" y="521" on="1"/>
        <pt x="73" y="521" on="0"/>
        <pt x="76" y="521" on="1"/>
        <pt x="76" y="515" on="1"/>
        <pt x="56" y="508" on="0"/>
        <pt x="42" y="508" on="1"/>
        <pt x="-3" y="508" on="0"/>
        <pt x="-27" y="540" on="1"/>
        <pt x="-44" y="562" on="0"/>
        <pt x="-44" y="590" on="1"/>
        <pt x="-44" y="634" on="0"/>
        <pt x="25" y="691" on="0"/>
        <pt x="97" y="696" on="1"/>
        <pt x="110" y="697" on="0"/>
        <pt x="181" y="700" on="1"/>
        <pt x="343" y="706" on="0"/>
        <pt x="416" y="720" on="1"/>
        <pt x="418" y="710" on="1"/>
        <pt x="375" y="703" on="0"/>
        <pt x="340" y="659" on="0"/>
        <pt x="339" y="616" on="1"/>
        <pt x="339" y="73" on="1"/>
        <pt x="340" y="47" on="0"/>
        <pt x="377" y="10" on="0"/>
      </contour>
      <contour>
        <pt x="792" y="690" on="1"/>
        <pt x="756" y="690" on="0"/>
        <pt x="737" y="659" on="1"/>
        <pt x="728" y="645" on="0"/>
        <pt x="728" y="627" on="1"/>
        <pt x="728" y="80" on="1"/>
        <pt x="728" y="-55" on="0"/>
        <pt x="659" y="-130" on="1"/>
        <pt x="596" y="-198" on="0"/>
        <pt x="511" y="-198" on="1"/>
        <pt x="446" y="-198" on="0"/>
        <pt x="377" y="-161" on="1"/>
        <pt x="380" y="-151" on="1"/>
        <pt x="399" y="-155" on="0"/>
        <pt x="416" y="-155" on="1"/>
        <pt x="457" y="-155" on="0"/>
        <pt x="489" y="-134" on="1"/>
        <pt x="578" y="-78" on="0"/>
        <pt x="578" y="83" on="1"/>
        <pt x="578" y="627" on="1"/>
        <pt x="577" y="653" on="0"/>
        <pt x="540" y="690" on="0"/>
        <pt x="514" y="690" on="1"/>
        <pt x="501" y="690" on="1"/>
        <pt x="501" y="700" on="1"/>
        <pt x="805" y="700" on="1"/>
        <pt x="805" y="690" on="1"/>
      </contour>
    </TTGlyph>
    <TTGlyph name="Iacute" xMin="-45" yMin="-1" xMax="458" yMax="934">
      <contour>
        <pt x="253" y="762" on="1"/>
        <pt x="246" y="769" on="1"/>
        <pt x="289" y="843" on="0"/>
        <pt x="390" y="933" on="1"/>
        <pt x="438" y="908" on="0"/>
        <pt x="457" y="852" on="1"/>
        <pt x="355" y="787" on="0"/>
      </contour>
      <contour>
        <pt x="403" y="10" on="1"/>
        <pt x="416" y="10" on="1"/>
        <pt x="416" y="0" on="1"/>
        <pt x="112" y="0" on="1"/>
        <pt x="112" y="10" on="1"/>
        <pt x="125" y="10" on="1"/>
        <pt x="151" y="10" on="0"/>
        <pt x="188" y="47" on="0"/>
        <pt x="189" y="73" on="1"/>
        <pt x="189" y="659" on="1"/>
        <pt x="94" y="655" on="1"/>
        <pt x="0" y="651" on="0"/>
        <pt x="0" y="585" on="1"/>
        <pt x="0" y="558" on="0"/>
        <pt x="37" y="521" on="0"/>
        <pt x="70" y="521" on="1"/>
        <pt x="73" y="521" on="0"/>
        <pt x="76" y="521" on="1"/>
        <pt x="76" y="515" on="1"/>
        <pt x="56" y="508" on="0"/>
        <pt x="42" y="508" on="1"/>
        <pt x="-3" y="508" on="0"/>
        <pt x="-27" y="540" on="1"/>
        <pt x="-44" y="562" on="0"/>
        <pt x="-44" y="590" on="1"/>
        <pt x="-44" y="634" on="0"/>
        <pt x="25" y="691" on="0"/>
        <pt x="97" y="696" on="1"/>
        <pt x="110" y="697" on="0"/>
        <pt x="181" y="700" on="1"/>
        <pt x="343" y="706" on="0"/>
        <pt x="416" y="720" on="1"/>
        <pt x="418" y="710" on="1"/>
        <pt x="375" y="703" on="0"/>
        <pt x="340" y="659" on="0"/>
        <pt x="339" y="616" on="1"/>
        <pt x="339" y="73" on="1"/>
        <pt x="340" y="36" on="0"/>
        <pt x="371" y="18" on="1"/>
        <pt x="386" y="10" on="0"/>
      </contour>
    </TTGlyph>
    <TTGlyph name="Icircumflex" xMin="-45" yMin="-1" xMax="422" yMax="916">
      <contour>
        <pt x="257" y="915" on="1"/>
        <pt x="268" y="915" on="1"/>
        <pt x="421" y="762" on="1"/>
        <pt x="414" y="754" on="1"/>
        <pt x="262" y="819" on="1"/>
        <pt x="119" y="754" on="1"/>
        <pt x="113" y="762" on="1"/>
      </contour>
      <contour>
        <pt x="403" y="10" on="1"/>
        <pt x="416" y="10" on="1"/>
        <pt x="416" y="0" on="1"/>
        <pt x="112" y="0" on="1"/>
        <pt x="112" y="10" on="1"/>
        <pt x="125" y="10" on="1"/>
        <pt x="151" y="10" on="0"/>
        <pt x="188" y="47" on="0"/>
        <pt x="189" y="73" on="1"/>
        <pt x="189" y="659" on="1"/>
        <pt x="94" y="655" on="1"/>
        <pt x="0" y="650" on="0"/>
        <pt x="0" y="585" on="1"/>
        <pt x="0" y="558" on="0"/>
        <pt x="37" y="521" on="0"/>
        <pt x="70" y="521" on="1"/>
        <pt x="73" y="521" on="0"/>
        <pt x="76" y="521" on="1"/>
        <pt x="76" y="515" on="1"/>
        <pt x="56" y="508" on="0"/>
        <pt x="42" y="508" on="1"/>
        <pt x="-3" y="508" on="0"/>
        <pt x="-27" y="540" on="1"/>
        <pt x="-44" y="562" on="0"/>
        <pt x="-44" y="590" on="1"/>
        <pt x="-44" y="634" on="0"/>
        <pt x="25" y="691" on="0"/>
        <pt x="97" y="696" on="1"/>
        <pt x="110" y="697" on="0"/>
        <pt x="181" y="700" on="1"/>
        <pt x="343" y="706" on="0"/>
        <pt x="416" y="720" on="1"/>
        <pt x="418" y="710" on="1"/>
        <pt x="375" y="703" on="0"/>
        <pt x="340" y="659" on="0"/>
        <pt x="339" y="616" on="1"/>
        <pt x="339" y="73" on="1"/>
        <pt x="340" y="36" on="0"/>
        <pt x="371" y="18" on="1"/>
        <pt x="386" y="10" on="0"/>
      </contour>
    </TTGlyph>
    <TTGlyph name="Idieresis" xMin="-45" yMin="-1" xMax="438" yMax="880">
      <contour>
        <pt x="169" y="759" on="0"/>
        <pt x="119" y="759" on="0"/>
        <pt x="84" y="794" on="0"/>
        <pt x="84" y="844" on="0"/>
        <pt x="119" y="879" on="0"/>
        <pt x="169" y="879" on="0"/>
        <pt x="204" y="844" on="0"/>
        <pt x="204" y="794" on="0"/>
      </contour>
      <contour>
        <pt x="403" y="759" on="0"/>
        <pt x="353" y="759" on="0"/>
        <pt x="318" y="794" on="0"/>
        <pt x="318" y="844" on="0"/>
        <pt x="353" y="879" on="0"/>
        <pt x="403" y="879" on="0"/>
        <pt x="438" y="844" on="0"/>
        <pt x="438" y="794" on="0"/>
      </contour>
      <contour>
        <pt x="403" y="10" on="1"/>
        <pt x="416" y="10" on="1"/>
        <pt x="416" y="0" on="1"/>
        <pt x="112" y="0" on="1"/>
        <pt x="112" y="10" on="1"/>
        <pt x="125" y="10" on="1"/>
        <pt x="151" y="10" on="0"/>
        <pt x="188" y="47" on="0"/>
        <pt x="189" y="73" on="1"/>
        <pt x="189" y="659" on="1"/>
        <pt x="94" y="655" on="1"/>
        <pt x="0" y="651" on="0"/>
        <pt x="0" y="585" on="1"/>
        <pt x="0" y="558" on="0"/>
        <pt x="37" y="521" on="0"/>
        <pt x="70" y="521" on="1"/>
        <pt x="73" y="521" on="0"/>
        <pt x="76" y="521" on="1"/>
        <pt x="76" y="515" on="1"/>
        <pt x="56" y="508" on="0"/>
        <pt x="42" y="508" on="1"/>
        <pt x="-3" y="508" on="0"/>
        <pt x="-27" y="540" on="1"/>
        <pt x="-44" y="562" on="0"/>
        <pt x="-44" y="590" on="1"/>
        <pt x="-44" y="634" on="0"/>
        <pt x="25" y="691" on="0"/>
        <pt x="97" y="696" on="1"/>
        <pt x="110" y="697" on="0"/>
        <pt x="181" y="700" on="1"/>
        <pt x="343" y="706" on="0"/>
        <pt x="416" y="720" on="1"/>
        <pt x="418" y="710" on="1"/>
        <pt x="375" y="703" on="0"/>
        <pt x="340" y="659" on="0"/>
        <pt x="339" y="616" on="1"/>
        <pt x="339" y="73" on="1"/>
        <pt x="340" y="47" on="0"/>
        <pt x="377" y="10" on="0"/>
      </contour>
    </TTGlyph>
    <TTGlyph name="Idotaccent" xMin="-45" yMin="-1" xMax="418" yMax="888">
      <contour>
        <pt x="288" y="764" on="0"/>
        <pt x="237" y="764" on="0"/>
        <pt x="201" y="800" on="0"/>
        <pt x="201" y="851" on="0"/>
        <pt x="237" y="888" on="0"/>
        <pt x="288" y="888" on="0"/>
        <pt x="324" y="851" on="0"/>
        <pt x="324" y="800" on="0"/>
      </contour>
      <contour>
        <pt x="403" y="10" on="1"/>
        <pt x="416" y="10" on="1"/>
        <pt x="416" y="0" on="1"/>
        <pt x="112" y="0" on="1"/>
        <pt x="112" y="10" on="1"/>
        <pt x="125" y="10" on="1"/>
        <pt x="151" y="10" on="0"/>
        <pt x="188" y="47" on="0"/>
        <pt x="189" y="73" on="1"/>
        <pt x="189" y="659" on="1"/>
        <pt x="94" y="655" on="1"/>
        <pt x="0" y="650" on="0"/>
        <pt x="0" y="585" on="1"/>
        <pt x="0" y="558" on="0"/>
        <pt x="37" y="521" on="0"/>
        <pt x="70" y="521" on="1"/>
        <pt x="73" y="521" on="0"/>
        <pt x="76" y="521" on="1"/>
        <pt x="76" y="515" on="1"/>
        <pt x="56" y="508" on="0"/>
        <pt x="42" y="508" on="1"/>
        <pt x="-3" y="508" on="0"/>
        <pt x="-27" y="540" on="1"/>
        <pt x="-44" y="562" on="0"/>
        <pt x="-44" y="590" on="1"/>
        <pt x="-44" y="634" on="0"/>
        <pt x="25" y="691" on="0"/>
        <pt x="97" y="696" on="1"/>
        <pt x="110" y="697" on="0"/>
        <pt x="181" y="700" on="1"/>
        <pt x="343" y="706" on="0"/>
        <pt x="416" y="720" on="1"/>
        <pt x="418" y="710" on="1"/>
        <pt x="375" y="703" on="0"/>
        <pt x="340" y="659" on="0"/>
        <pt x="339" y="616" on="1"/>
        <pt x="339" y="73" on="1"/>
        <pt x="340" y="47" on="0"/>
        <pt x="377" y="10" on="0"/>
      </contour>
    </TTGlyph>
    <TTGlyph name="Igrave" xMin="-45" yMin="-1" xMax="418" yMax="936">
      <contour>
        <pt x="282" y="771" on="1"/>
        <pt x="275" y="764" on="1"/>
        <pt x="175" y="788" on="0"/>
        <pt x="71" y="854" on="1"/>
        <pt x="90" y="911" on="0"/>
        <pt x="138" y="935" on="1"/>
        <pt x="240" y="844" on="0"/>
      </contour>
      <contour>
        <pt x="403" y="10" on="1"/>
        <pt x="416" y="10" on="1"/>
        <pt x="416" y="0" on="1"/>
        <pt x="112" y="0" on="1"/>
        <pt x="112" y="10" on="1"/>
        <pt x="125" y="10" on="1"/>
        <pt x="151" y="10" on="0"/>
        <pt x="188" y="47" on="0"/>
        <pt x="189" y="73" on="1"/>
        <pt x="189" y="659" on="1"/>
        <pt x="94" y="655" on="1"/>
        <pt x="0" y="650" on="0"/>
        <pt x="0" y="585" on="1"/>
        <pt x="0" y="557" on="0"/>
        <pt x="37" y="521" on="0"/>
        <pt x="70" y="521" on="1"/>
        <pt x="73" y="521" on="0"/>
        <pt x="76" y="521" on="1"/>
        <pt x="76" y="515" on="1"/>
        <pt x="56" y="508" on="0"/>
        <pt x="42" y="508" on="1"/>
        <pt x="-3" y="508" on="0"/>
        <pt x="-27" y="540" on="1"/>
        <pt x="-44" y="562" on="0"/>
        <pt x="-44" y="590" on="1"/>
        <pt x="-44" y="634" on="0"/>
        <pt x="25" y="691" on="0"/>
        <pt x="97" y="696" on="1"/>
        <pt x="110" y="697" on="0"/>
        <pt x="181" y="700" on="1"/>
        <pt x="343" y="706" on="0"/>
        <pt x="416" y="720" on="1"/>
        <pt x="418" y="710" on="1"/>
        <pt x="375" y="703" on="0"/>
        <pt x="340" y="659" on="0"/>
        <pt x="339" y="616" on="1"/>
        <pt x="339" y="73" on="1"/>
        <pt x="340" y="47" on="0"/>
        <pt x="377" y="10" on="0"/>
      </contour>
    </TTGlyph>
    <TTGlyph name="Imacron" xMin="-45" yMin="-1" xMax="418" yMax="861">
      <contour>
        <pt x="129" y="795" on="1"/>
        <pt x="129" y="861" on="1"/>
        <pt x="403" y="861" on="1"/>
        <pt x="403" y="795" on="1"/>
      </contour>
      <contour>
        <pt x="403" y="10" on="1"/>
        <pt x="416" y="10" on="1"/>
        <pt x="416" y="0" on="1"/>
        <pt x="112" y="0" on="1"/>
        <pt x="112" y="10" on="1"/>
        <pt x="125" y="10" on="1"/>
        <pt x="151" y="10" on="0"/>
        <pt x="188" y="47" on="0"/>
        <pt x="189" y="73" on="1"/>
        <pt x="189" y="659" on="1"/>
        <pt x="94" y="655" on="1"/>
        <pt x="0" y="651" on="0"/>
        <pt x="0" y="585" on="1"/>
        <pt x="0" y="558" on="0"/>
        <pt x="37" y="521" on="0"/>
        <pt x="70" y="521" on="1"/>
        <pt x="73" y="521" on="0"/>
        <pt x="76" y="521" on="1"/>
        <pt x="76" y="515" on="1"/>
        <pt x="56" y="508" on="0"/>
        <pt x="42" y="508" on="1"/>
        <pt x="-3" y="508" on="0"/>
        <pt x="-27" y="540" on="1"/>
        <pt x="-44" y="562" on="0"/>
        <pt x="-44" y="590" on="1"/>
        <pt x="-44" y="634" on="0"/>
        <pt x="25" y="691" on="0"/>
        <pt x="97" y="696" on="1"/>
        <pt x="110" y="697" on="0"/>
        <pt x="181" y="700" on="1"/>
        <pt x="343" y="706" on="0"/>
        <pt x="416" y="720" on="1"/>
        <pt x="418" y="710" on="1"/>
        <pt x="375" y="703" on="0"/>
        <pt x="340" y="659" on="0"/>
        <pt x="339" y="616" on="1"/>
        <pt x="339" y="73" on="1"/>
        <pt x="340" y="47" on="0"/>
        <pt x="377" y="10" on="0"/>
      </contour>
    </TTGlyph>
    <TTGlyph name="Iogonek" xMin="-45" yMin="-202" xMax="418" yMax="721">
      <contour>
        <pt x="272" y="-139" on="1"/>
        <pt x="284" y="-143" on="0"/>
        <pt x="321" y="-143" on="0"/>
        <pt x="347" y="-121" on="1"/>
        <pt x="353" y="-127" on="1"/>
        <pt x="348" y="-160" on="0"/>
        <pt x="325" y="-180" on="1"/>
        <pt x="301" y="-201" on="0"/>
        <pt x="272" y="-201" on="1"/>
        <pt x="203" y="-201" on="0"/>
        <pt x="174" y="-155" on="1"/>
        <pt x="160" y="-131" on="0"/>
        <pt x="160" y="-102" on="1"/>
        <pt x="160" y="-69" on="0"/>
        <pt x="175" y="-47" on="1"/>
        <pt x="203" y="-9" on="0"/>
        <pt x="254" y="0" on="1"/>
        <pt x="112" y="0" on="1"/>
        <pt x="112" y="10" on="1"/>
        <pt x="125" y="10" on="1"/>
        <pt x="151" y="10" on="0"/>
        <pt x="188" y="47" on="0"/>
        <pt x="189" y="73" on="1"/>
        <pt x="189" y="659" on="1"/>
        <pt x="94" y="655" on="1"/>
        <pt x="0" y="651" on="0"/>
        <pt x="0" y="585" on="1"/>
        <pt x="0" y="558" on="0"/>
        <pt x="37" y="521" on="0"/>
        <pt x="70" y="521" on="1"/>
        <pt x="73" y="521" on="0"/>
        <pt x="76" y="521" on="1"/>
        <pt x="76" y="515" on="1"/>
        <pt x="56" y="508" on="0"/>
        <pt x="42" y="508" on="1"/>
        <pt x="-3" y="508" on="0"/>
        <pt x="-27" y="540" on="1"/>
        <pt x="-44" y="562" on="0"/>
        <pt x="-44" y="590" on="1"/>
        <pt x="-44" y="634" on="0"/>
        <pt x="25" y="691" on="0"/>
        <pt x="97" y="696" on="1"/>
        <pt x="110" y="697" on="0"/>
        <pt x="181" y="700" on="1"/>
        <pt x="343" y="706" on="0"/>
        <pt x="416" y="720" on="1"/>
        <pt x="418" y="710" on="1"/>
        <pt x="375" y="703" on="0"/>
        <pt x="340" y="659" on="0"/>
        <pt x="339" y="616" on="1"/>
        <pt x="339" y="73" on="1"/>
        <pt x="339" y="47" on="0"/>
        <pt x="377" y="10" on="0"/>
        <pt x="403" y="10" on="1"/>
        <pt x="416" y="10" on="1"/>
        <pt x="416" y="0" on="1"/>
        <pt x="296" y="0" on="1"/>
        <pt x="299" y="-1" on="1"/>
        <pt x="231" y="-17" on="0"/>
        <pt x="231" y="-123" on="0"/>
      </contour>
    </TTGlyph>
    <TTGlyph name="J" xMin="-79" yMin="-198" xMax="349" yMax="701">
      <contour>
        <pt x="336" y="690" on="1"/>
        <pt x="300" y="690" on="0"/>
        <pt x="281" y="659" on="1"/>
        <pt x="272" y="645" on="0"/>
        <pt x="272" y="627" on="1"/>
        <pt x="272" y="80" on="1"/>
        <pt x="272" y="-55" on="0"/>
        <pt x="203" y="-130" on="1"/>
        <pt x="140" y="-198" on="0"/>
        <pt x="55" y="-198" on="1"/>
        <pt x="-11" y="-198" on="0"/>
        <pt x="-79" y="-161" on="1"/>
        <pt x="-76" y="-151" on="1"/>
        <pt x="-57" y="-155" on="0"/>
        <pt x="-40" y="-155" on="1"/>
        <pt x="1" y="-155" on="0"/>
        <pt x="33" y="-134" on="1"/>
        <pt x="122" y="-78" on="0"/>
        <pt x="122" y="83" on="1"/>
        <pt x="122" y="627" on="1"/>
        <pt x="121" y="664" on="0"/>
        <pt x="90" y="682" on="1"/>
        <pt x="75" y="690" on="0"/>
        <pt x="58" y="690" on="1"/>
        <pt x="45" y="690" on="1"/>
        <pt x="45" y="700" on="1"/>
        <pt x="349" y="700" on="1"/>
        <pt x="349" y="690" on="1"/>
      </contour>
    </TTGlyph>
    <TTGlyph name="K" xMin="41" yMin="-208" xMax="1048" yMax="701">
      <contour>
        <pt x="55" y="10" on="1"/>
        <pt x="81" y="10" on="0"/>
        <pt x="118" y="47" on="0"/>
        <pt x="119" y="73" on="1"/>
        <pt x="119" y="628" on="1"/>
        <pt x="118" y="664" on="0"/>
        <pt x="86" y="682" on="1"/>
        <pt x="72" y="690" on="0"/>
        <pt x="55" y="690" on="1"/>
        <pt x="42" y="690" on="1"/>
        <pt x="42" y="700" on="1"/>
        <pt x="346" y="700" on="1"/>
        <pt x="345" y="690" on="1"/>
        <pt x="333" y="690" on="1"/>
        <pt x="307" y="690" on="0"/>
        <pt x="269" y="654" on="0"/>
        <pt x="269" y="628" on="1"/>
        <pt x="269" y="73" on="1"/>
        <pt x="269" y="47" on="0"/>
        <pt x="307" y="10" on="0"/>
        <pt x="333" y="10" on="1"/>
        <pt x="345" y="10" on="1"/>
        <pt x="346" y="0" on="1"/>
        <pt x="42" y="0" on="1"/>
        <pt x="42" y="10" on="1"/>
      </contour>
      <contour>
        <pt x="1048" y="-170" on="1"/>
        <pt x="975" y="-208" on="0"/>
        <pt x="855" y="-208" on="0"/>
        <pt x="807" y="-191" on="1"/>
        <pt x="688" y="-148" on="0"/>
        <pt x="564" y="6" on="1"/>
        <pt x="301" y="330" on="1"/>
        <pt x="538" y="644" on="1"/>
        <pt x="546" y="654" on="0"/>
        <pt x="546" y="670" on="0"/>
        <pt x="543" y="676" on="1"/>
        <pt x="535" y="691" on="0"/>
        <pt x="515" y="691" on="1"/>
        <pt x="505" y="691" on="1"/>
        <pt x="505" y="700" on="1"/>
        <pt x="734" y="700" on="1"/>
        <pt x="734" y="691" on="1"/>
        <pt x="730" y="691" on="1"/>
        <pt x="663" y="691" on="0"/>
        <pt x="621" y="643" on="1"/>
        <pt x="426" y="411" on="1"/>
        <pt x="698" y="73" on="1"/>
        <pt x="789" y="-47" on="0"/>
        <pt x="949" y="-155" on="0"/>
        <pt x="1047" y="-160" on="1"/>
      </contour>
    </TTGlyph>
    <TTGlyph name="Kcommaaccent" xMin="41" yMin="-209" xMax="1048" yMax="701">
      <contour>
        <pt x="55" y="10" on="1"/>
        <pt x="81" y="10" on="0"/>
        <pt x="118" y="47" on="0"/>
        <pt x="119" y="73" on="1"/>
        <pt x="119" y="628" on="1"/>
        <pt x="118" y="664" on="0"/>
        <pt x="86" y="682" on="1"/>
        <pt x="72" y="690" on="0"/>
        <pt x="55" y="690" on="1"/>
        <pt x="42" y="690" on="1"/>
        <pt x="42" y="700" on="1"/>
        <pt x="346" y="700" on="1"/>
        <pt x="345" y="690" on="1"/>
        <pt x="333" y="690" on="1"/>
        <pt x="307" y="690" on="0"/>
        <pt x="269" y="654" on="0"/>
        <pt x="269" y="628" on="1"/>
        <pt x="269" y="73" on="1"/>
        <pt x="269" y="47" on="0"/>
        <pt x="307" y="10" on="0"/>
        <pt x="333" y="10" on="1"/>
        <pt x="345" y="10" on="1"/>
        <pt x="346" y="0" on="1"/>
        <pt x="42" y="0" on="1"/>
        <pt x="42" y="10" on="1"/>
      </contour>
      <contour>
        <pt x="1048" y="-170" on="1"/>
        <pt x="975" y="-208" on="0"/>
        <pt x="855" y="-208" on="0"/>
        <pt x="807" y="-191" on="1"/>
        <pt x="688" y="-148" on="0"/>
        <pt x="564" y="6" on="1"/>
        <pt x="301" y="330" on="1"/>
        <pt x="538" y="644" on="1"/>
        <pt x="546" y="654" on="0"/>
        <pt x="546" y="670" on="0"/>
        <pt x="543" y="676" on="1"/>
        <pt x="535" y="691" on="0"/>
        <pt x="515" y="691" on="1"/>
        <pt x="505" y="691" on="1"/>
        <pt x="505" y="700" on="1"/>
        <pt x="734" y="700" on="1"/>
        <pt x="734" y="691" on="1"/>
        <pt x="730" y="691" on="1"/>
        <pt x="663" y="691" on="0"/>
        <pt x="621" y="643" on="1"/>
        <pt x="426" y="411" on="1"/>
        <pt x="698" y="73" on="1"/>
        <pt x="789" y="-47" on="0"/>
        <pt x="949" y="-155" on="0"/>
        <pt x="1047" y="-160" on="1"/>
      </contour>
      <contour>
        <pt x="388" y="-200" on="1"/>
        <pt x="422" y="-188" on="0"/>
        <pt x="422" y="-155" on="1"/>
        <pt x="422" y="-136" on="0"/>
        <pt x="389" y="-97" on="0"/>
        <pt x="389" y="-53" on="0"/>
        <pt x="416" y="-25" on="0"/>
        <pt x="429" y="-25" on="1"/>
        <pt x="474" y="-25" on="0"/>
        <pt x="489" y="-60" on="1"/>
        <pt x="498" y="-84" on="0"/>
        <pt x="498" y="-102" on="1"/>
        <pt x="498" y="-159" on="0"/>
        <pt x="455" y="-191" on="1"/>
        <pt x="431" y="-209" on="0"/>
        <pt x="403" y="-209" on="1"/>
        <pt x="397" y="-209" on="0"/>
        <pt x="390" y="-208" on="1"/>
      </contour>
    </TTGlyph>
    <TTGlyph name="L" xMin="41" yMin="-242" xMax="1029" yMax="700">
      <contour>
        <pt x="854" y="-139" on="1"/>
        <pt x="958" y="-139" on="0"/>
        <pt x="1022" y="-98" on="1"/>
        <pt x="1029" y="-106" on="1"/>
        <pt x="943" y="-225" on="0"/>
        <pt x="815" y="-238" on="1"/>
        <pt x="788" y="-241" on="0"/>
        <pt x="749" y="-241" on="0"/>
        <pt x="698" y="-238" on="0"/>
        <pt x="606" y="-214" on="0"/>
        <pt x="536" y="-189" on="0"/>
        <pt x="444" y="-148" on="0"/>
        <pt x="384" y="-117" on="0"/>
        <pt x="301" y="-74" on="0"/>
        <pt x="239" y="-44" on="0"/>
        <pt x="210" y="-33" on="1"/>
        <pt x="128" y="0" on="0"/>
        <pt x="42" y="0" on="1"/>
        <pt x="42" y="10" on="1"/>
        <pt x="55" y="10" on="1"/>
        <pt x="81" y="10" on="0"/>
        <pt x="118" y="46" on="0"/>
        <pt x="119" y="73" on="1"/>
        <pt x="119" y="627" on="1"/>
        <pt x="118" y="654" on="0"/>
        <pt x="81" y="690" on="0"/>
        <pt x="55" y="690" on="1"/>
        <pt x="42" y="690" on="1"/>
        <pt x="42" y="700" on="1"/>
        <pt x="346" y="700" on="1"/>
        <pt x="345" y="690" on="1"/>
        <pt x="335" y="690" on="1"/>
        <pt x="297" y="690" on="0"/>
        <pt x="278" y="659" on="1"/>
        <pt x="269" y="645" on="0"/>
        <pt x="269" y="627" on="1"/>
        <pt x="269" y="47" on="1"/>
        <pt x="269" y="14" on="0"/>
        <pt x="295" y="-11" on="0"/>
        <pt x="311" y="-16" on="1"/>
        <pt x="687" y="-139" on="0"/>
      </contour>
    </TTGlyph>
    <TTGlyph name="Lacute" xMin="41" yMin="-242" xMax="1029" yMax="934">
      <contour>
        <pt x="184" y="762" on="1"/>
        <pt x="177" y="769" on="1"/>
        <pt x="220" y="843" on="0"/>
        <pt x="321" y="933" on="1"/>
        <pt x="369" y="908" on="0"/>
        <pt x="388" y="852" on="1"/>
        <pt x="286" y="787" on="0"/>
      </contour>
      <contour>
        <pt x="854" y="-139" on="1"/>
        <pt x="958" y="-139" on="0"/>
        <pt x="1022" y="-98" on="1"/>
        <pt x="1029" y="-106" on="1"/>
        <pt x="992" y="-158" on="0"/>
        <pt x="896" y="-220" on="0"/>
        <pt x="821" y="-242" on="0"/>
        <pt x="766" y="-242" on="0"/>
        <pt x="689" y="-234" on="0"/>
        <pt x="604" y="-215" on="0"/>
        <pt x="540" y="-189" on="1"/>
        <pt x="459" y="-156" on="0"/>
        <pt x="333" y="-91" on="0"/>
        <pt x="324" y="-86" on="1"/>
        <pt x="254" y="-51" on="0"/>
        <pt x="217" y="-36" on="1"/>
        <pt x="128" y="0" on="0"/>
        <pt x="42" y="0" on="1"/>
        <pt x="42" y="10" on="1"/>
        <pt x="55" y="10" on="1"/>
        <pt x="91" y="10" on="0"/>
        <pt x="109" y="41" on="1"/>
        <pt x="118" y="55" on="0"/>
        <pt x="119" y="73" on="1"/>
        <pt x="119" y="627" on="1"/>
        <pt x="118" y="654" on="0"/>
        <pt x="81" y="690" on="0"/>
        <pt x="55" y="690" on="1"/>
        <pt x="42" y="690" on="1"/>
        <pt x="42" y="700" on="1"/>
        <pt x="346" y="700" on="1"/>
        <pt x="345" y="690" on="1"/>
        <pt x="335" y="690" on="1"/>
        <pt x="307" y="690" on="0"/>
        <pt x="269" y="654" on="0"/>
        <pt x="269" y="627" on="1"/>
        <pt x="269" y="47" on="1"/>
        <pt x="269" y="14" on="0"/>
        <pt x="295" y="-11" on="0"/>
        <pt x="311" y="-16" on="1"/>
        <pt x="687" y="-139" on="0"/>
      </contour>
    </TTGlyph>
    <TTGlyph name="Lcaron" xMin="41" yMin="-231" xMax="1029" yMax="708">
      <contour>
        <pt x="404" y="532" on="1"/>
        <pt x="438" y="545" on="0"/>
        <pt x="438" y="578" on="1"/>
        <pt x="438" y="597" on="0"/>
        <pt x="406" y="635" on="0"/>
        <pt x="406" y="680" on="0"/>
        <pt x="432" y="707" on="0"/>
        <pt x="445" y="707" on="1"/>
        <pt x="490" y="707" on="0"/>
        <pt x="505" y="673" on="1"/>
        <pt x="514" y="649" on="0"/>
        <pt x="514" y="631" on="1"/>
        <pt x="514" y="573" on="0"/>
        <pt x="472" y="542" on="1"/>
        <pt x="447" y="524" on="0"/>
        <pt x="419" y="524" on="1"/>
        <pt x="413" y="524" on="0"/>
        <pt x="407" y="524" on="1"/>
      </contour>
      <contour>
        <pt x="894" y="-210" on="1"/>
        <pt x="859" y="-224" on="0"/>
        <pt x="795" y="-230" on="0"/>
        <pt x="758" y="-230" on="0"/>
        <pt x="709" y="-227" on="0"/>
        <pt x="624" y="-205" on="0"/>
        <pt x="554" y="-180" on="0"/>
        <pt x="468" y="-142" on="0"/>
        <pt x="435" y="-126" on="1"/>
        <pt x="336" y="-77" on="0"/>
        <pt x="290" y="-56" on="1"/>
        <pt x="168" y="0" on="0"/>
        <pt x="42" y="0" on="1"/>
        <pt x="42" y="10" on="1"/>
        <pt x="55" y="10" on="1"/>
        <pt x="81" y="10" on="0"/>
        <pt x="94" y="23" on="1"/>
        <pt x="118" y="46" on="0"/>
        <pt x="119" y="73" on="1"/>
        <pt x="119" y="627" on="1"/>
        <pt x="118" y="654" on="0"/>
        <pt x="81" y="690" on="0"/>
        <pt x="55" y="690" on="1"/>
        <pt x="42" y="690" on="1"/>
        <pt x="42" y="700" on="1"/>
        <pt x="346" y="700" on="1"/>
        <pt x="345" y="690" on="1"/>
        <pt x="333" y="690" on="1"/>
        <pt x="306" y="690" on="0"/>
        <pt x="269" y="654" on="0"/>
        <pt x="269" y="627" on="1"/>
        <pt x="269" y="53" on="1"/>
        <pt x="269" y="23" on="0"/>
        <pt x="285" y="-8" on="0"/>
        <pt x="311" y="-16" on="1"/>
        <pt x="540" y="-93" on="0"/>
        <pt x="715" y="-136" on="0"/>
        <pt x="783" y="-144" on="0"/>
        <pt x="828" y="-144" on="0"/>
        <pt x="861" y="-141" on="1"/>
        <pt x="919" y="-137" on="0"/>
        <pt x="1022" y="-98" on="1"/>
        <pt x="1029" y="-106" on="1"/>
        <pt x="969" y="-179" on="0"/>
      </contour>
    </TTGlyph>
    <TTGlyph name="Lcommaaccent" xMin="41" yMin="-296" xMax="1029" yMax="700">
      <contour>
        <pt x="854" y="-139" on="1"/>
        <pt x="958" y="-139" on="0"/>
        <pt x="1022" y="-98" on="1"/>
        <pt x="1029" y="-106" on="1"/>
        <pt x="943" y="-225" on="0"/>
        <pt x="815" y="-238" on="1"/>
        <pt x="788" y="-241" on="0"/>
        <pt x="749" y="-241" on="0"/>
        <pt x="698" y="-238" on="0"/>
        <pt x="606" y="-214" on="0"/>
        <pt x="536" y="-189" on="0"/>
        <pt x="444" y="-148" on="0"/>
        <pt x="384" y="-117" on="0"/>
        <pt x="301" y="-74" on="0"/>
        <pt x="239" y="-44" on="0"/>
        <pt x="210" y="-33" on="1"/>
        <pt x="128" y="0" on="0"/>
        <pt x="42" y="0" on="1"/>
        <pt x="42" y="10" on="1"/>
        <pt x="55" y="10" on="1"/>
        <pt x="81" y="10" on="0"/>
        <pt x="118" y="46" on="0"/>
        <pt x="119" y="73" on="1"/>
        <pt x="119" y="627" on="1"/>
        <pt x="118" y="654" on="0"/>
        <pt x="81" y="690" on="0"/>
        <pt x="55" y="690" on="1"/>
        <pt x="42" y="690" on="1"/>
        <pt x="42" y="700" on="1"/>
        <pt x="346" y="700" on="1"/>
        <pt x="345" y="690" on="1"/>
        <pt x="335" y="690" on="1"/>
        <pt x="297" y="690" on="0"/>
        <pt x="278" y="659" on="1"/>
        <pt x="269" y="645" on="0"/>
        <pt x="269" y="627" on="1"/>
        <pt x="269" y="47" on="1"/>
        <pt x="269" y="14" on="0"/>
        <pt x="295" y="-11" on="0"/>
        <pt x="311" y="-16" on="1"/>
        <pt x="687" y="-139" on="0"/>
      </contour>
      <contour>
        <pt x="208" y="-287" on="1"/>
        <pt x="242" y="-275" on="0"/>
        <pt x="242" y="-242" on="1"/>
        <pt x="242" y="-223" on="0"/>
        <pt x="210" y="-184" on="0"/>
        <pt x="210" y="-140" on="0"/>
        <pt x="236" y="-113" on="0"/>
        <pt x="249" y="-113" on="1"/>
        <pt x="294" y="-113" on="0"/>
        <pt x="309" y="-147" on="1"/>
        <pt x="318" y="-171" on="0"/>
        <pt x="318" y="-189" on="1"/>
        <pt x="318" y="-246" on="0"/>
        <pt x="276" y="-278" on="1"/>
        <pt x="251" y="-296" on="0"/>
        <pt x="223" y="-296" on="1"/>
        <pt x="217" y="-296" on="0"/>
        <pt x="211" y="-295" on="1"/>
      </contour>
    </TTGlyph>
    <TTGlyph name="Ldot" xMin="41" yMin="-231" xMax="1029" yMax="701">
      <contour>
        <pt x="894" y="-210" on="1"/>
        <pt x="859" y="-224" on="0"/>
        <pt x="795" y="-230" on="0"/>
        <pt x="758" y="-230" on="0"/>
        <pt x="709" y="-227" on="0"/>
        <pt x="624" y="-205" on="0"/>
        <pt x="554" y="-180" on="0"/>
        <pt x="468" y="-142" on="0"/>
        <pt x="435" y="-126" on="1"/>
        <pt x="336" y="-77" on="0"/>
        <pt x="290" y="-56" on="1"/>
        <pt x="168" y="0" on="0"/>
        <pt x="42" y="0" on="1"/>
        <pt x="42" y="10" on="1"/>
        <pt x="55" y="10" on="1"/>
        <pt x="81" y="10" on="0"/>
        <pt x="118" y="47" on="0"/>
        <pt x="119" y="73" on="1"/>
        <pt x="119" y="627" on="1"/>
        <pt x="118" y="654" on="0"/>
        <pt x="81" y="690" on="0"/>
        <pt x="55" y="690" on="1"/>
        <pt x="42" y="690" on="1"/>
        <pt x="42" y="700" on="1"/>
        <pt x="346" y="700" on="1"/>
        <pt x="345" y="690" on="1"/>
        <pt x="333" y="690" on="1"/>
        <pt x="306" y="690" on="0"/>
        <pt x="269" y="654" on="0"/>
        <pt x="269" y="627" on="1"/>
        <pt x="269" y="53" on="1"/>
        <pt x="269" y="23" on="0"/>
        <pt x="285" y="-8" on="0"/>
        <pt x="311" y="-16" on="1"/>
        <pt x="540" y="-93" on="0"/>
        <pt x="715" y="-136" on="0"/>
        <pt x="783" y="-144" on="0"/>
        <pt x="828" y="-144" on="0"/>
        <pt x="861" y="-141" on="1"/>
        <pt x="919" y="-137" on="0"/>
        <pt x="1022" y="-98" on="1"/>
        <pt x="1029" y="-106" on="1"/>
        <pt x="969" y="-179" on="0"/>
      </contour>
      <contour>
        <pt x="442" y="357" on="0"/>
        <pt x="390" y="357" on="0"/>
        <pt x="354" y="394" on="0"/>
        <pt x="354" y="445" on="0"/>
        <pt x="390" y="482" on="0"/>
        <pt x="442" y="482" on="0"/>
        <pt x="478" y="445" on="0"/>
        <pt x="478" y="394" on="0"/>
      </contour>
    </TTGlyph>
    <TTGlyph name="Lslash" xMin="41" yMin="-231" xMax="1037" yMax="701">
      <contour>
        <pt x="999" y="-152" on="0"/>
        <pt x="909" y="-208" on="0"/>
        <pt x="838" y="-231" on="0"/>
        <pt x="787" y="-231" on="0"/>
        <pt x="720" y="-226" on="0"/>
        <pt x="644" y="-211" on="0"/>
        <pt x="584" y="-187" on="1"/>
        <pt x="508" y="-158" on="0"/>
        <pt x="330" y="-70" on="0"/>
        <pt x="297" y="-56" on="1"/>
        <pt x="175" y="0" on="0"/>
        <pt x="49" y="0" on="1"/>
        <pt x="49" y="10" on="1"/>
        <pt x="62" y="10" on="1"/>
        <pt x="88" y="10" on="0"/>
        <pt x="126" y="47" on="0"/>
        <pt x="126" y="73" on="1"/>
        <pt x="126" y="272" on="1"/>
        <pt x="63" y="236" on="1"/>
        <pt x="42" y="274" on="1"/>
        <pt x="126" y="323" on="1"/>
        <pt x="126" y="627" on="1"/>
        <pt x="126" y="654" on="0"/>
        <pt x="88" y="690" on="0"/>
        <pt x="62" y="690" on="1"/>
        <pt x="49" y="690" on="1"/>
        <pt x="49" y="700" on="1"/>
        <pt x="353" y="700" on="1"/>
        <pt x="353" y="690" on="1"/>
        <pt x="340" y="690" on="1"/>
        <pt x="314" y="690" on="0"/>
        <pt x="277" y="654" on="0"/>
        <pt x="276" y="627" on="1"/>
        <pt x="276" y="409" on="1"/>
        <pt x="389" y="474" on="1"/>
        <pt x="410" y="436" on="1"/>
        <pt x="276" y="359" on="1"/>
        <pt x="276" y="53" on="1"/>
        <pt x="276" y="23" on="0"/>
        <pt x="292" y="-8" on="0"/>
        <pt x="318" y="-16" on="1"/>
        <pt x="548" y="-93" on="0"/>
        <pt x="722" y="-136" on="0"/>
        <pt x="790" y="-144" on="0"/>
        <pt x="836" y="-144" on="0"/>
        <pt x="869" y="-141" on="1"/>
        <pt x="926" y="-137" on="0"/>
        <pt x="1030" y="-98" on="1"/>
        <pt x="1036" y="-106" on="1"/>
      </contour>
    </TTGlyph>
    <TTGlyph name="M" xMin="-96" yMin="-196" xMax="1162" yMax="791">
      <contour>
        <pt x="-96" y="766" on="1"/>
        <pt x="-39" y="790" on="0"/>
        <pt x="45" y="790" on="0"/>
        <pt x="109" y="774" on="0"/>
        <pt x="176" y="737" on="0"/>
        <pt x="205" y="710" on="1"/>
        <pt x="261" y="657" on="0"/>
        <pt x="300" y="590" on="1"/>
        <pt x="500" y="215" on="1"/>
        <pt x="790" y="714" on="1"/>
        <pt x="799" y="714" on="1"/>
        <pt x="903" y="126" on="1"/>
        <pt x="927" y="-10" on="0"/>
        <pt x="986" y="-90" on="1"/>
        <pt x="1045" y="-171" on="0"/>
        <pt x="1148" y="-171" on="1"/>
        <pt x="1155" y="-171" on="0"/>
        <pt x="1161" y="-171" on="1"/>
        <pt x="1161" y="-181" on="1"/>
        <pt x="1106" y="-196" on="0"/>
        <pt x="1053" y="-196" on="1"/>
        <pt x="945" y="-196" on="0"/>
        <pt x="856" y="-111" on="1"/>
        <pt x="770" y="-30" on="0"/>
        <pt x="739" y="126" on="1"/>
        <pt x="690" y="417" on="1"/>
        <pt x="502" y="91" on="1"/>
        <pt x="464" y="28" on="0"/>
        <pt x="463" y="-20" on="1"/>
        <pt x="454" y="-20" on="1"/>
        <pt x="205" y="452" on="1"/>
        <pt x="156" y="52" on="1"/>
        <pt x="153" y="29" on="0"/>
        <pt x="176" y="15" on="1"/>
        <pt x="185" y="9" on="0"/>
        <pt x="195" y="9" on="1"/>
        <pt x="211" y="9" on="1"/>
        <pt x="211" y="0" on="1"/>
        <pt x="2" y="0" on="1"/>
        <pt x="2" y="10" on="1"/>
        <pt x="18" y="10" on="1"/>
        <pt x="44" y="10" on="0"/>
        <pt x="85" y="41" on="0"/>
        <pt x="90" y="68" on="1"/>
        <pt x="158" y="545" on="1"/>
        <pt x="113" y="625" on="0"/>
        <pt x="55" y="687" on="1"/>
        <pt x="-10" y="757" on="0"/>
        <pt x="-81" y="757" on="1"/>
        <pt x="-88" y="757" on="0"/>
        <pt x="-94" y="756" on="1"/>
      </contour>
    </TTGlyph>
    <TTGlyph name="N" xMin="-215" yMin="-170" xMax="1107" yMax="838">
      <contour>
        <pt x="950" y="-114" on="0"/>
        <pt x="992" y="-131" on="0"/>
        <pt x="1031" y="-138" on="0"/>
        <pt x="1078" y="-138" on="0"/>
        <pt x="1103" y="-132" on="1"/>
        <pt x="1107" y="-142" on="1"/>
        <pt x="1051" y="-169" on="0"/>
        <pt x="994" y="-169" on="1"/>
        <pt x="863" y="-169" on="0"/>
        <pt x="727" y="-24" on="1"/>
        <pt x="253" y="479" on="1"/>
        <pt x="253" y="70" on="1"/>
        <pt x="253" y="45" on="0"/>
        <pt x="289" y="10" on="0"/>
        <pt x="314" y="10" on="1"/>
        <pt x="333" y="10" on="1"/>
        <pt x="333" y="0" on="1"/>
        <pt x="30" y="0" on="1"/>
        <pt x="30" y="10" on="1"/>
        <pt x="48" y="10" on="1"/>
        <pt x="74" y="10" on="0"/>
        <pt x="110" y="45" on="0"/>
        <pt x="110" y="71" on="1"/>
        <pt x="110" y="632" on="1"/>
        <pt x="61" y="688" on="0"/>
        <pt x="11" y="733" on="0"/>
        <pt x="-28" y="763" on="0"/>
        <pt x="-46" y="773" on="1"/>
        <pt x="-88" y="797" on="0"/>
        <pt x="-139" y="805" on="0"/>
        <pt x="-184" y="805" on="0"/>
        <pt x="-210" y="796" on="1"/>
        <pt x="-214" y="806" on="1"/>
        <pt x="-159" y="838" on="0"/>
        <pt x="-101" y="838" on="1"/>
        <pt x="25" y="838" on="0"/>
        <pt x="166" y="688" on="1"/>
        <pt x="613" y="213" on="1"/>
        <pt x="613" y="629" on="1"/>
        <pt x="612" y="655" on="0"/>
        <pt x="576" y="690" on="0"/>
        <pt x="551" y="690" on="1"/>
        <pt x="533" y="690" on="1"/>
        <pt x="533" y="700" on="1"/>
        <pt x="836" y="700" on="1"/>
        <pt x="836" y="690" on="1"/>
        <pt x="817" y="690" on="1"/>
        <pt x="792" y="690" on="0"/>
        <pt x="756" y="655" on="0"/>
        <pt x="755" y="630" on="1"/>
        <pt x="755" y="61" on="1"/>
        <pt x="771" y="45" on="1"/>
        <pt x="777" y="39" on="0"/>
        <pt x="802" y="10" on="0"/>
        <pt x="822" y="-11" on="0"/>
        <pt x="853" y="-43" on="0"/>
        <pt x="880" y="-67" on="0"/>
        <pt x="917" y="-95" on="0"/>
      </contour>
    </TTGlyph>
    <TTGlyph name="Nacute" xMin="-215" yMin="-170" xMax="1107" yMax="934">
      <contour>
        <pt x="401" y="762" on="1"/>
        <pt x="394" y="769" on="1"/>
        <pt x="437" y="843" on="0"/>
        <pt x="538" y="933" on="1"/>
        <pt x="586" y="908" on="0"/>
        <pt x="606" y="852" on="1"/>
        <pt x="503" y="787" on="0"/>
      </contour>
      <contour>
        <pt x="950" y="-114" on="0"/>
        <pt x="992" y="-131" on="0"/>
        <pt x="1031" y="-138" on="0"/>
        <pt x="1078" y="-138" on="0"/>
        <pt x="1103" y="-132" on="1"/>
        <pt x="1107" y="-142" on="1"/>
        <pt x="1051" y="-169" on="0"/>
        <pt x="994" y="-169" on="1"/>
        <pt x="863" y="-169" on="0"/>
        <pt x="727" y="-24" on="1"/>
        <pt x="253" y="479" on="1"/>
        <pt x="253" y="70" on="1"/>
        <pt x="253" y="45" on="0"/>
        <pt x="289" y="10" on="0"/>
        <pt x="314" y="10" on="1"/>
        <pt x="333" y="10" on="1"/>
        <pt x="333" y="0" on="1"/>
        <pt x="30" y="0" on="1"/>
        <pt x="30" y="10" on="1"/>
        <pt x="48" y="10" on="1"/>
        <pt x="74" y="10" on="0"/>
        <pt x="110" y="45" on="0"/>
        <pt x="110" y="71" on="1"/>
        <pt x="110" y="632" on="1"/>
        <pt x="61" y="688" on="0"/>
        <pt x="11" y="733" on="0"/>
        <pt x="-28" y="763" on="0"/>
        <pt x="-46" y="773" on="1"/>
        <pt x="-88" y="797" on="0"/>
        <pt x="-139" y="805" on="0"/>
        <pt x="-184" y="805" on="0"/>
        <pt x="-210" y="796" on="1"/>
        <pt x="-214" y="806" on="1"/>
        <pt x="-159" y="838" on="0"/>
        <pt x="-101" y="838" on="1"/>
        <pt x="25" y="838" on="0"/>
        <pt x="166" y="688" on="1"/>
        <pt x="613" y="213" on="1"/>
        <pt x="613" y="629" on="1"/>
        <pt x="612" y="655" on="0"/>
        <pt x="576" y="690" on="0"/>
        <pt x="551" y="690" on="1"/>
        <pt x="533" y="690" on="1"/>
        <pt x="533" y="700" on="1"/>
        <pt x="836" y="700" on="1"/>
        <pt x="836" y="690" on="1"/>
        <pt x="817" y="690" on="1"/>
        <pt x="792" y="690" on="0"/>
        <pt x="756" y="655" on="0"/>
        <pt x="755" y="630" on="1"/>
        <pt x="755" y="61" on="1"/>
        <pt x="771" y="45" on="1"/>
        <pt x="777" y="39" on="0"/>
        <pt x="802" y="10" on="0"/>
        <pt x="822" y="-11" on="0"/>
        <pt x="853" y="-43" on="0"/>
        <pt x="880" y="-67" on="0"/>
        <pt x="917" y="-95" on="0"/>
      </contour>
    </TTGlyph>
    <TTGlyph name="Ncaron" xMin="-215" yMin="-170" xMax="1107" yMax="926">
      <contour>
        <pt x="417" y="764" on="1"/>
        <pt x="406" y="764" on="1"/>
        <pt x="259" y="917" on="1"/>
        <pt x="265" y="925" on="1"/>
        <pt x="412" y="860" on="1"/>
        <pt x="549" y="925" on="1"/>
        <pt x="556" y="917" on="1"/>
      </contour>
      <contour>
        <pt x="950" y="-114" on="0"/>
        <pt x="992" y="-131" on="0"/>
        <pt x="1031" y="-138" on="0"/>
        <pt x="1078" y="-138" on="0"/>
        <pt x="1103" y="-132" on="1"/>
        <pt x="1107" y="-142" on="1"/>
        <pt x="1051" y="-169" on="0"/>
        <pt x="994" y="-169" on="1"/>
        <pt x="863" y="-169" on="0"/>
        <pt x="727" y="-24" on="1"/>
        <pt x="253" y="479" on="1"/>
        <pt x="253" y="70" on="1"/>
        <pt x="253" y="45" on="0"/>
        <pt x="289" y="10" on="0"/>
        <pt x="314" y="10" on="1"/>
        <pt x="333" y="10" on="1"/>
        <pt x="333" y="0" on="1"/>
        <pt x="30" y="0" on="1"/>
        <pt x="30" y="10" on="1"/>
        <pt x="48" y="10" on="1"/>
        <pt x="74" y="10" on="0"/>
        <pt x="110" y="45" on="0"/>
        <pt x="110" y="71" on="1"/>
        <pt x="110" y="632" on="1"/>
        <pt x="61" y="688" on="0"/>
        <pt x="10" y="733" on="0"/>
        <pt x="-28" y="763" on="0"/>
        <pt x="-46" y="773" on="1"/>
        <pt x="-89" y="797" on="0"/>
        <pt x="-139" y="805" on="0"/>
        <pt x="-184" y="805" on="0"/>
        <pt x="-210" y="796" on="1"/>
        <pt x="-214" y="806" on="1"/>
        <pt x="-159" y="838" on="0"/>
        <pt x="-101" y="838" on="1"/>
        <pt x="25" y="838" on="0"/>
        <pt x="166" y="688" on="1"/>
        <pt x="613" y="213" on="1"/>
        <pt x="613" y="629" on="1"/>
        <pt x="612" y="655" on="0"/>
        <pt x="576" y="690" on="0"/>
        <pt x="551" y="690" on="1"/>
        <pt x="533" y="690" on="1"/>
        <pt x="533" y="700" on="1"/>
        <pt x="836" y="700" on="1"/>
        <pt x="836" y="690" on="1"/>
        <pt x="817" y="690" on="1"/>
        <pt x="792" y="690" on="0"/>
        <pt x="756" y="655" on="0"/>
        <pt x="755" y="630" on="1"/>
        <pt x="755" y="61" on="1"/>
        <pt x="771" y="45" on="1"/>
        <pt x="777" y="39" on="0"/>
        <pt x="802" y="10" on="0"/>
        <pt x="822" y="-11" on="0"/>
        <pt x="853" y="-43" on="0"/>
        <pt x="880" y="-67" on="0"/>
        <pt x="917" y="-95" on="0"/>
      </contour>
    </TTGlyph>
    <TTGlyph name="Ncommaaccent" xMin="-215" yMin="-248" xMax="1107" yMax="838">
      <contour>
        <pt x="950" y="-114" on="0"/>
        <pt x="992" y="-131" on="0"/>
        <pt x="1031" y="-138" on="0"/>
        <pt x="1078" y="-138" on="0"/>
        <pt x="1103" y="-132" on="1"/>
        <pt x="1107" y="-142" on="1"/>
        <pt x="1051" y="-169" on="0"/>
        <pt x="994" y="-169" on="1"/>
        <pt x="863" y="-169" on="0"/>
        <pt x="727" y="-24" on="1"/>
        <pt x="253" y="479" on="1"/>
        <pt x="253" y="70" on="1"/>
        <pt x="253" y="45" on="0"/>
        <pt x="289" y="10" on="0"/>
        <pt x="314" y="10" on="1"/>
        <pt x="333" y="10" on="1"/>
        <pt x="333" y="0" on="1"/>
        <pt x="30" y="0" on="1"/>
        <pt x="30" y="10" on="1"/>
        <pt x="48" y="10" on="1"/>
        <pt x="74" y="10" on="0"/>
        <pt x="110" y="45" on="0"/>
        <pt x="110" y="71" on="1"/>
        <pt x="110" y="632" on="1"/>
        <pt x="61" y="688" on="0"/>
        <pt x="11" y="733" on="0"/>
        <pt x="-28" y="763" on="0"/>
        <pt x="-46" y="773" on="1"/>
        <pt x="-88" y="797" on="0"/>
        <pt x="-139" y="805" on="0"/>
        <pt x="-184" y="805" on="0"/>
        <pt x="-210" y="796" on="1"/>
        <pt x="-214" y="806" on="1"/>
        <pt x="-159" y="838" on="0"/>
        <pt x="-101" y="838" on="1"/>
        <pt x="25" y="838" on="0"/>
        <pt x="166" y="688" on="1"/>
        <pt x="613" y="213" on="1"/>
        <pt x="613" y="629" on="1"/>
        <pt x="612" y="655" on="0"/>
        <pt x="576" y="690" on="0"/>
        <pt x="551" y="690" on="1"/>
        <pt x="533" y="690" on="1"/>
        <pt x="533" y="700" on="1"/>
        <pt x="836" y="700" on="1"/>
        <pt x="836" y="690" on="1"/>
        <pt x="817" y="690" on="1"/>
        <pt x="792" y="690" on="0"/>
        <pt x="756" y="655" on="0"/>
        <pt x="755" y="630" on="1"/>
        <pt x="755" y="61" on="1"/>
        <pt x="771" y="45" on="1"/>
        <pt x="777" y="39" on="0"/>
        <pt x="802" y="10" on="0"/>
        <pt x="822" y="-11" on="0"/>
        <pt x="853" y="-43" on="0"/>
        <pt x="880" y="-67" on="0"/>
        <pt x="917" y="-95" on="0"/>
      </contour>
      <contour>
        <pt x="428" y="-239" on="1"/>
        <pt x="463" y="-227" on="0"/>
        <pt x="463" y="-194" on="1"/>
        <pt x="463" y="-175" on="0"/>
        <pt x="430" y="-136" on="0"/>
        <pt x="430" y="-92" on="0"/>
        <pt x="457" y="-64" on="0"/>
        <pt x="469" y="-64" on="1"/>
        <pt x="514" y="-64" on="0"/>
        <pt x="529" y="-99" on="1"/>
        <pt x="538" y="-123" on="0"/>
        <pt x="538" y="-141" on="1"/>
        <pt x="538" y="-198" on="0"/>
        <pt x="496" y="-230" on="1"/>
        <pt x="472" y="-248" on="0"/>
        <pt x="444" y="-248" on="1"/>
        <pt x="437" y="-248" on="0"/>
        <pt x="431" y="-247" on="1"/>
      </contour>
    </TTGlyph>
    <TTGlyph name="Ntilde" xMin="-215" yMin="-170" xMax="1107" yMax="899">
      <contour>
        <pt x="579" y="889" on="1"/>
        <pt x="590" y="889" on="1"/>
        <pt x="593" y="878" on="0"/>
        <pt x="593" y="868" on="1"/>
        <pt x="593" y="837" on="0"/>
        <pt x="573" y="806" on="1"/>
        <pt x="546" y="764" on="0"/>
        <pt x="494" y="764" on="1"/>
        <pt x="465" y="764" on="0"/>
        <pt x="372" y="811" on="0"/>
        <pt x="344" y="815" on="0"/>
        <pt x="319" y="815" on="0"/>
        <pt x="280" y="787" on="0"/>
        <pt x="272" y="767" on="1"/>
        <pt x="260" y="767" on="1"/>
        <pt x="259" y="775" on="0"/>
        <pt x="259" y="782" on="1"/>
        <pt x="259" y="820" on="0"/>
        <pt x="307" y="899" on="0"/>
        <pt x="357" y="899" on="1"/>
        <pt x="384" y="899" on="0"/>
        <pt x="481" y="849" on="0"/>
        <pt x="519" y="849" on="1"/>
        <pt x="532" y="849" on="0"/>
        <pt x="572" y="873" on="0"/>
      </contour>
      <contour>
        <pt x="950" y="-114" on="0"/>
        <pt x="992" y="-131" on="0"/>
        <pt x="1031" y="-138" on="0"/>
        <pt x="1078" y="-138" on="0"/>
        <pt x="1103" y="-132" on="1"/>
        <pt x="1107" y="-142" on="1"/>
        <pt x="1051" y="-169" on="0"/>
        <pt x="994" y="-169" on="1"/>
        <pt x="863" y="-169" on="0"/>
        <pt x="727" y="-24" on="1"/>
        <pt x="253" y="479" on="1"/>
        <pt x="253" y="70" on="1"/>
        <pt x="253" y="45" on="0"/>
        <pt x="289" y="10" on="0"/>
        <pt x="314" y="10" on="1"/>
        <pt x="333" y="10" on="1"/>
        <pt x="333" y="0" on="1"/>
        <pt x="30" y="0" on="1"/>
        <pt x="30" y="10" on="1"/>
        <pt x="48" y="10" on="1"/>
        <pt x="74" y="10" on="0"/>
        <pt x="110" y="45" on="0"/>
        <pt x="110" y="71" on="1"/>
        <pt x="110" y="632" on="1"/>
        <pt x="51" y="700" on="0"/>
        <pt x="-5" y="745" on="0"/>
        <pt x="-27" y="761" on="1"/>
        <pt x="-64" y="787" on="0"/>
        <pt x="-134" y="806" on="0"/>
        <pt x="-182" y="806" on="0"/>
        <pt x="-210" y="796" on="1"/>
        <pt x="-214" y="806" on="1"/>
        <pt x="-159" y="838" on="0"/>
        <pt x="-101" y="838" on="1"/>
        <pt x="25" y="838" on="0"/>
        <pt x="166" y="688" on="1"/>
        <pt x="613" y="213" on="1"/>
        <pt x="613" y="629" on="1"/>
        <pt x="612" y="655" on="0"/>
        <pt x="576" y="690" on="0"/>
        <pt x="551" y="690" on="1"/>
        <pt x="533" y="690" on="1"/>
        <pt x="533" y="700" on="1"/>
        <pt x="836" y="700" on="1"/>
        <pt x="836" y="690" on="1"/>
        <pt x="817" y="690" on="1"/>
        <pt x="792" y="690" on="0"/>
        <pt x="756" y="655" on="0"/>
        <pt x="755" y="630" on="1"/>
        <pt x="755" y="61" on="1"/>
        <pt x="771" y="45" on="1"/>
        <pt x="777" y="39" on="0"/>
        <pt x="802" y="10" on="0"/>
        <pt x="822" y="-11" on="0"/>
        <pt x="853" y="-43" on="0"/>
        <pt x="880" y="-67" on="0"/>
        <pt x="917" y="-95" on="0"/>
      </contour>
    </TTGlyph>
    <TTGlyph name="O" xMin="29" yMin="-14" xMax="901" yMax="716">
      <contour>
        <pt x="332" y="447" on="1"/>
        <pt x="314" y="485" on="0"/>
        <pt x="314" y="554" on="0"/>
        <pt x="332" y="613" on="0"/>
        <pt x="374" y="670" on="0"/>
        <pt x="412" y="689" on="1"/>
        <pt x="464" y="716" on="0"/>
        <pt x="537" y="716" on="1"/>
        <pt x="633" y="716" on="0"/>
        <pt x="719" y="667" on="1"/>
        <pt x="832" y="603" on="0"/>
        <pt x="876" y="490" on="1"/>
        <pt x="901" y="428" on="0"/>
        <pt x="901" y="357" on="1"/>
        <pt x="901" y="190" on="0"/>
        <pt x="660" y="-14" on="0"/>
        <pt x="273" y="-14" on="0"/>
        <pt x="30" y="190" on="0"/>
        <pt x="30" y="356" on="1"/>
        <pt x="30" y="480" on="0"/>
        <pt x="171" y="663" on="0"/>
        <pt x="291" y="696" on="1"/>
        <pt x="297" y="687" on="1"/>
        <pt x="246" y="644" on="0"/>
        <pt x="194" y="478" on="0"/>
        <pt x="194" y="382" on="1"/>
        <pt x="194" y="220" on="0"/>
        <pt x="344" y="28" on="0"/>
        <pt x="587" y="28" on="0"/>
        <pt x="736" y="209" on="0"/>
        <pt x="736" y="358" on="1"/>
        <pt x="736" y="448" on="0"/>
        <pt x="681" y="593" on="0"/>
        <pt x="577" y="672" on="0"/>
        <pt x="513" y="672" on="1"/>
        <pt x="442" y="672" on="0"/>
        <pt x="398" y="635" on="1"/>
        <pt x="336" y="582" on="0"/>
        <pt x="336" y="500" on="1"/>
        <pt x="336" y="474" on="0"/>
        <pt x="343" y="447" on="1"/>
      </contour>
    </TTGlyph>
    <TTGlyph name="OE" xMin="20" yMin="-14" xMax="1051" yMax="719">
      <contour>
        <pt x="599" y="0" on="1"/>
        <pt x="556" y="0" on="0"/>
        <pt x="483" y="-9" on="0"/>
        <pt x="469" y="-11" on="1"/>
        <pt x="438" y="-14" on="0"/>
        <pt x="410" y="-14" on="1"/>
        <pt x="233" y="-14" on="0"/>
        <pt x="21" y="183" on="0"/>
        <pt x="21" y="519" on="0"/>
        <pt x="234" y="714" on="0"/>
        <pt x="417" y="714" on="1"/>
        <pt x="466" y="714" on="0"/>
        <pt x="567" y="700" on="0"/>
        <pt x="598" y="700" on="1"/>
        <pt x="809" y="700" on="1"/>
        <pt x="840" y="700" on="0"/>
        <pt x="913" y="712" on="0"/>
        <pt x="928" y="718" on="1"/>
        <pt x="928" y="543" on="1"/>
        <pt x="917" y="543" on="1"/>
        <pt x="917" y="555" on="1"/>
        <pt x="917" y="600" on="0"/>
        <pt x="864" y="655" on="0"/>
        <pt x="819" y="657" on="1"/>
        <pt x="688" y="657" on="1"/>
        <pt x="688" y="366" on="1"/>
        <pt x="829" y="366" on="1"/>
        <pt x="879" y="367" on="0"/>
        <pt x="903" y="409" on="1"/>
        <pt x="913" y="428" on="0"/>
        <pt x="913" y="452" on="1"/>
        <pt x="913" y="461" on="1"/>
        <pt x="923" y="461" on="1"/>
        <pt x="923" y="230" on="1"/>
        <pt x="913" y="230" on="1"/>
        <pt x="913" y="238" on="1"/>
        <pt x="914" y="275" on="0"/>
        <pt x="866" y="323" on="0"/>
        <pt x="830" y="324" on="1"/>
        <pt x="688" y="324" on="1"/>
        <pt x="688" y="43" on="1"/>
        <pt x="845" y="43" on="1"/>
        <pt x="918" y="43" on="0"/>
        <pt x="1016" y="127" on="0"/>
        <pt x="1040" y="204" on="1"/>
        <pt x="1050" y="204" on="1"/>
        <pt x="1004" y="0" on="1"/>
      </contour>
      <contour>
        <pt x="539" y="635" on="0"/>
        <pt x="468" y="672" on="0"/>
        <pt x="348" y="672" on="0"/>
        <pt x="240" y="597" on="0"/>
        <pt x="177" y="449" on="0"/>
        <pt x="177" y="251" on="0"/>
        <pt x="237" y="105" on="0"/>
        <pt x="347" y="28" on="0"/>
        <pt x="418" y="28" on="1"/>
        <pt x="467" y="28" on="0"/>
        <pt x="539" y="65" on="0"/>
        <pt x="539" y="88" on="1"/>
        <pt x="539" y="611" on="1"/>
      </contour>
    </TTGlyph>
    <TTGlyph name="Oacute" xMin="29" yMin="-14" xMax="901" yMax="942">
      <contour>
        <pt x="456" y="771" on="1"/>
        <pt x="449" y="778" on="1"/>
        <pt x="493" y="852" on="0"/>
        <pt x="593" y="942" on="1"/>
        <pt x="642" y="917" on="0"/>
        <pt x="661" y="861" on="1"/>
        <pt x="558" y="795" on="0"/>
      </contour>
      <contour>
        <pt x="332" y="447" on="1"/>
        <pt x="314" y="485" on="0"/>
        <pt x="314" y="554" on="0"/>
        <pt x="332" y="613" on="0"/>
        <pt x="374" y="670" on="0"/>
        <pt x="412" y="689" on="1"/>
        <pt x="464" y="716" on="0"/>
        <pt x="537" y="716" on="1"/>
        <pt x="633" y="716" on="0"/>
        <pt x="719" y="667" on="1"/>
        <pt x="832" y="603" on="0"/>
        <pt x="876" y="490" on="1"/>
        <pt x="901" y="429" on="0"/>
        <pt x="901" y="357" on="1"/>
        <pt x="901" y="190" on="0"/>
        <pt x="660" y="-14" on="0"/>
        <pt x="273" y="-14" on="0"/>
        <pt x="30" y="190" on="0"/>
        <pt x="30" y="356" on="1"/>
        <pt x="30" y="480" on="0"/>
        <pt x="171" y="663" on="0"/>
        <pt x="291" y="696" on="1"/>
        <pt x="297" y="687" on="1"/>
        <pt x="246" y="644" on="0"/>
        <pt x="194" y="478" on="0"/>
        <pt x="194" y="274" on="0"/>
        <pt x="263" y="113" on="0"/>
        <pt x="386" y="28" on="0"/>
        <pt x="466" y="28" on="1"/>
        <pt x="587" y="28" on="0"/>
        <pt x="736" y="209" on="0"/>
        <pt x="736" y="358" on="1"/>
        <pt x="736" y="448" on="0"/>
        <pt x="681" y="593" on="0"/>
        <pt x="577" y="672" on="0"/>
        <pt x="513" y="672" on="1"/>
        <pt x="442" y="672" on="0"/>
        <pt x="398" y="635" on="1"/>
        <pt x="336" y="582" on="0"/>
        <pt x="336" y="500" on="1"/>
        <pt x="336" y="474" on="0"/>
        <pt x="343" y="447" on="1"/>
      </contour>
    </TTGlyph>
    <TTGlyph name="Ocircumflex" xMin="29" yMin="-15" xMax="901" yMax="924">
      <contour>
        <pt x="460" y="924" on="1"/>
        <pt x="472" y="924" on="1"/>
        <pt x="625" y="770" on="1"/>
        <pt x="618" y="762" on="1"/>
        <pt x="465" y="828" on="1"/>
        <pt x="323" y="763" on="1"/>
        <pt x="316" y="771" on="1"/>
      </contour>
      <contour>
        <pt x="332" y="447" on="1"/>
        <pt x="314" y="485" on="0"/>
        <pt x="314" y="554" on="0"/>
        <pt x="332" y="613" on="0"/>
        <pt x="374" y="670" on="0"/>
        <pt x="412" y="689" on="1"/>
        <pt x="464" y="716" on="0"/>
        <pt x="537" y="716" on="1"/>
        <pt x="633" y="716" on="0"/>
        <pt x="719" y="667" on="1"/>
        <pt x="832" y="603" on="0"/>
        <pt x="876" y="490" on="1"/>
        <pt x="901" y="428" on="0"/>
        <pt x="901" y="357" on="1"/>
        <pt x="901" y="190" on="0"/>
        <pt x="660" y="-14" on="0"/>
        <pt x="273" y="-14" on="0"/>
        <pt x="30" y="190" on="0"/>
        <pt x="30" y="356" on="1"/>
        <pt x="30" y="480" on="0"/>
        <pt x="172" y="663" on="0"/>
        <pt x="291" y="696" on="1"/>
        <pt x="297" y="687" on="1"/>
        <pt x="246" y="644" on="0"/>
        <pt x="194" y="478" on="0"/>
        <pt x="194" y="382" on="1"/>
        <pt x="194" y="220" on="0"/>
        <pt x="344" y="28" on="0"/>
        <pt x="587" y="28" on="0"/>
        <pt x="736" y="209" on="0"/>
        <pt x="736" y="358" on="1"/>
        <pt x="736" y="448" on="0"/>
        <pt x="682" y="593" on="0"/>
        <pt x="577" y="672" on="0"/>
        <pt x="513" y="672" on="1"/>
        <pt x="442" y="672" on="0"/>
        <pt x="398" y="635" on="1"/>
        <pt x="336" y="582" on="0"/>
        <pt x="336" y="500" on="1"/>
        <pt x="336" y="474" on="0"/>
        <pt x="343" y="447" on="1"/>
      </contour>
    </TTGlyph>
    <TTGlyph name="Odieresis" xMin="29" yMin="-14" xMax="901" yMax="888">
      <contour>
        <pt x="373" y="767" on="0"/>
        <pt x="323" y="767" on="0"/>
        <pt x="288" y="803" on="0"/>
        <pt x="288" y="852" on="0"/>
        <pt x="323" y="888" on="0"/>
        <pt x="373" y="888" on="0"/>
        <pt x="408" y="852" on="0"/>
        <pt x="408" y="803" on="0"/>
      </contour>
      <contour>
        <pt x="606" y="767" on="0"/>
        <pt x="557" y="767" on="0"/>
        <pt x="521" y="803" on="0"/>
        <pt x="521" y="852" on="0"/>
        <pt x="557" y="888" on="0"/>
        <pt x="606" y="888" on="0"/>
        <pt x="641" y="852" on="0"/>
        <pt x="641" y="803" on="0"/>
      </contour>
      <contour>
        <pt x="332" y="447" on="1"/>
        <pt x="314" y="485" on="0"/>
        <pt x="314" y="554" on="0"/>
        <pt x="332" y="613" on="0"/>
        <pt x="374" y="670" on="0"/>
        <pt x="412" y="689" on="1"/>
        <pt x="464" y="716" on="0"/>
        <pt x="537" y="716" on="1"/>
        <pt x="633" y="716" on="0"/>
        <pt x="719" y="667" on="1"/>
        <pt x="832" y="603" on="0"/>
        <pt x="876" y="490" on="1"/>
        <pt x="901" y="428" on="0"/>
        <pt x="901" y="357" on="1"/>
        <pt x="901" y="190" on="0"/>
        <pt x="660" y="-14" on="0"/>
        <pt x="273" y="-14" on="0"/>
        <pt x="30" y="190" on="0"/>
        <pt x="30" y="356" on="1"/>
        <pt x="30" y="480" on="0"/>
        <pt x="171" y="663" on="0"/>
        <pt x="291" y="696" on="1"/>
        <pt x="297" y="687" on="1"/>
        <pt x="246" y="644" on="0"/>
        <pt x="194" y="478" on="0"/>
        <pt x="194" y="382" on="1"/>
        <pt x="194" y="220" on="0"/>
        <pt x="344" y="28" on="0"/>
        <pt x="587" y="28" on="0"/>
        <pt x="736" y="209" on="0"/>
        <pt x="736" y="358" on="1"/>
        <pt x="736" y="448" on="0"/>
        <pt x="681" y="593" on="0"/>
        <pt x="577" y="672" on="0"/>
        <pt x="513" y="672" on="1"/>
        <pt x="442" y="672" on="0"/>
        <pt x="398" y="635" on="1"/>
        <pt x="336" y="582" on="0"/>
        <pt x="336" y="500" on="1"/>
        <pt x="336" y="474" on="0"/>
        <pt x="343" y="447" on="1"/>
      </contour>
    </TTGlyph>
    <TTGlyph name="Ograve" xMin="29" yMin="-15" xMax="901" yMax="944">
      <contour>
        <pt x="486" y="779" on="1"/>
        <pt x="479" y="772" on="1"/>
        <pt x="379" y="796" on="0"/>
        <pt x="274" y="862" on="1"/>
        <pt x="294" y="919" on="0"/>
        <pt x="342" y="944" on="1"/>
        <pt x="443" y="853" on="0"/>
      </contour>
      <contour>
        <pt x="332" y="447" on="1"/>
        <pt x="314" y="485" on="0"/>
        <pt x="314" y="554" on="0"/>
        <pt x="332" y="613" on="0"/>
        <pt x="374" y="670" on="0"/>
        <pt x="412" y="689" on="1"/>
        <pt x="464" y="716" on="0"/>
        <pt x="537" y="716" on="1"/>
        <pt x="633" y="716" on="0"/>
        <pt x="719" y="667" on="1"/>
        <pt x="832" y="603" on="0"/>
        <pt x="876" y="490" on="1"/>
        <pt x="901" y="428" on="0"/>
        <pt x="901" y="357" on="1"/>
        <pt x="901" y="190" on="0"/>
        <pt x="660" y="-14" on="0"/>
        <pt x="273" y="-14" on="0"/>
        <pt x="30" y="190" on="0"/>
        <pt x="30" y="356" on="1"/>
        <pt x="30" y="480" on="0"/>
        <pt x="171" y="663" on="0"/>
        <pt x="291" y="696" on="1"/>
        <pt x="297" y="687" on="1"/>
        <pt x="246" y="644" on="0"/>
        <pt x="194" y="478" on="0"/>
        <pt x="194" y="382" on="1"/>
        <pt x="194" y="220" on="0"/>
        <pt x="344" y="28" on="0"/>
        <pt x="587" y="28" on="0"/>
        <pt x="736" y="209" on="0"/>
        <pt x="736" y="358" on="1"/>
        <pt x="736" y="448" on="0"/>
        <pt x="681" y="593" on="0"/>
        <pt x="577" y="672" on="0"/>
        <pt x="513" y="672" on="1"/>
        <pt x="442" y="672" on="0"/>
        <pt x="398" y="635" on="1"/>
        <pt x="336" y="582" on="0"/>
        <pt x="336" y="500" on="1"/>
        <pt x="336" y="474" on="0"/>
        <pt x="343" y="447" on="1"/>
      </contour>
    </TTGlyph>
    <TTGlyph name="Ohungarumlaut" xMin="29" yMin="-15" xMax="901" yMax="944">
      <contour>
        <pt x="369" y="774" on="1"/>
        <pt x="360" y="779" on="1"/>
        <pt x="387" y="841" on="0"/>
        <pt x="481" y="943" on="1"/>
        <pt x="532" y="926" on="0"/>
        <pt x="556" y="878" on="1"/>
        <pt x="468" y="809" on="0"/>
      </contour>
      <contour>
        <pt x="544" y="774" on="1"/>
        <pt x="536" y="779" on="1"/>
        <pt x="564" y="845" on="0"/>
        <pt x="656" y="943" on="1"/>
        <pt x="708" y="926" on="0"/>
        <pt x="732" y="878" on="1"/>
        <pt x="642" y="807" on="0"/>
      </contour>
      <contour>
        <pt x="332" y="447" on="1"/>
        <pt x="314" y="485" on="0"/>
        <pt x="314" y="554" on="0"/>
        <pt x="332" y="613" on="0"/>
        <pt x="374" y="670" on="0"/>
        <pt x="412" y="689" on="1"/>
        <pt x="464" y="716" on="0"/>
        <pt x="537" y="716" on="1"/>
        <pt x="633" y="716" on="0"/>
        <pt x="719" y="667" on="1"/>
        <pt x="832" y="603" on="0"/>
        <pt x="876" y="490" on="1"/>
        <pt x="901" y="428" on="0"/>
        <pt x="901" y="357" on="1"/>
        <pt x="901" y="190" on="0"/>
        <pt x="660" y="-14" on="0"/>
        <pt x="273" y="-14" on="0"/>
        <pt x="30" y="190" on="0"/>
        <pt x="30" y="356" on="1"/>
        <pt x="30" y="480" on="0"/>
        <pt x="172" y="663" on="0"/>
        <pt x="291" y="696" on="1"/>
        <pt x="297" y="687" on="1"/>
        <pt x="246" y="644" on="0"/>
        <pt x="194" y="478" on="0"/>
        <pt x="194" y="382" on="1"/>
        <pt x="194" y="220" on="0"/>
        <pt x="344" y="28" on="0"/>
        <pt x="587" y="28" on="0"/>
        <pt x="736" y="209" on="0"/>
        <pt x="736" y="358" on="1"/>
        <pt x="736" y="448" on="0"/>
        <pt x="682" y="593" on="0"/>
        <pt x="577" y="672" on="0"/>
        <pt x="513" y="672" on="1"/>
        <pt x="442" y="672" on="0"/>
        <pt x="398" y="635" on="1"/>
        <pt x="336" y="582" on="0"/>
        <pt x="336" y="500" on="1"/>
        <pt x="336" y="474" on="0"/>
        <pt x="343" y="447" on="1"/>
      </contour>
    </TTGlyph>
    <TTGlyph name="Omacron" xMin="29" yMin="-14" xMax="901" yMax="870">
      <contour>
        <pt x="333" y="804" on="1"/>
        <pt x="333" y="869" on="1"/>
        <pt x="607" y="869" on="1"/>
        <pt x="607" y="804" on="1"/>
      </contour>
      <contour>
        <pt x="332" y="447" on="1"/>
        <pt x="314" y="485" on="0"/>
        <pt x="314" y="554" on="0"/>
        <pt x="332" y="613" on="0"/>
        <pt x="374" y="670" on="0"/>
        <pt x="412" y="689" on="1"/>
        <pt x="464" y="716" on="0"/>
        <pt x="537" y="716" on="1"/>
        <pt x="633" y="716" on="0"/>
        <pt x="719" y="667" on="1"/>
        <pt x="832" y="603" on="0"/>
        <pt x="876" y="490" on="1"/>
        <pt x="901" y="428" on="0"/>
        <pt x="901" y="357" on="1"/>
        <pt x="901" y="190" on="0"/>
        <pt x="660" y="-14" on="0"/>
        <pt x="273" y="-14" on="0"/>
        <pt x="30" y="190" on="0"/>
        <pt x="30" y="356" on="1"/>
        <pt x="30" y="480" on="0"/>
        <pt x="171" y="663" on="0"/>
        <pt x="291" y="696" on="1"/>
        <pt x="297" y="687" on="1"/>
        <pt x="246" y="644" on="0"/>
        <pt x="194" y="478" on="0"/>
        <pt x="194" y="382" on="1"/>
        <pt x="194" y="220" on="0"/>
        <pt x="344" y="28" on="0"/>
        <pt x="587" y="28" on="0"/>
        <pt x="736" y="209" on="0"/>
        <pt x="736" y="358" on="1"/>
        <pt x="736" y="448" on="0"/>
        <pt x="681" y="593" on="0"/>
        <pt x="577" y="672" on="0"/>
        <pt x="513" y="672" on="1"/>
        <pt x="442" y="672" on="0"/>
        <pt x="398" y="635" on="1"/>
        <pt x="336" y="582" on="0"/>
        <pt x="336" y="500" on="1"/>
        <pt x="336" y="474" on="0"/>
        <pt x="343" y="447" on="1"/>
      </contour>
    </TTGlyph>
    <TTGlyph name="Omega" xMin="33" yMin="-1" xMax="818" yMax="714">
      <contour>
        <pt x="463" y="132" on="1"/>
        <pt x="548" y="167" on="0"/>
        <pt x="657" y="310" on="0"/>
        <pt x="657" y="524" on="0"/>
        <pt x="526" y="672" on="0"/>
        <pt x="328" y="672" on="0"/>
        <pt x="194" y="521" on="0"/>
        <pt x="194" y="308" on="0"/>
        <pt x="300" y="166" on="0"/>
        <pt x="385" y="132" on="1"/>
        <pt x="373" y="0" on="1"/>
        <pt x="81" y="0" on="1"/>
        <pt x="33" y="213" on="1"/>
        <pt x="43" y="213" on="1"/>
        <pt x="62" y="179" on="0"/>
        <pt x="76" y="162" on="1"/>
        <pt x="106" y="128" on="0"/>
        <pt x="160" y="128" on="1"/>
        <pt x="324" y="128" on="1"/>
        <pt x="196" y="147" on="0"/>
        <pt x="39" y="309" on="0"/>
        <pt x="39" y="416" on="1"/>
        <pt x="39" y="499" on="0"/>
        <pt x="139" y="636" on="0"/>
        <pt x="318" y="714" on="0"/>
        <pt x="535" y="714" on="0"/>
        <pt x="712" y="635" on="0"/>
        <pt x="812" y="496" on="0"/>
        <pt x="812" y="412" on="1"/>
        <pt x="812" y="309" on="0"/>
        <pt x="647" y="143" on="0"/>
        <pt x="524" y="128" on="1"/>
        <pt x="691" y="128" on="1"/>
        <pt x="734" y="128" on="0"/>
        <pt x="780" y="163" on="0"/>
        <pt x="808" y="213" on="1"/>
        <pt x="818" y="213" on="1"/>
        <pt x="770" y="0" on="1"/>
        <pt x="475" y="0" on="1"/>
      </contour>
    </TTGlyph>
    <TTGlyph name="Oslash" xMin="20" yMin="-24" xMax="892" yMax="725">
      <contour>
        <pt x="322" y="447" on="1"/>
        <pt x="305" y="485" on="0"/>
        <pt x="305" y="554" on="0"/>
        <pt x="323" y="613" on="0"/>
        <pt x="365" y="670" on="0"/>
        <pt x="403" y="689" on="1"/>
        <pt x="455" y="716" on="0"/>
        <pt x="614" y="716" on="0"/>
        <pt x="695" y="675" on="1"/>
        <pt x="737" y="725" on="1"/>
        <pt x="773" y="695" on="1"/>
        <pt x="736" y="651" on="1"/>
        <pt x="807" y="604" on="0"/>
        <pt x="891" y="454" on="0"/>
        <pt x="891" y="357" on="1"/>
        <pt x="891" y="190" on="0"/>
        <pt x="649" y="-14" on="0"/>
        <pt x="456" y="-14" on="1"/>
        <pt x="320" y="-14" on="0"/>
        <pt x="217" y="38" on="1"/>
        <pt x="165" y="-23" on="1"/>
        <pt x="128" y="7" on="1"/>
        <pt x="175" y="63" on="1"/>
        <pt x="101" y="112" on="0"/>
        <pt x="21" y="263" on="0"/>
        <pt x="21" y="356" on="1"/>
        <pt x="21" y="480" on="0"/>
        <pt x="162" y="663" on="0"/>
        <pt x="282" y="696" on="1"/>
        <pt x="288" y="687" on="1"/>
        <pt x="237" y="644" on="0"/>
        <pt x="185" y="478" on="0"/>
        <pt x="185" y="382" on="1"/>
        <pt x="185" y="238" on="0"/>
        <pt x="245" y="145" on="1"/>
        <pt x="642" y="613" on="1"/>
        <pt x="585" y="672" on="0"/>
        <pt x="504" y="672" on="1"/>
        <pt x="433" y="672" on="0"/>
        <pt x="389" y="635" on="1"/>
        <pt x="327" y="582" on="0"/>
        <pt x="327" y="500" on="1"/>
        <pt x="327" y="474" on="0"/>
        <pt x="334" y="447" on="1"/>
      </contour>
      <contour>
        <pt x="274" y="106" on="1"/>
        <pt x="346" y="28" on="0"/>
        <pt x="576" y="28" on="0"/>
        <pt x="727" y="209" on="0"/>
        <pt x="727" y="488" on="0"/>
        <pt x="672" y="575" on="1"/>
      </contour>
    </TTGlyph>
    <TTGlyph name="Otilde" xMin="29" yMin="-15" xMax="901" yMax="908">
      <contour>
        <pt x="635" y="898" on="1"/>
        <pt x="646" y="898" on="1"/>
        <pt x="648" y="887" on="0"/>
        <pt x="648" y="876" on="1"/>
        <pt x="648" y="846" on="0"/>
        <pt x="629" y="814" on="1"/>
        <pt x="602" y="773" on="0"/>
        <pt x="550" y="773" on="1"/>
        <pt x="520" y="773" on="0"/>
        <pt x="428" y="820" on="0"/>
        <pt x="400" y="823" on="0"/>
        <pt x="375" y="823" on="0"/>
        <pt x="335" y="796" on="0"/>
        <pt x="327" y="776" on="1"/>
        <pt x="316" y="776" on="1"/>
        <pt x="315" y="783" on="0"/>
        <pt x="315" y="791" on="1"/>
        <pt x="315" y="829" on="0"/>
        <pt x="362" y="907" on="0"/>
        <pt x="412" y="907" on="1"/>
        <pt x="440" y="907" on="0"/>
        <pt x="537" y="858" on="0"/>
        <pt x="575" y="858" on="1"/>
        <pt x="588" y="858" on="0"/>
        <pt x="628" y="881" on="0"/>
      </contour>
      <contour>
        <pt x="332" y="447" on="1"/>
        <pt x="314" y="485" on="0"/>
        <pt x="314" y="554" on="0"/>
        <pt x="332" y="613" on="0"/>
        <pt x="374" y="670" on="0"/>
        <pt x="412" y="689" on="1"/>
        <pt x="464" y="716" on="0"/>
        <pt x="537" y="716" on="1"/>
        <pt x="633" y="716" on="0"/>
        <pt x="719" y="667" on="1"/>
        <pt x="832" y="603" on="0"/>
        <pt x="876" y="490" on="1"/>
        <pt x="901" y="428" on="0"/>
        <pt x="901" y="357" on="1"/>
        <pt x="901" y="190" on="0"/>
        <pt x="660" y="-14" on="0"/>
        <pt x="273" y="-14" on="0"/>
        <pt x="30" y="190" on="0"/>
        <pt x="30" y="356" on="1"/>
        <pt x="30" y="480" on="0"/>
        <pt x="172" y="663" on="0"/>
        <pt x="291" y="696" on="1"/>
        <pt x="297" y="687" on="1"/>
        <pt x="246" y="644" on="0"/>
        <pt x="194" y="478" on="0"/>
        <pt x="194" y="274" on="0"/>
        <pt x="263" y="113" on="0"/>
        <pt x="386" y="28" on="0"/>
        <pt x="466" y="28" on="1"/>
        <pt x="587" y="28" on="0"/>
        <pt x="736" y="209" on="0"/>
        <pt x="736" y="358" on="1"/>
        <pt x="736" y="448" on="0"/>
        <pt x="682" y="593" on="0"/>
        <pt x="577" y="672" on="0"/>
        <pt x="513" y="672" on="1"/>
        <pt x="442" y="672" on="0"/>
        <pt x="398" y="635" on="1"/>
        <pt x="336" y="582" on="0"/>
        <pt x="336" y="500" on="1"/>
        <pt x="336" y="474" on="0"/>
        <pt x="343" y="447" on="1"/>
      </contour>
    </TTGlyph>
    <TTGlyph name="P" xMin="44" yMin="-1" xMax="670" yMax="719">
      <contour>
        <pt x="318" y="380" on="1"/>
        <pt x="335" y="340" on="0"/>
        <pt x="388" y="340" on="1"/>
        <pt x="448" y="340" on="0"/>
        <pt x="484" y="400" on="1"/>
        <pt x="509" y="441" on="0"/>
        <pt x="509" y="504" on="1"/>
        <pt x="509" y="597" on="0"/>
        <pt x="460" y="640" on="1"/>
        <pt x="423" y="672" on="0"/>
        <pt x="366" y="672" on="1"/>
        <pt x="353" y="672" on="0"/>
        <pt x="339" y="670" on="1"/>
        <pt x="272" y="660" on="1"/>
        <pt x="272" y="73" on="1"/>
        <pt x="272" y="46" on="0"/>
        <pt x="310" y="10" on="0"/>
        <pt x="336" y="10" on="1"/>
        <pt x="349" y="10" on="1"/>
        <pt x="349" y="0" on="1"/>
        <pt x="45" y="0" on="1"/>
        <pt x="45" y="10" on="1"/>
        <pt x="58" y="10" on="1"/>
        <pt x="84" y="10" on="0"/>
        <pt x="121" y="46" on="0"/>
        <pt x="122" y="73" on="1"/>
        <pt x="122" y="606" on="1"/>
        <pt x="121" y="632" on="0"/>
        <pt x="92" y="662" on="0"/>
        <pt x="64" y="662" on="1"/>
        <pt x="57" y="662" on="0"/>
        <pt x="46" y="661" on="1"/>
        <pt x="44" y="670" on="1"/>
        <pt x="129" y="677" on="0"/>
        <pt x="316" y="710" on="0"/>
        <pt x="375" y="718" on="0"/>
        <pt x="436" y="718" on="0"/>
        <pt x="522" y="705" on="0"/>
        <pt x="612" y="660" on="0"/>
        <pt x="640" y="616" on="1"/>
        <pt x="669" y="568" on="0"/>
        <pt x="669" y="447" on="0"/>
        <pt x="647" y="401" on="1"/>
        <pt x="605" y="313" on="0"/>
        <pt x="503" y="289" on="1"/>
        <pt x="478" y="283" on="0"/>
        <pt x="433" y="283" on="0"/>
        <pt x="413" y="287" on="1"/>
        <pt x="372" y="293" on="0"/>
        <pt x="316" y="337" on="0"/>
        <pt x="309" y="376" on="1"/>
      </contour>
    </TTGlyph>
    <TTGlyph name="Q" xMin="22" yMin="-272" xMax="1570" yMax="720">
      <contour>
        <pt x="1480" y="-202" on="1"/>
        <pt x="1377" y="-272" on="0"/>
        <pt x="1217" y="-272" on="1"/>
        <pt x="1047" y="-272" on="0"/>
        <pt x="877" y="-207" on="1"/>
        <pt x="827" y="-188" on="0"/>
        <pt x="730" y="-146" on="1"/>
        <pt x="474" y="-34" on="0"/>
        <pt x="411" y="-14" on="1"/>
        <pt x="411" y="-4" on="1"/>
        <pt x="413" y="-4" on="1"/>
        <pt x="414" y="-4" on="0"/>
        <pt x="415" y="-4" on="1"/>
        <pt x="534" y="-4" on="0"/>
        <pt x="624" y="71" on="1"/>
        <pt x="669" y="109" on="0"/>
        <pt x="698" y="173" on="1"/>
        <pt x="731" y="246" on="0"/>
        <pt x="731" y="338" on="1"/>
        <pt x="731" y="467" on="0"/>
        <pt x="666" y="563" on="1"/>
        <pt x="632" y="612" on="0"/>
        <pt x="580" y="643" on="1"/>
        <pt x="523" y="677" on="0"/>
        <pt x="451" y="677" on="1"/>
        <pt x="339" y="677" on="0"/>
        <pt x="183" y="506" on="0"/>
        <pt x="183" y="351" on="1"/>
        <pt x="183" y="244" on="0"/>
        <pt x="226" y="171" on="1"/>
        <pt x="277" y="85" on="0"/>
        <pt x="376" y="85" on="1"/>
        <pt x="397" y="85" on="0"/>
        <pt x="452" y="98" on="0"/>
        <pt x="511" y="158" on="0"/>
        <pt x="519" y="206" on="1"/>
        <pt x="530" y="205" on="1"/>
        <pt x="529" y="121" on="0"/>
        <pt x="481" y="83" on="1"/>
        <pt x="432" y="45" on="0"/>
        <pt x="370" y="45" on="1"/>
        <pt x="338" y="45" on="0"/>
        <pt x="301" y="50" on="1"/>
        <pt x="178" y="71" on="0"/>
        <pt x="23" y="239" on="0"/>
        <pt x="23" y="359" on="1"/>
        <pt x="23" y="435" on="0"/>
        <pt x="54" y="502" on="1"/>
        <pt x="119" y="639" on="0"/>
        <pt x="282" y="693" on="1"/>
        <pt x="361" y="719" on="0"/>
        <pt x="454" y="719" on="1"/>
        <pt x="649" y="719" on="0"/>
        <pt x="891" y="511" on="0"/>
        <pt x="891" y="353" on="1"/>
        <pt x="891" y="275" on="0"/>
        <pt x="832" y="141" on="0"/>
        <pt x="783" y="96" on="1"/>
        <pt x="683" y="2" on="0"/>
        <pt x="549" y="-18" on="1"/>
        <pt x="637" y="-31" on="0"/>
        <pt x="916" y="-92" on="0"/>
        <pt x="971" y="-104" on="1"/>
        <pt x="1191" y="-151" on="0"/>
        <pt x="1330" y="-151" on="1"/>
        <pt x="1347" y="-151" on="0"/>
        <pt x="1421" y="-147" on="0"/>
        <pt x="1530" y="-115" on="0"/>
        <pt x="1564" y="-84" on="1"/>
        <pt x="1570" y="-88" on="1"/>
        <pt x="1547" y="-157" on="0"/>
      </contour>
    </TTGlyph>
    <TTGlyph name="R" xMin="44" yMin="-209" xMax="1086" yMax="701">
      <contour>
        <pt x="1085" y="-170" on="1"/>
        <pt x="1007" y="-209" on="0"/>
        <pt x="919" y="-209" on="1"/>
        <pt x="841" y="-209" on="0"/>
        <pt x="777" y="-185" on="1"/>
        <pt x="639" y="-134" on="0"/>
        <pt x="542" y="14" on="1"/>
        <pt x="517" y="50" on="0"/>
        <pt x="381" y="254" on="0"/>
        <pt x="361" y="282" on="1"/>
        <pt x="326" y="337" on="0"/>
        <pt x="305" y="342" on="1"/>
        <pt x="305" y="352" on="1"/>
        <pt x="306" y="352" on="0"/>
        <pt x="309" y="352" on="0"/>
        <pt x="313" y="352" on="0"/>
        <pt x="317" y="352" on="0"/>
        <pt x="323" y="352" on="0"/>
        <pt x="325" y="352" on="1"/>
        <pt x="376" y="352" on="0"/>
        <pt x="419" y="375" on="1"/>
        <pt x="484" y="411" on="0"/>
        <pt x="484" y="508" on="1"/>
        <pt x="484" y="579" on="0"/>
        <pt x="404" y="656" on="0"/>
        <pt x="348" y="656" on="1"/>
        <pt x="272" y="656" on="1"/>
        <pt x="272" y="73" on="1"/>
        <pt x="272" y="47" on="0"/>
        <pt x="310" y="10" on="0"/>
        <pt x="336" y="10" on="1"/>
        <pt x="349" y="10" on="1"/>
        <pt x="349" y="0" on="1"/>
        <pt x="45" y="0" on="1"/>
        <pt x="45" y="10" on="1"/>
        <pt x="58" y="10" on="1"/>
        <pt x="83" y="10" on="0"/>
        <pt x="121" y="46" on="0"/>
        <pt x="122" y="72" on="1"/>
        <pt x="122" y="627" on="1"/>
        <pt x="121" y="653" on="0"/>
        <pt x="84" y="690" on="0"/>
        <pt x="58" y="690" on="1"/>
        <pt x="45" y="690" on="1"/>
        <pt x="45" y="700" on="1"/>
        <pt x="388" y="700" on="1"/>
        <pt x="517" y="700" on="0"/>
        <pt x="588" y="641" on="1"/>
        <pt x="644" y="595" on="0"/>
        <pt x="644" y="427" on="0"/>
        <pt x="535" y="322" on="0"/>
        <pt x="465" y="322" on="1"/>
        <pt x="459" y="322" on="0"/>
        <pt x="452" y="323" on="1"/>
        <pt x="493" y="301" on="0"/>
        <pt x="548" y="247" on="0"/>
        <pt x="589" y="199" on="0"/>
        <pt x="618" y="162" on="0"/>
        <pt x="666" y="101" on="0"/>
        <pt x="718" y="35" on="0"/>
        <pt x="781" y="-34" on="0"/>
        <pt x="858" y="-96" on="0"/>
        <pt x="898" y="-116" on="1"/>
        <pt x="983" y="-159" on="0"/>
        <pt x="1085" y="-160" on="1"/>
      </contour>
    </TTGlyph>
    <TTGlyph name="Racute" xMin="44" yMin="-209" xMax="1086" yMax="934">
      <contour>
        <pt x="354" y="762" on="1"/>
        <pt x="347" y="769" on="1"/>
        <pt x="390" y="843" on="0"/>
        <pt x="491" y="933" on="1"/>
        <pt x="539" y="908" on="0"/>
        <pt x="559" y="852" on="1"/>
        <pt x="456" y="787" on="0"/>
      </contour>
      <contour>
        <pt x="1085" y="-170" on="1"/>
        <pt x="1007" y="-209" on="0"/>
        <pt x="919" y="-209" on="1"/>
        <pt x="841" y="-209" on="0"/>
        <pt x="777" y="-185" on="1"/>
        <pt x="639" y="-134" on="0"/>
        <pt x="542" y="14" on="1"/>
        <pt x="517" y="50" on="0"/>
        <pt x="381" y="254" on="0"/>
        <pt x="361" y="283" on="1"/>
        <pt x="326" y="337" on="0"/>
        <pt x="305" y="342" on="1"/>
        <pt x="305" y="352" on="1"/>
        <pt x="306" y="352" on="0"/>
        <pt x="309" y="352" on="0"/>
        <pt x="313" y="352" on="0"/>
        <pt x="317" y="352" on="0"/>
        <pt x="323" y="352" on="0"/>
        <pt x="325" y="352" on="1"/>
        <pt x="376" y="352" on="0"/>
        <pt x="419" y="375" on="1"/>
        <pt x="484" y="411" on="0"/>
        <pt x="484" y="508" on="1"/>
        <pt x="484" y="579" on="0"/>
        <pt x="404" y="656" on="0"/>
        <pt x="348" y="656" on="1"/>
        <pt x="272" y="656" on="1"/>
        <pt x="272" y="73" on="1"/>
        <pt x="272" y="47" on="0"/>
        <pt x="310" y="10" on="0"/>
        <pt x="336" y="10" on="1"/>
        <pt x="349" y="10" on="1"/>
        <pt x="349" y="0" on="1"/>
        <pt x="45" y="0" on="1"/>
        <pt x="45" y="10" on="1"/>
        <pt x="58" y="10" on="1"/>
        <pt x="83" y="10" on="0"/>
        <pt x="121" y="46" on="0"/>
        <pt x="122" y="72" on="1"/>
        <pt x="122" y="627" on="1"/>
        <pt x="121" y="664" on="0"/>
        <pt x="89" y="682" on="1"/>
        <pt x="75" y="690" on="0"/>
        <pt x="58" y="690" on="1"/>
        <pt x="45" y="690" on="1"/>
        <pt x="45" y="700" on="1"/>
        <pt x="388" y="700" on="1"/>
        <pt x="517" y="700" on="0"/>
        <pt x="588" y="641" on="1"/>
        <pt x="644" y="595" on="0"/>
        <pt x="644" y="427" on="0"/>
        <pt x="535" y="322" on="0"/>
        <pt x="465" y="322" on="1"/>
        <pt x="459" y="322" on="0"/>
        <pt x="452" y="323" on="1"/>
        <pt x="504" y="295" on="0"/>
        <pt x="548" y="246" on="1"/>
        <pt x="584" y="206" on="0"/>
        <pt x="665" y="102" on="0"/>
        <pt x="727" y="23" on="0"/>
        <pt x="808" y="-58" on="0"/>
        <pt x="857" y="-92" on="1"/>
        <pt x="954" y="-159" on="0"/>
        <pt x="1085" y="-160" on="1"/>
      </contour>
    </TTGlyph>
    <TTGlyph name="Rcaron" xMin="44" yMin="-209" xMax="1086" yMax="926">
      <contour>
        <pt x="371" y="764" on="1"/>
        <pt x="359" y="764" on="1"/>
        <pt x="212" y="917" on="1"/>
        <pt x="219" y="925" on="1"/>
        <pt x="366" y="860" on="1"/>
        <pt x="502" y="925" on="1"/>
        <pt x="509" y="917" on="1"/>
      </contour>
      <contour>
        <pt x="1085" y="-170" on="1"/>
        <pt x="1007" y="-209" on="0"/>
        <pt x="919" y="-209" on="1"/>
        <pt x="841" y="-209" on="0"/>
        <pt x="777" y="-185" on="1"/>
        <pt x="639" y="-134" on="0"/>
        <pt x="542" y="14" on="1"/>
        <pt x="517" y="50" on="0"/>
        <pt x="381" y="254" on="0"/>
        <pt x="361" y="282" on="1"/>
        <pt x="326" y="337" on="0"/>
        <pt x="305" y="342" on="1"/>
        <pt x="305" y="352" on="1"/>
        <pt x="306" y="352" on="0"/>
        <pt x="311" y="352" on="0"/>
        <pt x="317" y="352" on="0"/>
        <pt x="321" y="352" on="1"/>
        <pt x="375" y="351" on="0"/>
        <pt x="419" y="375" on="1"/>
        <pt x="484" y="411" on="0"/>
        <pt x="484" y="508" on="1"/>
        <pt x="484" y="579" on="0"/>
        <pt x="404" y="656" on="0"/>
        <pt x="348" y="656" on="1"/>
        <pt x="272" y="656" on="1"/>
        <pt x="272" y="73" on="1"/>
        <pt x="272" y="47" on="0"/>
        <pt x="310" y="10" on="0"/>
        <pt x="336" y="10" on="1"/>
        <pt x="349" y="10" on="1"/>
        <pt x="349" y="0" on="1"/>
        <pt x="45" y="0" on="1"/>
        <pt x="45" y="10" on="1"/>
        <pt x="58" y="10" on="1"/>
        <pt x="83" y="10" on="0"/>
        <pt x="121" y="46" on="0"/>
        <pt x="122" y="72" on="1"/>
        <pt x="122" y="627" on="1"/>
        <pt x="121" y="653" on="0"/>
        <pt x="84" y="690" on="0"/>
        <pt x="58" y="690" on="1"/>
        <pt x="45" y="690" on="1"/>
        <pt x="45" y="700" on="1"/>
        <pt x="388" y="700" on="1"/>
        <pt x="517" y="700" on="0"/>
        <pt x="588" y="641" on="1"/>
        <pt x="644" y="595" on="0"/>
        <pt x="644" y="427" on="0"/>
        <pt x="535" y="322" on="0"/>
        <pt x="465" y="322" on="1"/>
        <pt x="459" y="322" on="0"/>
        <pt x="452" y="323" on="1"/>
        <pt x="493" y="301" on="0"/>
        <pt x="548" y="247" on="0"/>
        <pt x="589" y="199" on="0"/>
        <pt x="618" y="162" on="0"/>
        <pt x="666" y="101" on="0"/>
        <pt x="718" y="35" on="0"/>
        <pt x="781" y="-34" on="0"/>
        <pt x="858" y="-96" on="0"/>
        <pt x="897" y="-116" on="1"/>
        <pt x="983" y="-159" on="0"/>
        <pt x="1085" y="-160" on="1"/>
      </contour>
    </TTGlyph>
    <TTGlyph name="Rcommaaccent" xMin="44" yMin="-243" xMax="1086" yMax="701">
      <contour>
        <pt x="1085" y="-170" on="1"/>
        <pt x="1007" y="-209" on="0"/>
        <pt x="919" y="-209" on="1"/>
        <pt x="841" y="-209" on="0"/>
        <pt x="777" y="-185" on="1"/>
        <pt x="639" y="-134" on="0"/>
        <pt x="542" y="14" on="1"/>
        <pt x="517" y="50" on="0"/>
        <pt x="381" y="254" on="0"/>
        <pt x="361" y="282" on="1"/>
        <pt x="326" y="337" on="0"/>
        <pt x="305" y="342" on="1"/>
        <pt x="305" y="352" on="1"/>
        <pt x="306" y="352" on="0"/>
        <pt x="309" y="352" on="0"/>
        <pt x="313" y="352" on="0"/>
        <pt x="317" y="352" on="0"/>
        <pt x="323" y="352" on="0"/>
        <pt x="325" y="352" on="1"/>
        <pt x="376" y="352" on="0"/>
        <pt x="419" y="375" on="1"/>
        <pt x="484" y="411" on="0"/>
        <pt x="484" y="508" on="1"/>
        <pt x="484" y="579" on="0"/>
        <pt x="404" y="656" on="0"/>
        <pt x="348" y="656" on="1"/>
        <pt x="272" y="656" on="1"/>
        <pt x="272" y="73" on="1"/>
        <pt x="272" y="47" on="0"/>
        <pt x="310" y="10" on="0"/>
        <pt x="336" y="10" on="1"/>
        <pt x="349" y="10" on="1"/>
        <pt x="349" y="0" on="1"/>
        <pt x="45" y="0" on="1"/>
        <pt x="45" y="10" on="1"/>
        <pt x="58" y="10" on="1"/>
        <pt x="83" y="10" on="0"/>
        <pt x="121" y="46" on="0"/>
        <pt x="122" y="72" on="1"/>
        <pt x="122" y="627" on="1"/>
        <pt x="121" y="653" on="0"/>
        <pt x="84" y="690" on="0"/>
        <pt x="58" y="690" on="1"/>
        <pt x="45" y="690" on="1"/>
        <pt x="45" y="700" on="1"/>
        <pt x="388" y="700" on="1"/>
        <pt x="517" y="700" on="0"/>
        <pt x="588" y="641" on="1"/>
        <pt x="644" y="595" on="0"/>
        <pt x="644" y="427" on="0"/>
        <pt x="535" y="322" on="0"/>
        <pt x="465" y="322" on="1"/>
        <pt x="459" y="322" on="0"/>
        <pt x="452" y="323" on="1"/>
        <pt x="493" y="301" on="0"/>
        <pt x="548" y="247" on="0"/>
        <pt x="589" y="199" on="0"/>
        <pt x="618" y="162" on="0"/>
        <pt x="666" y="101" on="0"/>
        <pt x="718" y="35" on="0"/>
        <pt x="781" y="-34" on="0"/>
        <pt x="858" y="-96" on="0"/>
        <pt x="898" y="-116" on="1"/>
        <pt x="983" y="-159" on="0"/>
        <pt x="1085" y="-160" on="1"/>
      </contour>
      <contour>
        <pt x="388" y="-234" on="1"/>
        <pt x="423" y="-222" on="0"/>
        <pt x="423" y="-189" on="1"/>
        <pt x="423" y="-170" on="0"/>
        <pt x="390" y="-131" on="0"/>
        <pt x="390" y="-87" on="0"/>
        <pt x="416" y="-59" on="0"/>
        <pt x="429" y="-59" on="1"/>
        <pt x="474" y="-59" on="0"/>
        <pt x="489" y="-94" on="1"/>
        <pt x="498" y="-118" on="0"/>
        <pt x="498" y="-136" on="1"/>
        <pt x="498" y="-193" on="0"/>
        <pt x="456" y="-225" on="1"/>
        <pt x="432" y="-243" on="0"/>
        <pt x="403" y="-243" on="1"/>
        <pt x="397" y="-243" on="0"/>
        <pt x="391" y="-242" on="1"/>
      </contour>
    </TTGlyph>
    <TTGlyph name="S" xMin="25" yMin="-100" xMax="595" yMax="715">
      <contour>
        <pt x="94" y="284" on="1"/>
        <pt x="54" y="220" on="0"/>
        <pt x="54" y="153" on="1"/>
        <pt x="54" y="80" on="0"/>
        <pt x="107" y="20" on="1"/>
        <pt x="136" y="-14" on="0"/>
        <pt x="225" y="-52" on="0"/>
        <pt x="331" y="-52" on="0"/>
        <pt x="373" y="-32" on="1"/>
        <pt x="457" y="9" on="0"/>
        <pt x="457" y="102" on="1"/>
        <pt x="457" y="137" on="0"/>
        <pt x="410" y="215" on="0"/>
        <pt x="363" y="246" on="1"/>
        <pt x="193" y="360" on="1"/>
        <pt x="94" y="422" on="0"/>
        <pt x="94" y="520" on="1"/>
        <pt x="94" y="530" on="0"/>
        <pt x="95" y="540" on="1"/>
        <pt x="101" y="617" on="0"/>
        <pt x="212" y="714" on="0"/>
        <pt x="305" y="714" on="1"/>
        <pt x="362" y="714" on="0"/>
        <pt x="443" y="704" on="1"/>
        <pt x="505" y="704" on="1"/>
        <pt x="492" y="557" on="1"/>
        <pt x="483" y="557" on="1"/>
        <pt x="482" y="609" on="0"/>
        <pt x="404" y="672" on="0"/>
        <pt x="340" y="672" on="1"/>
        <pt x="262" y="672" on="0"/>
        <pt x="227" y="625" on="1"/>
        <pt x="210" y="601" on="0"/>
        <pt x="210" y="545" on="0"/>
        <pt x="244" y="506" on="0"/>
        <pt x="281" y="483" on="1"/>
        <pt x="468" y="361" on="1"/>
        <pt x="525" y="324" on="0"/>
        <pt x="557" y="274" on="1"/>
        <pt x="595" y="215" on="0"/>
        <pt x="595" y="153" on="1"/>
        <pt x="595" y="113" on="0"/>
        <pt x="562" y="24" on="0"/>
        <pt x="487" y="-52" on="0"/>
        <pt x="369" y="-100" on="0"/>
        <pt x="226" y="-100" on="0"/>
        <pt x="168" y="-75" on="1"/>
        <pt x="61" y="-30" on="0"/>
        <pt x="32" y="82" on="1"/>
        <pt x="26" y="106" on="0"/>
        <pt x="26" y="132" on="1"/>
        <pt x="26" y="216" on="0"/>
        <pt x="85" y="291" on="1"/>
      </contour>
    </TTGlyph>
    <TTGlyph name="Sacute" xMin="25" yMin="-100" xMax="595" yMax="934">
      <contour>
        <pt x="307" y="762" on="1"/>
        <pt x="300" y="769" on="1"/>
        <pt x="343" y="843" on="0"/>
        <pt x="444" y="933" on="1"/>
        <pt x="492" y="908" on="0"/>
        <pt x="511" y="852" on="1"/>
        <pt x="409" y="787" on="0"/>
      </contour>
      <contour>
        <pt x="94" y="284" on="1"/>
        <pt x="54" y="221" on="0"/>
        <pt x="54" y="154" on="1"/>
        <pt x="54" y="102" on="0"/>
        <pt x="100" y="22" on="0"/>
        <pt x="128" y="-1" on="1"/>
        <pt x="190" y="-52" on="0"/>
        <pt x="277" y="-52" on="1"/>
        <pt x="331" y="-52" on="0"/>
        <pt x="373" y="-32" on="1"/>
        <pt x="457" y="9" on="0"/>
        <pt x="457" y="102" on="1"/>
        <pt x="457" y="137" on="0"/>
        <pt x="410" y="215" on="0"/>
        <pt x="363" y="246" on="1"/>
        <pt x="193" y="360" on="1"/>
        <pt x="94" y="422" on="0"/>
        <pt x="94" y="520" on="1"/>
        <pt x="94" y="530" on="0"/>
        <pt x="95" y="540" on="1"/>
        <pt x="101" y="617" on="0"/>
        <pt x="212" y="714" on="0"/>
        <pt x="305" y="714" on="1"/>
        <pt x="362" y="714" on="0"/>
        <pt x="443" y="704" on="1"/>
        <pt x="505" y="704" on="1"/>
        <pt x="492" y="557" on="1"/>
        <pt x="483" y="557" on="1"/>
        <pt x="482" y="609" on="0"/>
        <pt x="404" y="672" on="0"/>
        <pt x="340" y="672" on="1"/>
        <pt x="262" y="672" on="0"/>
        <pt x="227" y="625" on="1"/>
        <pt x="210" y="601" on="0"/>
        <pt x="210" y="545" on="0"/>
        <pt x="244" y="506" on="0"/>
        <pt x="281" y="483" on="1"/>
        <pt x="468" y="361" on="1"/>
        <pt x="525" y="324" on="0"/>
        <pt x="557" y="274" on="1"/>
        <pt x="595" y="215" on="0"/>
        <pt x="595" y="153" on="1"/>
        <pt x="595" y="113" on="0"/>
        <pt x="562" y="24" on="0"/>
        <pt x="487" y="-52" on="0"/>
        <pt x="369" y="-100" on="0"/>
        <pt x="226" y="-100" on="0"/>
        <pt x="168" y="-75" on="1"/>
        <pt x="61" y="-30" on="0"/>
        <pt x="32" y="82" on="1"/>
        <pt x="26" y="106" on="0"/>
        <pt x="26" y="132" on="1"/>
        <pt x="26" y="216" on="0"/>
        <pt x="85" y="291" on="1"/>
      </contour>
    </TTGlyph>
    <TTGlyph name="Scaron" xMin="25" yMin="-100" xMax="595" yMax="926">
      <contour>
        <pt x="323" y="764" on="1"/>
        <pt x="312" y="764" on="1"/>
        <pt x="165" y="917" on="1"/>
        <pt x="171" y="925" on="1"/>
        <pt x="318" y="860" on="1"/>
        <pt x="455" y="925" on="1"/>
        <pt x="462" y="917" on="1"/>
      </contour>
      <contour>
        <pt x="94" y="284" on="1"/>
        <pt x="54" y="221" on="0"/>
        <pt x="54" y="156" on="1"/>
        <pt x="54" y="71" on="0"/>
        <pt x="115" y="11" on="1"/>
        <pt x="179" y="-52" on="0"/>
        <pt x="277" y="-52" on="1"/>
        <pt x="331" y="-52" on="0"/>
        <pt x="373" y="-32" on="1"/>
        <pt x="457" y="9" on="0"/>
        <pt x="457" y="102" on="1"/>
        <pt x="457" y="137" on="0"/>
        <pt x="410" y="215" on="0"/>
        <pt x="363" y="246" on="1"/>
        <pt x="193" y="360" on="1"/>
        <pt x="94" y="422" on="0"/>
        <pt x="94" y="520" on="1"/>
        <pt x="94" y="530" on="0"/>
        <pt x="95" y="540" on="1"/>
        <pt x="101" y="617" on="0"/>
        <pt x="212" y="714" on="0"/>
        <pt x="305" y="714" on="1"/>
        <pt x="362" y="714" on="0"/>
        <pt x="443" y="704" on="1"/>
        <pt x="505" y="704" on="1"/>
        <pt x="492" y="557" on="1"/>
        <pt x="483" y="557" on="1"/>
        <pt x="482" y="609" on="0"/>
        <pt x="404" y="672" on="0"/>
        <pt x="283" y="672" on="0"/>
        <pt x="210" y="616" on="0"/>
        <pt x="210" y="570" on="1"/>
        <pt x="210" y="545" on="0"/>
        <pt x="244" y="506" on="0"/>
        <pt x="281" y="483" on="1"/>
        <pt x="468" y="361" on="1"/>
        <pt x="525" y="324" on="0"/>
        <pt x="557" y="274" on="1"/>
        <pt x="595" y="215" on="0"/>
        <pt x="595" y="153" on="1"/>
        <pt x="595" y="113" on="0"/>
        <pt x="562" y="24" on="0"/>
        <pt x="487" y="-52" on="0"/>
        <pt x="369" y="-100" on="0"/>
        <pt x="226" y="-100" on="0"/>
        <pt x="168" y="-75" on="1"/>
        <pt x="61" y="-30" on="0"/>
        <pt x="32" y="82" on="1"/>
        <pt x="26" y="106" on="0"/>
        <pt x="26" y="132" on="1"/>
        <pt x="26" y="216" on="0"/>
        <pt x="85" y="291" on="1"/>
      </contour>
    </TTGlyph>
    <TTGlyph name="Scedilla" xMin="26" yMin="-297" xMax="595" yMax="715">
      <contour>
        <pt x="94" y="284" on="1"/>
        <pt x="54" y="220" on="0"/>
        <pt x="54" y="153" on="1"/>
        <pt x="54" y="80" on="0"/>
        <pt x="107" y="20" on="1"/>
        <pt x="136" y="-14" on="0"/>
        <pt x="225" y="-52" on="0"/>
        <pt x="331" y="-52" on="0"/>
        <pt x="373" y="-32" on="1"/>
        <pt x="457" y="9" on="0"/>
        <pt x="457" y="102" on="1"/>
        <pt x="457" y="137" on="0"/>
        <pt x="410" y="215" on="0"/>
        <pt x="363" y="246" on="1"/>
        <pt x="193" y="360" on="1"/>
        <pt x="94" y="422" on="0"/>
        <pt x="94" y="520" on="1"/>
        <pt x="94" y="530" on="0"/>
        <pt x="95" y="540" on="1"/>
        <pt x="101" y="617" on="0"/>
        <pt x="212" y="714" on="0"/>
        <pt x="305" y="714" on="1"/>
        <pt x="362" y="714" on="0"/>
        <pt x="443" y="704" on="1"/>
        <pt x="505" y="704" on="1"/>
        <pt x="492" y="557" on="1"/>
        <pt x="483" y="557" on="1"/>
        <pt x="482" y="609" on="0"/>
        <pt x="404" y="672" on="0"/>
        <pt x="340" y="672" on="1"/>
        <pt x="262" y="672" on="0"/>
        <pt x="227" y="625" on="1"/>
        <pt x="210" y="601" on="0"/>
        <pt x="210" y="545" on="0"/>
        <pt x="244" y="506" on="0"/>
        <pt x="281" y="483" on="1"/>
        <pt x="468" y="361" on="1"/>
        <pt x="523" y="326" on="0"/>
        <pt x="555" y="278" on="1"/>
        <pt x="595" y="218" on="0"/>
        <pt x="595" y="153" on="1"/>
        <pt x="595" y="65" on="0"/>
        <pt x="535" y="-3" on="1"/>
        <pt x="502" y="-41" on="0"/>
        <pt x="394" y="-94" on="0"/>
        <pt x="329" y="-99" on="1"/>
        <pt x="287" y="-147" on="1"/>
        <pt x="302" y="-142" on="0"/>
        <pt x="321" y="-142" on="1"/>
        <pt x="369" y="-142" on="0"/>
        <pt x="389" y="-168" on="1"/>
        <pt x="401" y="-182" on="0"/>
        <pt x="401" y="-204" on="1"/>
        <pt x="401" y="-257" on="0"/>
        <pt x="344" y="-283" on="1"/>
        <pt x="313" y="-297" on="0"/>
        <pt x="257" y="-297" on="0"/>
        <pt x="231" y="-288" on="1"/>
        <pt x="232" y="-278" on="1"/>
        <pt x="268" y="-278" on="0"/>
        <pt x="330" y="-241" on="0"/>
        <pt x="330" y="-204" on="1"/>
        <pt x="330" y="-186" on="0"/>
        <pt x="300" y="-164" on="0"/>
        <pt x="258" y="-164" on="0"/>
        <pt x="238" y="-171" on="1"/>
        <pt x="233" y="-161" on="1"/>
        <pt x="280" y="-100" on="1"/>
        <pt x="195" y="-96" on="0"/>
        <pt x="133" y="-57" on="1"/>
        <pt x="27" y="11" on="0"/>
        <pt x="27" y="129" on="1"/>
        <pt x="27" y="217" on="0"/>
        <pt x="85" y="291" on="1"/>
      </contour>
    </TTGlyph>
    <TTGlyph name="Scommaaccent" xMin="25" yMin="-343" xMax="595" yMax="715">
      <contour>
        <pt x="94" y="284" on="1"/>
        <pt x="54" y="220" on="0"/>
        <pt x="54" y="153" on="1"/>
        <pt x="54" y="80" on="0"/>
        <pt x="107" y="20" on="1"/>
        <pt x="136" y="-14" on="0"/>
        <pt x="225" y="-52" on="0"/>
        <pt x="331" y="-52" on="0"/>
        <pt x="373" y="-32" on="1"/>
        <pt x="457" y="9" on="0"/>
        <pt x="457" y="102" on="1"/>
        <pt x="457" y="137" on="0"/>
        <pt x="410" y="215" on="0"/>
        <pt x="363" y="246" on="1"/>
        <pt x="193" y="360" on="1"/>
        <pt x="94" y="422" on="0"/>
        <pt x="94" y="520" on="1"/>
        <pt x="94" y="530" on="0"/>
        <pt x="95" y="540" on="1"/>
        <pt x="101" y="617" on="0"/>
        <pt x="212" y="714" on="0"/>
        <pt x="305" y="714" on="1"/>
        <pt x="362" y="714" on="0"/>
        <pt x="443" y="704" on="1"/>
        <pt x="505" y="704" on="1"/>
        <pt x="492" y="557" on="1"/>
        <pt x="483" y="557" on="1"/>
        <pt x="482" y="609" on="0"/>
        <pt x="404" y="672" on="0"/>
        <pt x="340" y="672" on="1"/>
        <pt x="262" y="672" on="0"/>
        <pt x="227" y="625" on="1"/>
        <pt x="210" y="601" on="0"/>
        <pt x="210" y="545" on="0"/>
        <pt x="244" y="506" on="0"/>
        <pt x="281" y="483" on="1"/>
        <pt x="468" y="361" on="1"/>
        <pt x="525" y="324" on="0"/>
        <pt x="557" y="274" on="1"/>
        <pt x="595" y="215" on="0"/>
        <pt x="595" y="153" on="1"/>
        <pt x="595" y="113" on="0"/>
        <pt x="562" y="24" on="0"/>
        <pt x="487" y="-52" on="0"/>
        <pt x="369" y="-100" on="0"/>
        <pt x="226" y="-100" on="0"/>
        <pt x="168" y="-75" on="1"/>
        <pt x="61" y="-30" on="0"/>
        <pt x="32" y="82" on="1"/>
        <pt x="26" y="106" on="0"/>
        <pt x="26" y="132" on="1"/>
        <pt x="26" y="216" on="0"/>
        <pt x="85" y="291" on="1"/>
      </contour>
      <contour>
        <pt x="259" y="-334" on="1"/>
        <pt x="293" y="-322" on="0"/>
        <pt x="293" y="-288" on="1"/>
        <pt x="293" y="-270" on="0"/>
        <pt x="261" y="-231" on="0"/>
        <pt x="261" y="-187" on="0"/>
        <pt x="287" y="-159" on="0"/>
        <pt x="300" y="-159" on="1"/>
        <pt x="345" y="-159" on="0"/>
        <pt x="360" y="-194" on="1"/>
        <pt x="370" y="-215" on="0"/>
        <pt x="370" y="-243" on="0"/>
        <pt x="365" y="-278" on="0"/>
        <pt x="336" y="-322" on="0"/>
        <pt x="293" y="-343" on="0"/>
        <pt x="268" y="-343" on="0"/>
        <pt x="261" y="-342" on="1"/>
      </contour>
    </TTGlyph>
    <TTGlyph name="T" xMin="-75" yMin="-1" xMax="685" yMax="720">
      <contour>
        <pt x="-26" y="467" on="1"/>
        <pt x="-75" y="514" on="0"/>
        <pt x="-75" y="568" on="1"/>
        <pt x="-75" y="610" on="0"/>
        <pt x="-48" y="641" on="1"/>
        <pt x="3" y="701" on="0"/>
        <pt x="95" y="701" on="1"/>
        <pt x="566" y="701" on="1"/>
        <pt x="610" y="702" on="0"/>
        <pt x="676" y="715" on="0"/>
        <pt x="685" y="719" on="1"/>
        <pt x="685" y="545" on="1"/>
        <pt x="675" y="545" on="1"/>
        <pt x="675" y="557" on="1"/>
        <pt x="675" y="602" on="0"/>
        <pt x="621" y="658" on="0"/>
        <pt x="575" y="659" on="1"/>
        <pt x="440" y="659" on="1"/>
        <pt x="440" y="72" on="1"/>
        <pt x="442" y="36" on="0"/>
        <pt x="473" y="18" on="1"/>
        <pt x="487" y="10" on="0"/>
        <pt x="504" y="10" on="1"/>
        <pt x="517" y="10" on="1"/>
        <pt x="517" y="0" on="1"/>
        <pt x="213" y="0" on="1"/>
        <pt x="213" y="10" on="1"/>
        <pt x="226" y="10" on="1"/>
        <pt x="252" y="10" on="0"/>
        <pt x="289" y="46" on="0"/>
        <pt x="290" y="71" on="1"/>
        <pt x="290" y="659" on="1"/>
        <pt x="95" y="659" on="1"/>
        <pt x="54" y="659" on="0"/>
        <pt x="23" y="644" on="1"/>
        <pt x="-40" y="614" on="0"/>
        <pt x="-40" y="550" on="1"/>
        <pt x="-40" y="512" on="0"/>
        <pt x="-16" y="472" on="1"/>
      </contour>
    </TTGlyph>
    <TTGlyph name="Tbar" xMin="-76" yMin="-1" xMax="685" yMax="720">
      <contour>
        <pt x="-26" y="467" on="1"/>
        <pt x="-75" y="514" on="0"/>
        <pt x="-75" y="569" on="1"/>
        <pt x="-75" y="610" on="0"/>
        <pt x="-49" y="641" on="1"/>
        <pt x="2" y="701" on="0"/>
        <pt x="95" y="701" on="1"/>
        <pt x="566" y="701" on="1"/>
        <pt x="610" y="702" on="0"/>
        <pt x="676" y="715" on="0"/>
        <pt x="685" y="719" on="1"/>
        <pt x="685" y="545" on="1"/>
        <pt x="675" y="545" on="1"/>
        <pt x="675" y="557" on="1"/>
        <pt x="675" y="602" on="0"/>
        <pt x="621" y="658" on="0"/>
        <pt x="575" y="659" on="1"/>
        <pt x="440" y="659" on="1"/>
        <pt x="440" y="390" on="1"/>
        <pt x="595" y="390" on="1"/>
        <pt x="595" y="351" on="1"/>
        <pt x="440" y="351" on="1"/>
        <pt x="440" y="72" on="1"/>
        <pt x="442" y="36" on="0"/>
        <pt x="473" y="18" on="1"/>
        <pt x="487" y="10" on="0"/>
        <pt x="504" y="10" on="1"/>
        <pt x="517" y="10" on="1"/>
        <pt x="517" y="0" on="1"/>
        <pt x="213" y="0" on="1"/>
        <pt x="213" y="10" on="1"/>
        <pt x="226" y="10" on="1"/>
        <pt x="252" y="10" on="0"/>
        <pt x="289" y="46" on="0"/>
        <pt x="290" y="71" on="1"/>
        <pt x="290" y="351" on="1"/>
        <pt x="136" y="351" on="1"/>
        <pt x="136" y="390" on="1"/>
        <pt x="290" y="390" on="1"/>
        <pt x="290" y="659" on="1"/>
        <pt x="95" y="659" on="1"/>
        <pt x="54" y="659" on="0"/>
        <pt x="23" y="644" on="1"/>
        <pt x="-40" y="614" on="0"/>
        <pt x="-40" y="550" on="1"/>
        <pt x="-40" y="512" on="0"/>
        <pt x="-16" y="472" on="1"/>
      </contour>
    </TTGlyph>
    <TTGlyph name="Tcaron" xMin="-75" yMin="-1" xMax="685" yMax="901">
      <contour>
        <pt x="372" y="739" on="1"/>
        <pt x="360" y="739" on="1"/>
        <pt x="213" y="892" on="1"/>
        <pt x="220" y="900" on="1"/>
        <pt x="367" y="835" on="1"/>
        <pt x="503" y="900" on="1"/>
        <pt x="510" y="892" on="1"/>
      </contour>
      <contour>
        <pt x="-26" y="467" on="1"/>
        <pt x="-75" y="514" on="0"/>
        <pt x="-75" y="568" on="1"/>
        <pt x="-75" y="610" on="0"/>
        <pt x="-48" y="641" on="1"/>
        <pt x="3" y="701" on="0"/>
        <pt x="95" y="701" on="1"/>
        <pt x="566" y="701" on="1"/>
        <pt x="597" y="701" on="0"/>
        <pt x="670" y="713" on="0"/>
        <pt x="685" y="719" on="1"/>
        <pt x="685" y="545" on="1"/>
        <pt x="675" y="545" on="1"/>
        <pt x="675" y="557" on="1"/>
        <pt x="675" y="619" on="0"/>
        <pt x="628" y="645" on="1"/>
        <pt x="605" y="658" on="0"/>
        <pt x="575" y="659" on="1"/>
        <pt x="440" y="659" on="1"/>
        <pt x="440" y="72" on="1"/>
        <pt x="441" y="46" on="0"/>
        <pt x="478" y="10" on="0"/>
        <pt x="504" y="10" on="1"/>
        <pt x="517" y="10" on="1"/>
        <pt x="517" y="0" on="1"/>
        <pt x="213" y="0" on="1"/>
        <pt x="213" y="10" on="1"/>
        <pt x="226" y="10" on="1"/>
        <pt x="252" y="10" on="0"/>
        <pt x="289" y="46" on="0"/>
        <pt x="290" y="71" on="1"/>
        <pt x="290" y="659" on="1"/>
        <pt x="95" y="659" on="1"/>
        <pt x="54" y="659" on="0"/>
        <pt x="23" y="644" on="1"/>
        <pt x="-40" y="614" on="0"/>
        <pt x="-40" y="550" on="1"/>
        <pt x="-40" y="512" on="0"/>
        <pt x="-16" y="472" on="1"/>
      </contour>
    </TTGlyph>
    <TTGlyph name="Tcedilla" xMin="-75" yMin="-198" xMax="685" yMax="720">
      <contour>
        <pt x="-26" y="467" on="1"/>
        <pt x="-75" y="514" on="0"/>
        <pt x="-75" y="568" on="1"/>
        <pt x="-75" y="610" on="0"/>
        <pt x="-48" y="641" on="1"/>
        <pt x="3" y="701" on="0"/>
        <pt x="95" y="701" on="1"/>
        <pt x="566" y="701" on="1"/>
        <pt x="597" y="701" on="0"/>
        <pt x="670" y="713" on="0"/>
        <pt x="685" y="719" on="1"/>
        <pt x="685" y="545" on="1"/>
        <pt x="675" y="545" on="1"/>
        <pt x="675" y="557" on="1"/>
        <pt x="675" y="619" on="0"/>
        <pt x="628" y="645" on="1"/>
        <pt x="605" y="658" on="0"/>
        <pt x="575" y="659" on="1"/>
        <pt x="440" y="659" on="1"/>
        <pt x="440" y="72" on="1"/>
        <pt x="441" y="46" on="0"/>
        <pt x="478" y="10" on="0"/>
        <pt x="504" y="10" on="1"/>
        <pt x="517" y="10" on="1"/>
        <pt x="517" y="0" on="1"/>
        <pt x="384" y="0" on="1"/>
        <pt x="342" y="-48" on="1"/>
        <pt x="374" y="-37" on="0"/>
        <pt x="403" y="-45" on="1"/>
        <pt x="456" y="-59" on="0"/>
        <pt x="456" y="-158" on="0"/>
        <pt x="399" y="-184" on="1"/>
        <pt x="368" y="-198" on="0"/>
        <pt x="312" y="-198" on="0"/>
        <pt x="286" y="-189" on="1"/>
        <pt x="287" y="-179" on="1"/>
        <pt x="323" y="-179" on="0"/>
        <pt x="385" y="-142" on="0"/>
        <pt x="385" y="-105" on="1"/>
        <pt x="385" y="-87" on="0"/>
        <pt x="355" y="-65" on="0"/>
        <pt x="313" y="-65" on="0"/>
        <pt x="293" y="-72" on="1"/>
        <pt x="288" y="-62" on="1"/>
        <pt x="336" y="0" on="1"/>
        <pt x="213" y="0" on="1"/>
        <pt x="213" y="10" on="1"/>
        <pt x="226" y="10" on="1"/>
        <pt x="252" y="10" on="0"/>
        <pt x="289" y="46" on="0"/>
        <pt x="290" y="71" on="1"/>
        <pt x="290" y="659" on="1"/>
        <pt x="95" y="659" on="1"/>
        <pt x="54" y="659" on="0"/>
        <pt x="23" y="644" on="1"/>
        <pt x="-40" y="614" on="0"/>
        <pt x="-40" y="550" on="1"/>
        <pt x="-40" y="512" on="0"/>
        <pt x="-16" y="472" on="1"/>
      </contour>
    </TTGlyph>
    <TTGlyph name="Thorn" xMin="42" yMin="-1" xMax="619" yMax="701">
      <contour>
        <pt x="619" y="354" on="1"/>
        <pt x="619" y="308" on="0"/>
        <pt x="601" y="267" on="1"/>
        <pt x="567" y="189" on="0"/>
        <pt x="475" y="159" on="1"/>
        <pt x="449" y="150" on="0"/>
        <pt x="426" y="150" on="1"/>
        <pt x="356" y="150" on="0"/>
        <pt x="299" y="187" on="1"/>
        <pt x="299" y="197" on="1"/>
        <pt x="374" y="195" on="0"/>
        <pt x="421" y="246" on="1"/>
        <pt x="461" y="290" on="0"/>
        <pt x="461" y="361" on="1"/>
        <pt x="461" y="470" on="0"/>
        <pt x="385" y="502" on="1"/>
        <pt x="361" y="512" on="0"/>
        <pt x="332" y="512" on="1"/>
        <pt x="270" y="512" on="1"/>
        <pt x="270" y="73" on="1"/>
        <pt x="270" y="47" on="0"/>
        <pt x="307" y="10" on="0"/>
        <pt x="334" y="10" on="1"/>
        <pt x="346" y="10" on="1"/>
        <pt x="346" y="0" on="1"/>
        <pt x="43" y="0" on="1"/>
        <pt x="43" y="10" on="1"/>
        <pt x="55" y="10" on="1"/>
        <pt x="82" y="10" on="0"/>
        <pt x="119" y="47" on="0"/>
        <pt x="120" y="73" on="1"/>
        <pt x="120" y="628" on="1"/>
        <pt x="119" y="654" on="0"/>
        <pt x="82" y="690" on="0"/>
        <pt x="56" y="690" on="1"/>
        <pt x="43" y="690" on="1"/>
        <pt x="43" y="700" on="1"/>
        <pt x="346" y="700" on="1"/>
        <pt x="346" y="690" on="1"/>
        <pt x="334" y="690" on="1"/>
        <pt x="308" y="690" on="0"/>
        <pt x="270" y="654" on="0"/>
        <pt x="270" y="628" on="1"/>
        <pt x="270" y="554" on="1"/>
        <pt x="372" y="554" on="1"/>
        <pt x="495" y="554" on="0"/>
        <pt x="555" y="502" on="1"/>
        <pt x="619" y="447" on="0"/>
      </contour>
    </TTGlyph>
    <TTGlyph name="U" xMin="37" yMin="-14" xMax="937" yMax="904">
      <contour>
        <pt x="910" y="903" on="1"/>
        <pt x="923" y="903" on="0"/>
        <pt x="937" y="902" on="1"/>
        <pt x="937" y="892" on="1"/>
        <pt x="819" y="883" on="0"/>
        <pt x="767" y="780" on="1"/>
        <pt x="733" y="713" on="0"/>
        <pt x="733" y="610" on="1"/>
        <pt x="733" y="253" on="1"/>
        <pt x="731" y="127" on="0"/>
        <pt x="573" y="-14" on="0"/>
        <pt x="280" y="-14" on="0"/>
        <pt x="106" y="131" on="0"/>
        <pt x="107" y="252" on="1"/>
        <pt x="107" y="641" on="1"/>
        <pt x="107" y="662" on="0"/>
        <pt x="76" y="690" on="0"/>
        <pt x="54" y="690" on="1"/>
        <pt x="38" y="690" on="1"/>
        <pt x="38" y="700" on="1"/>
        <pt x="326" y="700" on="1"/>
        <pt x="326" y="690" on="1"/>
        <pt x="310" y="690" on="1"/>
        <pt x="279" y="690" on="0"/>
        <pt x="264" y="666" on="1"/>
        <pt x="257" y="655" on="0"/>
        <pt x="257" y="642" on="1"/>
        <pt x="257" y="260" on="1"/>
        <pt x="257" y="154" on="0"/>
        <pt x="367" y="30" on="0"/>
        <pt x="457" y="30" on="1"/>
        <pt x="458" y="30" on="0"/>
        <pt x="458" y="30" on="0"/>
        <pt x="459" y="30" on="1"/>
        <pt x="548" y="30" on="0"/>
        <pt x="662" y="146" on="0"/>
        <pt x="662" y="247" on="1"/>
        <pt x="662" y="610" on="1"/>
        <pt x="662" y="745" on="0"/>
        <pt x="805" y="903" on="0"/>
      </contour>
    </TTGlyph>
    <TTGlyph name="Uacute" xMin="37" yMin="-14" xMax="937" yMax="934">
      <contour>
        <pt x="459" y="762" on="1"/>
        <pt x="452" y="769" on="1"/>
        <pt x="495" y="843" on="0"/>
        <pt x="596" y="933" on="1"/>
        <pt x="644" y="908" on="0"/>
        <pt x="663" y="852" on="1"/>
        <pt x="561" y="787" on="0"/>
      </contour>
      <contour>
        <pt x="910" y="903" on="1"/>
        <pt x="923" y="903" on="0"/>
        <pt x="937" y="902" on="1"/>
        <pt x="937" y="892" on="1"/>
        <pt x="839" y="885" on="0"/>
        <pt x="733" y="738" on="0"/>
        <pt x="733" y="610" on="1"/>
        <pt x="733" y="253" on="1"/>
        <pt x="731" y="82" on="0"/>
        <pt x="593" y="18" on="1"/>
        <pt x="525" y="-14" on="0"/>
        <pt x="430" y="-14" on="1"/>
        <pt x="280" y="-14" on="0"/>
        <pt x="106" y="131" on="0"/>
        <pt x="107" y="252" on="1"/>
        <pt x="107" y="641" on="1"/>
        <pt x="107" y="662" on="0"/>
        <pt x="76" y="690" on="0"/>
        <pt x="54" y="690" on="1"/>
        <pt x="38" y="690" on="1"/>
        <pt x="38" y="700" on="1"/>
        <pt x="326" y="700" on="1"/>
        <pt x="326" y="690" on="1"/>
        <pt x="310" y="690" on="1"/>
        <pt x="279" y="690" on="0"/>
        <pt x="264" y="666" on="1"/>
        <pt x="257" y="655" on="0"/>
        <pt x="257" y="642" on="1"/>
        <pt x="257" y="260" on="1"/>
        <pt x="257" y="154" on="0"/>
        <pt x="367" y="30" on="0"/>
        <pt x="457" y="30" on="1"/>
        <pt x="458" y="30" on="0"/>
        <pt x="458" y="30" on="0"/>
        <pt x="458" y="30" on="1"/>
        <pt x="548" y="30" on="0"/>
        <pt x="604" y="87" on="1"/>
        <pt x="662" y="145" on="0"/>
        <pt x="662" y="247" on="1"/>
        <pt x="662" y="610" on="1"/>
        <pt x="662" y="745" on="0"/>
        <pt x="805" y="903" on="0"/>
      </contour>
    </TTGlyph>
    <TTGlyph name="Ucircumflex" xMin="37" yMin="-14" xMax="937" yMax="916">
      <contour>
        <pt x="463" y="915" on="1"/>
        <pt x="474" y="915" on="1"/>
        <pt x="627" y="762" on="1"/>
        <pt x="620" y="754" on="1"/>
        <pt x="468" y="819" on="1"/>
        <pt x="325" y="754" on="1"/>
        <pt x="319" y="762" on="1"/>
      </contour>
      <contour>
        <pt x="910" y="903" on="1"/>
        <pt x="923" y="903" on="0"/>
        <pt x="937" y="902" on="1"/>
        <pt x="937" y="892" on="1"/>
        <pt x="839" y="884" on="0"/>
        <pt x="733" y="738" on="0"/>
        <pt x="733" y="610" on="1"/>
        <pt x="733" y="253" on="1"/>
        <pt x="731" y="127" on="0"/>
        <pt x="573" y="-14" on="0"/>
        <pt x="280" y="-14" on="0"/>
        <pt x="106" y="131" on="0"/>
        <pt x="107" y="252" on="1"/>
        <pt x="107" y="641" on="1"/>
        <pt x="107" y="662" on="0"/>
        <pt x="76" y="690" on="0"/>
        <pt x="54" y="690" on="1"/>
        <pt x="38" y="690" on="1"/>
        <pt x="38" y="700" on="1"/>
        <pt x="326" y="700" on="1"/>
        <pt x="326" y="690" on="1"/>
        <pt x="310" y="690" on="1"/>
        <pt x="288" y="690" on="0"/>
        <pt x="258" y="662" on="0"/>
        <pt x="257" y="642" on="1"/>
        <pt x="257" y="260" on="1"/>
        <pt x="257" y="154" on="0"/>
        <pt x="367" y="30" on="0"/>
        <pt x="457" y="30" on="1"/>
        <pt x="458" y="30" on="0"/>
        <pt x="458" y="30" on="0"/>
        <pt x="459" y="30" on="1"/>
        <pt x="548" y="30" on="0"/>
        <pt x="662" y="146" on="0"/>
        <pt x="662" y="247" on="1"/>
        <pt x="662" y="610" on="1"/>
        <pt x="662" y="745" on="0"/>
        <pt x="805" y="903" on="0"/>
      </contour>
    </TTGlyph>
</ttFont>
